<?xml version="1.0" encoding="iso-8859-1"?>
<!-- Generator: Adobe Illustrator 19.0.0, SVG Export Plug-In . SVG Version: 6.00 Build 0)  -->
<svg version="1.1" id="Capa_1" xmlns="http://www.w3.org/2000/svg" xmlns:xlink="http://www.w3.org/1999/xlink" x="0px" y="0px"
	 viewBox="0 0 512.002 512.002" style="enable-background:new 0 0 512.002 512.002;" xml:space="preserve">
<g>
	<path style="fill:#FFA800;" d="M475.308,109.4c-1.743,0.401-3.51,0.686-5.291,0.852c4.019,2.199,7.896,4.651,11.605,7.34
		c0,0-12.629,26.794-28.075,30.464c-1.039,0.266-2.093,0.465-3.157,0.597c3.584,2.475,5.973,4.267,5.973,4.267
		s-12.629,26.71-28.075,30.464c-9.879,2.755-20.481,0.314-28.16-6.485l-2.731-2.731L75.521,496.044
		c-4.735,4.753-11.168,7.424-17.877,7.424s-13.142-2.672-17.877-7.424L22.7,478.978l-6.741-6.741
		c-4.752-4.736-7.424-11.169-7.424-17.878c0-6.709,2.671-13.142,7.424-17.878l321.877-321.877l0.171-0.341
		c-9.111-7.285-12.835-19.405-9.387-30.549c3.755-15.446,30.464-28.075,30.464-28.075c1.539,1.965,2.963,4.016,4.267,6.144
		c0.124-1.122,0.323-2.233,0.597-3.328c3.755-15.36,30.464-28.075,30.464-28.075c2.689,3.679,5.141,7.527,7.339,11.519
		c0.159-1.753,0.444-3.492,0.853-5.205c2.645-10.923,16.896-20.565,25.003-25.173c3.243-1.877,5.547-2.987,5.547-2.987
		c4.474,6.056,8.226,12.615,11.179,19.541c1.193-1.682,2.536-3.252,4.011-4.693c7.68-7.765,22.272-9.984,33.792-10.581
		c5.55-0.209,11.108-0.067,16.64,0.427c0,0,3.84,36.523-10.069,50.517c-1.536,1.451-3.072,2.817-4.608,4.011
		c6.842,2.981,13.337,6.701,19.371,11.093C503.468,78.85,490.753,105.644,475.308,109.4z"/>
	<path style="fill:#FFFFFF;" d="M478.977,33.026c-5.066,1.318-9.727,3.868-13.568,7.424c-1.475,1.441-2.818,3.012-4.011,4.693
		c-2.953-6.927-6.705-13.485-11.179-19.541c0,0-2.304,1.109-5.547,2.987l-0.341-0.512c1.193-1.682,2.536-3.252,4.011-4.693
		c0.32-0.309,0.662-0.594,1.024-0.853c0.592-0.637,1.25-1.209,1.963-1.707c0.085,0,0.171-0.085,0.256-0.171
		c0.88-0.59,1.791-1.132,2.731-1.621c3.962-2.02,8.183-3.484,12.544-4.352c0.939-0.171,1.877-0.427,2.731-0.512
		c3.072-0.512,6.229-0.853,9.216-1.109c0.939-0.085,1.877-0.171,2.731-0.171c0.256,0,0.427-0.085,0.597-0.085
		c5.55-0.209,11.108-0.067,16.64,0.427C498.774,13.228,485.548,31.063,478.977,33.026z"/>
	<path style="fill:#FFE100;" d="M486.401,61.783c0,0-1.109,2.304-2.987,5.547c-4.608,8.107-14.251,22.357-25.173,25.003
		c-1.743,0.401-3.51,0.686-5.291,0.852c4.019,2.199,7.896,4.651,11.605,7.34c0,0-12.629,26.794-28.075,30.464
		c-1.039,0.266-2.093,0.465-3.157,0.597c3.584,2.475,5.973,4.267,5.973,4.267s-12.629,26.71-28.075,30.464
		c-9.879,2.755-20.481,0.314-28.16-6.485l-2.731-2.731L58.454,478.978c-7.855,7.899-19.965,9.703-29.781,4.436
		c-5.338-9.818-3.566-21.98,4.352-29.867L354.902,131.67l0.171-0.341c-9.111-7.285-12.835-19.405-9.387-30.549
		c3.755-15.445,30.464-28.075,30.464-28.075c1.539,1.965,2.963,4.016,4.267,6.144c0.124-1.122,0.323-2.233,0.597-3.328
		c3.755-15.36,30.464-28.074,30.464-28.074c2.689,3.679,5.141,7.527,7.339,11.519c0.159-1.753,0.444-3.492,0.853-5.205
		c2.645-10.923,16.896-20.565,25.003-25.174c3.243-1.877,5.547-2.987,5.547-2.987c4.474,6.056,8.226,12.615,11.179,19.541
		c1.193-1.682,2.535-3.253,4.011-4.693c8.996-8.806,18.892-16.642,29.525-23.381c-6.708,10.658-14.516,20.583-23.296,29.611
		c-1.536,1.451-3.072,2.817-4.608,4.011C473.872,53.671,480.368,57.39,486.401,61.783L486.401,61.783z"/>
	<path style="fill:#FFFFFF;" d="M444.673,28.588c-8.107,4.608-22.357,14.251-25.003,25.174c-0.409,1.712-0.694,3.451-0.853,5.204
		c-2.198-3.992-4.649-7.84-7.339-11.519c0,0-26.709,12.714-30.464,28.074c-0.274,1.095-0.474,2.206-0.597,3.328
		c-1.304-2.128-2.728-4.179-4.267-6.144c0,0-26.709,12.629-30.464,28.075c-3.448,11.144,0.275,23.264,9.387,30.549l-0.171,0.341
		L33.025,453.548c-7.918,7.887-9.69,20.048-4.352,29.867c1.14,2.175,2.607,4.161,4.352,5.889L22.7,478.978l-6.741-6.741
		c-4.752-4.736-7.424-11.169-7.424-17.878c0-6.709,2.671-13.142,7.424-17.878l321.877-321.877l0.171-0.341
		c-9.111-7.285-12.835-19.405-9.387-30.549c3.755-15.446,30.464-28.075,30.464-28.075c1.539,1.965,2.963,4.016,4.267,6.144
		c0.124-1.122,0.323-2.233,0.597-3.328c3.755-15.36,30.464-28.075,30.464-28.075c2.689,3.679,5.141,7.527,7.339,11.519
		c0.159-1.753,0.444-3.492,0.853-5.205c0.104-0.439,0.247-0.868,0.427-1.281c0.091-0.469,0.234-0.927,0.427-1.364
		c1.138-2.578,2.663-4.966,4.523-7.083c0.316-0.419,0.658-0.818,1.024-1.195c7.033-7.052,15.195-12.878,24.149-17.237
		c4.474,6.056,8.226,12.615,11.179,19.541L444.673,28.588z"/>
	<g>
		<path d="M484.093,76.26c-1.14,0-2.268-0.23-3.317-0.675c-3.22-1.408-6.628-2.34-10.117-2.767
			c-4.667-0.501-8.053-4.675-7.581-9.345c0.472-4.669,4.626-8.082,9.298-7.638c5.181,0.603,10.246,1.962,15.033,4.033
			c3.739,1.579,5.848,5.574,5.043,9.552C491.647,73.398,488.151,76.259,484.093,76.26L484.093,76.26z"/>
		<path d="M470.018,118.818c-1.472,0-2.919-0.382-4.2-1.108c-2.795-1.591-5.716-2.948-8.733-4.058
			c-3.082-1.346-6.396-2.082-9.758-2.167h-0.125c-4.69,0.002-8.504-3.781-8.538-8.471c-0.034-4.69,3.723-8.529,8.413-8.595
			c5.481,0.072,10.9,1.171,15.975,3.242c3.864,1.425,7.604,3.164,11.183,5.2c3.374,1.911,5.035,5.856,4.045,9.605
			C477.288,116.214,473.895,118.824,470.018,118.818L470.018,118.818z"/>
		<path d="M428.959,118.877c-3.559,0.001-6.744-2.207-7.993-5.539s-0.298-7.09,2.385-9.428c4.974-4.269,10.902-7.278,17.283-8.775
			c2.152-0.503,4.357-0.744,6.567-0.717c4.713,0,8.533,3.821,8.533,8.533s-3.821,8.533-8.533,8.533
			c-0.828-0.02-1.655,0.052-2.467,0.217c-3.747,0.853-7.233,2.593-10.167,5.075C433.014,118.133,431.021,118.879,428.959,118.877
			L428.959,118.877z"/>
		<path d="M422.718,146.76c-2.447,0.004-4.776-1.054-6.383-2.9l-0.058-0.067c-2.601-3.033-2.739-7.468-0.331-10.656
			c2.408-3.189,6.711-4.27,10.34-2.599c3.629,1.671,5.604,5.644,4.746,9.547C430.173,143.987,426.713,146.765,422.718,146.76
			L422.718,146.76z"/>
		<path d="M450.301,157.268c-3.348,0-6.387-1.957-7.771-5.005s-0.858-6.624,1.346-9.145c1.995-2.306,5.068-3.372,8.062-2.798
			c2.994,0.575,5.455,2.703,6.454,5.583c1,2.88,0.387,6.075-1.608,8.381l-0.058,0.067
			C455.108,156.209,452.764,157.273,450.301,157.268L450.301,157.268z"/>
		<path d="M400.168,185.46c-2.276,0.004-4.459-0.905-6.059-2.525c-1.317-1.3-2.503-2.726-3.541-4.258
			c-1.717-2.537-1.943-5.799-0.592-8.548c1.351-2.749,4.072-4.563,7.129-4.753c3.057-0.19,5.982,1.273,7.663,3.834
			c0.43,0.615,0.918,1.187,1.458,1.708c2.425,2.446,3.142,6.111,1.817,9.29S403.612,185.46,400.168,185.46L400.168,185.46z"/>
		<path d="M450.251,157.243c-1.572,0.005-3.114-0.431-4.45-1.258c-5.148-3.347-10.701-6.024-16.525-7.967
			c-1.213-0.464-2.469-0.804-3.75-1.017c-0.787-0.143-1.584-0.221-2.383-0.233c-2.603,0.167-5.13-0.913-6.808-2.908
			c-3.106-3.553-2.76-8.948,0.775-12.075c1.777-1.508,4.075-2.259,6.4-2.092c1.663,0.031,3.321,0.196,4.958,0.492
			c2.174,0.367,4.309,0.939,6.375,1.708c6.758,2.239,13.213,5.306,19.217,9.133c0.683,0.332,1.319,0.752,1.892,1.25
			c1.705,1.481,2.75,3.579,2.907,5.831c0.156,2.253-0.59,4.475-2.073,6.177C455.135,156.167,452.753,157.245,450.251,157.243z"/>
		<path d="M447.726,48.96c-4.368-0.002-8.028-3.305-8.475-7.65c-0.472-3.436-1.417-6.79-2.808-9.967
			c-1.8-4.358,0.275-9.35,4.633-11.15c4.358-1.8,9.35,0.275,11.15,4.633c2.024,4.691,3.368,9.646,3.992,14.717
			c0.237,2.25-0.432,4.502-1.857,6.26c-1.426,1.757-3.492,2.875-5.743,3.107C448.322,48.943,448.024,48.96,447.726,48.96z"/>
		<path d="M401.659,91.577c-3.346,0.001-6.384-1.954-7.769-5c-1.386-3.046-0.863-6.62,1.336-9.142
			c2.476-2.922,4.211-6.398,5.058-10.133c0.178-0.821,0.256-1.661,0.233-2.5c-0.112-3.363-0.831-6.677-2.125-9.783
			c-1.06-3.076-2.407-6.044-4.025-8.867c-1.529-2.648-1.525-5.912,0.012-8.555c1.537-2.644,4.37-4.263,7.428-4.245
			c3.058,0.018,5.872,1.672,7.377,4.334c2.109,3.668,3.867,7.526,5.25,11.525c2.02,4.997,3.088,10.327,3.15,15.717
			c0.021,2.18-0.225,4.355-0.733,6.475c-1.491,6.37-4.496,12.287-8.758,17.25C406.473,90.512,404.126,91.579,401.659,91.577z"/>
		<path d="M57.668,512.002c-8.976,0.026-17.589-3.542-23.917-9.908L9.909,478.252c-6.344-6.343-9.908-14.946-9.908-23.917
			c0-8.971,3.564-17.574,9.908-23.917l197.392-197.392c3.338-3.296,8.711-3.279,12.029,0.038c3.317,3.317,3.334,8.691,0.038,12.029
			L21.976,442.485c-6.533,6.549-6.533,17.151,0,23.7l23.842,23.842c6.549,6.533,17.151,6.533,23.7,0l321.875-321.875
			c1.6-1.601,3.77-2.5,6.033-2.5c2.263,0,4.433,0.899,6.033,2.5l2.742,2.742c5.563,4.687,13.113,6.256,20.083,4.175
			c6.275-1.525,13.867-10.933,19-19.541c-2.744-2.032-4.012-5.504-3.225-8.826c0.787-3.322,3.478-5.856,6.842-6.441l1.025-0.167
			c0.494-0.06,0.983-0.149,1.467-0.267c6.741-1.625,14.292-11.517,19.058-19.442c-1.342-0.825-2.859-1.708-4.5-2.6
			c-3.28-1.785-5.018-5.496-4.291-9.159c0.728-3.663,3.752-6.428,7.466-6.824c1.356-0.117,2.702-0.337,4.025-0.658
			c6.375-1.55,13.983-10.925,19.142-19.525c-3.666-2.3-7.505-4.312-11.483-6.017c-2.808-1.172-4.78-3.751-5.175-6.769
			s0.846-6.017,3.259-7.873c1.328-1.009,2.589-2.103,3.775-3.275c6.65-6.658,8.408-23.625,8.058-36.392
			c-12.875-0.341-29.692,1.45-36.358,8.117c-1.131,1.124-2.166,2.343-3.092,3.642c-1.793,2.546-4.844,3.895-7.933,3.508
			c-3.086-0.359-5.732-2.367-6.908-5.242c-1.695-4.03-3.716-7.915-6.042-11.617c-8.6,5.158-17.967,12.742-19.492,18.983
			c-0.301,1.363-0.515,2.743-0.642,4.133c-0.391,3.704-3.139,6.726-6.789,7.466c-3.65,0.74-7.359-0.974-9.161-4.233
			c-0.9-1.625-1.792-3.125-2.625-4.467c-8.583,5.142-17.908,12.692-19.4,18.9c-0.21,0.721-0.366,1.456-0.467,2.2
			c-0.382,3.511-2.888,6.423-6.303,7.325c-3.414,0.902-7.031-0.394-9.097-3.258c-8.592,5.133-17.967,12.708-19.483,18.967
			c-2.538,7.68-0.242,16.134,5.833,21.475c3.788,2.553,4.896,7.634,2.517,11.533c-0.413,0.675-0.893,1.306-1.434,1.883
			l-73.283,73.283c-3.338,3.296-8.711,3.279-12.029-0.038c-3.317-3.317-3.334-8.691-0.038-12.029l67.467-67.467
			c-6.59-9.541-8.641-21.5-5.609-32.692c4.567-18.833,31.983-32.283,35.092-33.758c1.381-0.664,2.918-0.932,4.442-0.775
			c8.248-10.445,18.827-18.813,30.892-24.433c2.918-1.389,6.371-1.008,8.917,0.983c8.169-9.668,18.324-17.464,29.775-22.858
			c3.642-1.732,7.999-0.675,10.442,2.533c2.457,3.316,4.72,6.771,6.775,10.35c17.775-12.2,49.15-9.35,52.958-8.95
			c4.004,0.418,7.169,3.58,7.592,7.583c0.408,3.817,3.3,35.225-8.883,53.008c3.548,2.043,6.976,4.289,10.267,6.725
			c3.218,2.44,4.282,6.802,2.55,10.45c-5.391,11.45-13.184,21.605-22.85,29.775c2.031,2.549,2.432,6.032,1.033,8.975
			c-5.626,12.074-14.013,22.656-24.483,30.891c0.128,1.505-0.142,3.016-0.783,4.383c-1.475,3.108-14.925,30.525-33.775,35.1
			c-11.183,2.997-23.117,0.931-32.642-5.65L81.584,502.093C75.257,508.46,66.644,512.028,57.668,512.002z"/>
		<path d="M238.076,221.01c-2.27,0.022-4.453-0.87-6.058-2.475s-2.497-3.788-2.475-6.058c0.014-1.115,0.246-2.216,0.683-3.242
			c0.437-1.032,1.042-1.984,1.792-2.817c3.421-3.158,8.695-3.158,12.117,0c0.755,0.829,1.361,1.782,1.792,2.817
			c1.124,2.624,0.847,5.638-0.737,8.013C243.606,219.623,240.931,221.038,238.076,221.01L238.076,221.01z"/>
		<path d="M338.018,122.852c-2.248,0.003-4.405-0.891-5.992-2.483l-0.058-0.058c-2.844-2.891-3.254-7.386-0.979-10.743
			c2.275-3.357,6.603-4.642,10.341-3.072c3.739,1.571,5.85,5.561,5.045,9.536C345.57,120.005,342.073,122.86,338.018,122.852
			L338.018,122.852z"/>
		<path d="M372.209,88.718c-3.739-0.002-7.042-2.437-8.15-6.008c-1.972-5.792-4.653-11.317-7.983-16.45
			c-2.468-4.008-1.225-9.257,2.777-11.734c4.002-2.477,9.254-1.246,11.74,2.75c4.091,6.362,7.372,13.209,9.767,20.383
			c0.801,2.589,0.325,5.405-1.283,7.587C377.468,87.429,374.919,88.717,372.209,88.718L372.209,88.718z"/>
		<path d="M337.818,242.327c-2.264,0.003-4.435-0.897-6.033-2.5l-59.608-59.608c-2.155-2.156-2.997-5.297-2.208-8.242
			c0.789-2.944,3.089-5.244,6.033-6.033c2.944-0.789,6.086,0.053,8.242,2.208l59.608,59.608c2.44,2.44,3.169,6.11,1.849,9.298
			C344.38,240.246,341.269,242.326,337.818,242.327L337.818,242.327z"/>
	</g>
</g>
<g>
</g>
<g>
</g>
<g>
</g>
<g>
</g>
<g>
</g>
<g>
</g>
<g>
</g>
<g>
</g>
<g>
</g>
<g>
</g>
<g>
</g>
<g>
</g>
<g>
</g>
<g>
</g>
<g>
</g>
</svg>
