<?xml version="1.0" encoding="iso-8859-1"?>
<!-- Generator: Adobe Illustrator 19.0.0, SVG Export Plug-In . SVG Version: 6.00 Build 0)  -->
<svg version="1.1" id="Layer_1" xmlns="http://www.w3.org/2000/svg" xmlns:xlink="http://www.w3.org/1999/xlink" x="0px" y="0px"
	 viewBox="0 0 512 512" style="enable-background:new 0 0 512 512;" xml:space="preserve">
<path style="fill:#87AA3A;" d="M512,235.544c0-35.475-28.753-64.227-64.228-64.227H64.228C28.753,171.316,0,200.068,0,235.544
	l0.098,0.013C0.024,236.364,0,237.172,0,237.993c0,9.833,3.992,18.737,10.433,25.178c6.441,6.453,15.331,10.433,25.165,10.433
	l233.878,26.365l206.926-26.365c19.666,0,35.598-15.944,35.598-35.61c0-0.82-0.024-1.629-0.098-2.436L512,235.544z"/>
<path style="fill:#9AD14B;" d="M512,235.544l-0.098,0.012c-0.588-8.866-4.421-16.838-10.323-22.74
	c-6.441-6.441-15.344-10.421-25.177-10.421H35.598c-18.834,0-34.263,14.633-35.5,33.161L0,235.544
	c0-35.475,28.753-64.228,64.228-64.228h383.544C483.247,171.316,512,200.068,512,235.544z"/>
<g>
	<path style="fill:#BDED69;" d="M467.304,273.603h-75.408c0-20.817,16.887-37.704,37.704-37.704
		C450.417,235.899,467.304,252.786,467.304,273.603z"/>
	<path style="fill:#BDED69;" d="M359.334,273.603h-75.408c0-20.817,16.887-37.704,37.704-37.704
		C342.448,235.899,359.334,252.786,359.334,273.603z"/>
	<path style="fill:#BDED69;" d="M251.353,273.603h-75.396c0-20.817,16.874-37.704,37.704-37.704
		C234.478,235.899,251.353,252.786,251.353,273.603z"/>
	<path style="fill:#BDED69;" d="M143.383,273.603H67.987c0-20.817,16.874-37.704,37.704-37.704
		C126.509,235.899,143.383,252.786,143.383,273.603z"/>
</g>
<path style="fill:#9AD14B;" d="M476.402,271.154H512c-13.25,21.601-31.63,38.978-53.048,50.966
	c-21.405,11.988-45.835,18.564-71.171,18.564H124.231c-50.684,0-97.732-26.328-124.231-69.53h35.598h32.39h75.396h32.573h75.396
	h32.573h75.408h32.561h75.408H476.402z"/>
<path style="fill:#90BC42;" d="M97.965,271.154H67.987h-32.39H0c26.499,43.202,73.547,69.53,124.231,69.53h97.965
	C171.512,340.684,124.464,314.356,97.965,271.154z"/>
<g>
</g>
<g>
</g>
<g>
</g>
<g>
</g>
<g>
</g>
<g>
</g>
<g>
</g>
<g>
</g>
<g>
</g>
<g>
</g>
<g>
</g>
<g>
</g>
<g>
</g>
<g>
</g>
<g>
</g>
</svg>
