<?xml version="1.0" encoding="UTF-8" standalone="no"?>
<!-- Generator: Adobe Illustrator 18.0.0, SVG Export Plug-In . SVG Version: 6.00 Build 0)  -->

<svg
   xmlns:dc="http://purl.org/dc/elements/1.1/"
   xmlns:cc="http://creativecommons.org/ns#"
   xmlns:rdf="http://www.w3.org/1999/02/22-rdf-syntax-ns#"
   xmlns:svg="http://www.w3.org/2000/svg"
   xmlns="http://www.w3.org/2000/svg"
   xmlns:sodipodi="http://sodipodi.sourceforge.net/DTD/sodipodi-0.dtd"
   xmlns:inkscape="http://www.inkscape.org/namespaces/inkscape"
   version="1.1"
   id="Capa_1"
   x="0px"
   y="0px"
   viewBox="0 0 55.311 55.311"
   style="enable-background:new 0 0 55.311 55.311;"
   xml:space="preserve"
   sodipodi:docname="chives-2.svg"
   inkscape:version="0.92.4 (5da689c313, 2019-01-14)"><metadata
   id="metadata65"><rdf:RDF><cc:Work
       rdf:about=""><dc:format>image/svg+xml</dc:format><dc:type
         rdf:resource="http://purl.org/dc/dcmitype/StillImage" /></cc:Work></rdf:RDF></metadata><defs
   id="defs63">
	
	
	
	
	
	
	
	
	

		
		
		
		
	</defs><sodipodi:namedview
   pagecolor="#ffffff"
   bordercolor="#666666"
   borderopacity="1"
   objecttolerance="10"
   gridtolerance="10"
   guidetolerance="10"
   inkscape:pageopacity="0"
   inkscape:pageshadow="2"
   inkscape:window-width="1920"
   inkscape:window-height="1017"
   id="namedview61"
   showgrid="false"
   inkscape:zoom="4.2667823"
   inkscape:cx="27.6555"
   inkscape:cy="27.6555"
   inkscape:window-x="-8"
   inkscape:window-y="-8"
   inkscape:window-maximized="1"
   inkscape:current-layer="Capa_1" />
<g
   id="g893"
   transform="translate(-8.2614996,8.1645004)"><path
     style="fill:#659c35"
     d="M 22.911,36.568 C 35.293,24.12 53.19,10.652 53.19,10.652 L 45.412,2.874 c 0,0 -14.078,17.221 -26.579,29.538 z"
     id="path4"
     inkscape:connector-curvature="0" /><path
     inkscape:connector-curvature="0"
     id="path6"
     d="M 25.235,38.937 C 25.34,38.814 25.426,38.675 25.537,38.556 37.761,25.485 55.311,17.015 55.311,17.015 L 50.789,12.493 C 45.502,16.591 32.54,26.885 22.91,36.567 Z"
     style="fill:#88c057" /><path
     inkscape:connector-curvature="0"
     id="path12"
     d="M 18.834,32.413 C 28.554,22.836 39.222,10.299 43.489,5.193 L 38.341,0.045 c 0,0 -8.56,17.64 -21.631,29.864 -0.058,0.054 -0.128,0.096 -0.187,0.148 z"
     style="fill:#436b1c" /><polygon
     style="fill:#88c057"
     points="21.569,35.201 49.654,7.116 48.24,5.702 20.169,33.773 "
     id="polygon22" /></g>
<g
   id="g30">
</g>
<g
   id="g32">
</g>
<g
   id="g34">
</g>
<g
   id="g36">
</g>
<g
   id="g38">
</g>
<g
   id="g40">
</g>
<g
   id="g42">
</g>
<g
   id="g44">
</g>
<g
   id="g46">
</g>
<g
   id="g48">
</g>
<g
   id="g50">
</g>
<g
   id="g52">
</g>
<g
   id="g54">
</g>
<g
   id="g56">
</g>
<g
   id="g58">
</g>
</svg>