<?xml version="1.0" encoding="UTF-8" standalone="no"?>
<svg
   xmlns:dc="http://purl.org/dc/elements/1.1/"
   xmlns:cc="http://creativecommons.org/ns#"
   xmlns:rdf="http://www.w3.org/1999/02/22-rdf-syntax-ns#"
   xmlns:svg="http://www.w3.org/2000/svg"
   xmlns="http://www.w3.org/2000/svg"
   xmlns:sodipodi="http://sodipodi.sourceforge.net/DTD/sodipodi-0.dtd"
   xmlns:inkscape="http://www.inkscape.org/namespaces/inkscape"
   data-name="Layer 1"
   viewBox="0 0 100 125"
   x="0px"
   y="0px"
   version="1.1"
   id="svg16"
   sodipodi:docname="currants_black.svg"
   inkscape:version="0.92.4 (5da689c313, 2019-01-14)">
  <metadata
     id="metadata22">
    <rdf:RDF>
      <cc:Work
         rdf:about="">
        <dc:format>image/svg+xml</dc:format>
        <dc:type
           rdf:resource="http://purl.org/dc/dcmitype/StillImage" />
      </cc:Work>
    </rdf:RDF>
  </metadata>
  <defs
     id="defs20" />
  <sodipodi:namedview
     pagecolor="#ffffff"
     bordercolor="#666666"
     borderopacity="1"
     objecttolerance="10"
     gridtolerance="10"
     guidetolerance="10"
     inkscape:pageopacity="0"
     inkscape:pageshadow="2"
     inkscape:window-width="1920"
     inkscape:window-height="1017"
     id="namedview18"
     showgrid="false"
     inkscape:zoom="5.3400704"
     inkscape:cx="46.920451"
     inkscape:cy="51.184734"
     inkscape:window-x="-8"
     inkscape:window-y="-8"
     inkscape:window-maximized="1"
     inkscape:current-layer="svg16" />
  <title
     id="title2">Currant</title>
  <path
     d="M24,47.31c-.07.19-.15.38-.21.57-1.73,5.43.12,10.63,4.61,13.28A14.06,14.06,0,0,0,23.63,71,14.58,14.58,0,0,0,36.76,86.84c.47,0,.93.07,1.39.07a14.46,14.46,0,0,0,4-.56,11.74,11.74,0,0,0,10.69,10c.27,0,.55,0,.82,0a11.28,11.28,0,0,0,7.8-3.29,13.4,13.4,0,0,0,3.9-7.17,13.34,13.34,0,0,0,3.65.52,13.62,13.62,0,0,0,2.32-.2,13.46,13.46,0,1,0-7.8-25.53c0-.45.07-.91.07-1.37a13.91,13.91,0,0,0-.88-4.83,11.82,11.82,0,0,0,6.71,2.12,11.75,11.75,0,1,0-4.94-22.42,28.15,28.15,0,0,0-12.5-6.67A73,73,0,0,0,35,3.41l-.72-.62L30.9,6.28,38,13.53a18.93,18.93,0,0,1-2.48,11.61,16.49,16.49,0,0,0-8.16-10.49l-1.08-.58-1.36,4.57c-1.27-.32-3.35-.7-4.58-.18l-4.77,1.34.44,1c.1.24,2.27,5.34,6.46,8.06-1.68,1.3-4.36,3.5-5,4.76l-.52,1,1.26.49L16,39.06l1.49.69a14.34,14.34,0,0,0-1.56,6.59v.89l.88.11a37.29,37.29,0,0,0,4,.23A19.92,19.92,0,0,0,24,47.31Zm1.69,1.18A9.76,9.76,0,0,1,38,42.16a8.58,8.58,0,0,1,5.48,4.59,14,14,0,0,0-7.85,11.59,13.48,13.48,0,0,0-5.37,1.58l0,0C26,57.89,24.18,53.31,25.71,48.5ZM45.43,38.43c1.1-.39,2.37-1,2.7-1.15l.55-.26a32,32,0,0,1,.93,8.32h-.05a13.94,13.94,0,0,0-4.26.67,11.34,11.34,0,0,0-1-1.74l1.37-.2.17-.64A8.51,8.51,0,0,0,45.43,38.43ZM39.29,27.88a19,19,0,0,0,2.89-6.82,41.78,41.78,0,0,1,5.36,11.56c.29,1,.53,1.88.75,2.74A14.73,14.73,0,0,0,39.29,27.88Zm14.34,6c1.89.66,4.75,1.94,6.29,4a11.78,11.78,0,0,0-1.8,10.38,14,14,0,0,0-3.19-1.87A37.2,37.2,0,0,0,53.63,33.86Zm7.93,25.48a12,12,0,1,1-12-12A12,12,0,0,1,61.56,59.34ZM55.53,73c-.29,0-.57-.09-.86-.11a11.92,11.92,0,0,0-1.71,0A13.87,13.87,0,0,0,55.57,72C55.54,72.32,55.53,72.67,55.53,73ZM36.95,84.85A12.58,12.58,0,0,1,25.62,71.16C26.2,65,30,60.94,35.61,60.35A14,14,0,0,0,45.79,72.81a12.52,12.52,0,0,1,.07,1.7,10.82,10.82,0,0,1-.27,2.16,7.7,7.7,0,0,1-.81,2,5.74,5.74,0,0,1-1.54,1.63A6,6,0,0,0,45.19,79a8.45,8.45,0,0,0,1.35-2,12.05,12.05,0,0,0,.82-2.29,15.53,15.53,0,0,0,.29-1.54,14,14,0,0,0,1.92.15c.36,0,.71,0,1.06-.05l0,.09a1.43,1.43,0,0,1,0,.14A12.57,12.57,0,0,1,36.95,84.85ZM60,91.65A9.18,9.18,0,0,1,53,94.36,9.74,9.74,0,0,1,44,85.66a14.63,14.63,0,0,0,3.38-2.09,14.45,14.45,0,0,0,5-8.58,8.81,8.81,0,0,1,3.25.1c0,.07,0,.14,0,.21a13.39,13.39,0,0,0,5,8.26h0a9.6,9.6,0,0,1-.11,2.11,9.37,9.37,0,0,1-.58,2.1,6.77,6.77,0,0,1-1.17,1.86A6.36,6.36,0,0,1,57,91a6.62,6.62,0,0,0,2.14-1,7.51,7.51,0,0,0,1.7-1.74A10.61,10.61,0,0,0,62,86.06a13.28,13.28,0,0,0,.44-1.34c.32.18.64.34,1,.49A11.33,11.33,0,0,1,60,91.65Zm7-30a11.48,11.48,0,1,1-9.24,9A14,14,0,0,0,63,63.21,11.39,11.39,0,0,1,67,61.69Zm2.36-26.58a9.77,9.77,0,1,1-4.48,1.1A9.77,9.77,0,0,1,69.36,35.11ZM39.89,12.94l0-.33L33.69,6.27l.69-.71A73.4,73.4,0,0,1,50.31,28.8l.21.49.53.1a26.85,26.85,0,0,1,11.59,5.86,11.66,11.66,0,0,0-1.37,1.12c-3-3.64-8.79-5-9-5l-1.91-.42.77,1.79c2,4.71,2,10.8,1.89,13a13.86,13.86,0,0,0-1.37-.27c.08-1.26.15-5.69-2.15-13.45-2.7-9.11-7-14-7.21-14.22L40.64,16l-.14,2.4a16.91,16.91,0,0,1-3.06,8.61l-.24.38-.74-.09A20.79,20.79,0,0,0,39.89,12.94ZM18.75,38.15l2.26-4-1.09-.43a49,49,0,0,1,4.93-4.11l1.36-1-1.54-.71c-3.25-1.5-5.44-5-6.36-6.77l2.6-.73.16-.06c.61-.28,2.66,0,4.2.52l1,.3L27.43,17A15,15,0,0,1,34,28c-1.29,1.66-8,10-15.84,15.85a11.2,11.2,0,0,1,1.54-3.94l.73-1Zm.49,7.37A92.45,92.45,0,0,0,35.51,29.28a12.46,12.46,0,0,1,10.81,6.63,13.84,13.84,0,0,1-2.39.88L42.47,37l.71,1.29a7.71,7.71,0,0,1,.84,4l-1.35.2A11.81,11.81,0,0,0,25.25,44.9l-.44.17A16.46,16.46,0,0,1,19.24,45.51Z"
     id="path4" />
  <path
     d="M75.72,44.41a10.06,10.06,0,0,1-.25,3.43,5.94,5.94,0,0,1-.25.88l-.26.91a19.28,19.28,0,0,0-.63,1.87,14.08,14.08,0,0,0,1.49-1.39,11.42,11.42,0,0,0,1.12-1.74,7.53,7.53,0,0,0,.76-4.21,6.87,6.87,0,0,0-1.85-3.9,7.06,7.06,0,0,0-3.52-2.09,19.42,19.42,0,0,1,2.28,3A8.2,8.2,0,0,1,75.72,44.41Z"
     id="path6" />
  <path
     d="M57.55,58.74a10.06,10.06,0,0,1-.25,3.43,5.93,5.93,0,0,1-.25.88L56.8,64a19.28,19.28,0,0,0-.63,1.87,14.09,14.09,0,0,0,1.49-1.39,11.42,11.42,0,0,0,1.12-1.74,7.53,7.53,0,0,0,.76-4.21,6.87,6.87,0,0,0-1.85-3.9,7.06,7.06,0,0,0-3.52-2.09,19.42,19.42,0,0,1,2.28,3A8.2,8.2,0,0,1,57.55,58.74Z"
     id="path8" />
  <path
     d="M76.55,72.07a10.06,10.06,0,0,1-.25,3.43,5.93,5.93,0,0,1-.25.88l-.26.91a19.27,19.27,0,0,0-.63,1.87,14.1,14.1,0,0,0,1.49-1.39A11.42,11.42,0,0,0,77.77,76a7.53,7.53,0,0,0,.76-4.21,6.87,6.87,0,0,0-1.85-3.9,7.06,7.06,0,0,0-3.52-2.09,19.43,19.43,0,0,1,2.28,3A8.2,8.2,0,0,1,76.55,72.07Z"
     id="path10" />
  <path
     style="fill:#212178;fill-opacity:1;stroke:none;stroke-width:0;stroke-miterlimit:4;stroke-dasharray:none"
     d="M 67.425799,84.219625 C 61.746396,83.475264 57.284122,78.072989 57.652084,72.387027 l 0.09364,-1.446964 1.562928,-1.549251 c 1.634463,-1.620159 2.69695,-3.218608 3.382084,-5.088141 0.388778,-1.060864 0.450704,-1.125299 1.568615,-1.632184 1.818136,-0.824382 3.640467,-1.170172 5.503917,-1.044374 5.190886,0.350425 9.357759,4.067518 10.405717,9.282507 1.209784,6.020282 -3.033344,12.129878 -9.185379,13.225843 -1.649093,0.293781 -1.917114,0.300196 -3.557805,0.08516 z m 8.424411,-5.527616 c 0.774793,-0.590963 2.02112,-2.493456 2.420054,-3.694165 0.434712,-1.308394 0.391147,-3.615391 -0.09269,-4.908572 -0.541238,-1.446588 -2.106611,-3.100626 -3.656548,-3.863657 -0.66209,-0.325945 -1.25267,-0.543757 -1.312402,-0.484026 -0.05973,0.05973 0.323813,0.640929 0.852319,1.291551 2.576455,3.171767 3.016737,5.887345 1.641548,10.124778 -0.359322,1.107195 -0.614377,2.013082 -0.566789,2.013082 0.04759,0 0.369119,-0.215546 0.714513,-0.478991 z"
     id="path829"
     inkscape:connector-curvature="0" />
  <path
     style="fill:#212178;fill-opacity:1;stroke:none;stroke-width:0;stroke-miterlimit:4;stroke-dasharray:none"
     d="m 66.78997,54.155877 c -3.597855,-0.967518 -6.43903,-4.24843 -6.987843,-8.069373 -0.736822,-5.129895 2.999754,-10.02098 8.232241,-10.775801 6.501992,-0.937956 12.152935,4.945996 10.829904,11.276457 -0.791923,3.789194 -3.673675,6.843399 -7.230253,7.662931 -1.187119,0.273545 -3.654973,0.225546 -4.844049,-0.09421 z m 8.763716,-3.728219 c 0.534915,-0.565594 1.241737,-1.597884 1.570715,-2.293978 0.541375,-1.14551 0.598272,-1.434462 0.599515,-3.044627 0.0012,-1.601558 -0.05628,-1.900413 -0.576628,-2.996216 -0.328359,-0.691491 -0.967288,-1.600192 -1.479324,-2.103932 -0.923135,-0.908178 -2.509174,-1.8286 -3.150979,-1.8286 -0.30503,0 -0.262346,0.107592 0.281491,0.709555 2.97646,3.294585 3.539954,6.32304 2.015597,10.832683 -0.304237,0.900053 -0.553158,1.662787 -0.553158,1.694963 0,0.252992 0.46908,-0.09892 1.292771,-0.969848 z"
     id="path831"
     inkscape:connector-curvature="0" />
  <path
     style="fill:#212178;fill-opacity:1;stroke:none;stroke-width:0;stroke-miterlimit:4;stroke-dasharray:none"
     d="m 47.506353,71.107453 c -4.433399,-0.791169 -8.348777,-4.459439 -9.482237,-8.883795 -0.33655,-1.313694 -0.388092,-4.110804 -0.09948,-5.398651 0.896544,-4.000561 3.851931,-7.324857 7.729214,-8.694023 1.800337,-0.635744 4.905057,-0.796897 6.700802,-0.34781 3.316474,0.829397 6.397558,3.314463 7.817245,6.305044 1.181086,2.487967 1.522018,4.488066 1.165704,6.838685 -0.706064,4.657925 -3.683313,8.23222 -8.089023,9.711168 -1.640023,0.550538 -4.141604,0.755022 -5.742225,0.469382 z m 9.74787,-6.124398 c 3.636531,-3.887745 3.001316,-9.509935 -1.335634,-11.821505 -1.502982,-0.801082 -1.980443,-0.734048 -1.192372,0.167405 0.993652,1.136611 2.119888,3.034272 2.426257,4.088139 0.5777,1.987221 0.212223,5.049361 -0.9704,8.13049 -0.223246,0.581633 0.216758,0.349953 1.072149,-0.564529 z"
     id="path833"
     inkscape:connector-curvature="0" />
  <path
     style="fill:#212178;fill-opacity:1;stroke:none;stroke-width:0;stroke-miterlimit:4;stroke-dasharray:none"
     d="m 29.014373,59.059854 c -3.380085,-2.299327 -4.588982,-6.596865 -3.070785,-10.916408 1.120352,-3.187602 4.172069,-5.692199 7.603695,-6.240486 3.534126,-0.564663 7.479318,1.098679 9.274292,3.910157 l 0.522054,0.817697 -1.348252,0.88497 c -1.71896,1.128297 -3.310106,2.741365 -4.348474,4.408384 -0.856389,1.374867 -1.962259,4.351655 -1.962259,5.282023 0,0.796199 -0.354673,1.11893 -1.37138,1.247875 -0.496772,0.063 -1.507995,0.333615 -2.247162,0.60136 -1.994271,0.722375 -1.99632,0.722378 -3.051729,0.0044 z"
     id="path835"
     inkscape:connector-curvature="0" />
  <path
     style="fill:#212178;fill-opacity:1;stroke:none;stroke-width:0;stroke-miterlimit:4;stroke-dasharray:none"
     d="m 35.776386,84.610724 c -2.561401,-0.55079 -4.526491,-1.637233 -6.481289,-3.583319 -2.374643,-2.364063 -3.587982,-5.336742 -3.585776,-8.785152 0.0037,-5.732937 3.36917,-10.360567 8.379996,-11.522656 0.695657,-0.161333 1.292477,-0.265687 1.326267,-0.231896 0.03379,0.03379 0.200058,0.732548 0.369485,1.552796 0.52819,2.557132 1.440417,4.464732 3.073432,6.426999 1.489801,1.790178 4.072195,3.538119 6.1425,4.157664 l 0.795869,0.238166 v 1.059546 c 0,2.407761 -0.756227,4.581219 -2.005201,5.763103 -0.353735,0.334733 -0.551211,0.608606 -0.438836,0.608606 0.365866,0 1.619704,-0.886458 2.160577,-1.52752 0.762437,-0.903666 1.70364,-2.966136 1.972773,-4.322963 l 0.232451,-1.171896 1.379912,0.06161 c 1.334688,0.05959 1.379911,0.07712 1.379911,0.53476 0,0.913078 -0.601549,2.788686 -1.370278,4.272479 -1.436123,2.771995 -4.153202,5.055243 -7.243841,6.087233 -1.354242,0.452192 -4.766684,0.66656 -6.087952,0.38244 z"
     id="path837"
     inkscape:connector-curvature="0" />
  <path
     style="fill:#212178;fill-opacity:1;stroke:none;stroke-width:0;stroke-miterlimit:4;stroke-dasharray:none"
     d="m 51.678989,94.072077 c -3.41902,-0.775735 -6.278621,-3.465062 -7.268733,-6.835921 -0.164316,-0.559417 -0.298757,-1.120186 -0.298757,-1.246153 0,-0.125967 0.44241,-0.479487 0.983134,-0.785601 1.610416,-0.911689 2.977078,-2.028653 4.120194,-3.367409 1.225292,-1.434997 2.622647,-4.113668 2.981746,-5.715883 l 0.24287,-1.083625 1.482901,0.05368 1.482902,0.05367 0.50213,1.612495 c 0.697322,2.239319 1.682898,3.902749 3.340072,5.637294 l 1.415977,1.482086 -0.21744,1.491851 c -0.344842,2.365959 -1.197483,3.954194 -2.711646,5.051048 -0.865621,0.627053 -0.606296,0.70998 0.561935,0.179697 1.240704,-0.563181 2.578859,-2.038271 3.412057,-3.761217 0.403553,-0.834496 0.761089,-1.599334 0.794523,-1.69964 0.03546,-0.106379 0.225039,-0.119664 0.454955,-0.03188 0.380252,0.145182 0.384924,0.186367 0.132388,1.167032 -0.627816,2.437972 -2.631089,5.210063 -4.745695,6.567002 -1.869479,1.199641 -4.590286,1.702318 -6.665513,1.231474 z"
     id="path839"
     inkscape:connector-curvature="0" />
  <path
     style="fill:#8dd35f;fill-opacity:1;stroke:none;stroke-width:0;stroke-miterlimit:4;stroke-dasharray:none"
     d="m 52.210644,45.518685 c -0.377743,-0.07276 -0.421502,-0.191229 -0.42288,-1.144895 -0.0053,-3.642998 -1.414187,-10.404392 -3.206809,-15.389394 -1.493243,-4.152473 -4.470194,-9.345745 -6.86425,-11.974641 l -1.099172,-1.206993 -0.216682,2.330573 c -0.262821,2.826839 -0.696054,4.419265 -1.805828,6.637633 -0.943934,1.886867 -1.448743,2.611859 -1.74489,2.505965 -0.115081,-0.04115 0.07093,-0.530408 0.437881,-1.151713 2.020573,-3.421186 3.08135,-7.842936 2.813556,-11.728048 L 39.980279,12.637494 36.895417,9.4114074 C 34.130324,6.5197286 33.842585,6.158739 34.119551,5.9288777 c 0.273748,-0.2271911 0.489691,-0.064327 1.893076,1.4277588 5.240016,5.5712105 8.939307,10.8784185 12.458689,17.8739255 1.111672,2.20968 2.048965,4.045343 2.082875,4.079253 0.03391,0.03391 0.830336,0.272288 1.769839,0.529733 3.11955,0.854824 6.077435,2.318153 8.79208,4.349631 l 1.368114,1.023813 -0.617005,0.5151 c -0.588717,0.491482 -0.628127,0.499223 -0.859543,0.168829 -0.714616,-1.020258 -3.815147,-2.953439 -6.128528,-3.821139 -1.306715,-0.490119 -4.3962,-1.285665 -4.518379,-1.163484 -0.03538,0.03538 0.231152,0.789079 0.592292,1.674888 0.846413,2.076088 1.334934,4.008866 1.681513,6.652734 0.290251,2.214158 0.381261,6.429617 0.13786,6.385421 -0.07725,-0.01403 -0.330052,-0.06202 -0.56179,-0.106656 z"
     id="path841"
     inkscape:connector-curvature="0" />
  <path
     style="fill:#8dd35f;fill-opacity:1;stroke:none;stroke-width:0;stroke-miterlimit:4;stroke-dasharray:none"
     d="m 19.954515,45.068919 c 3.57195,-2.916107 4.941069,-4.152454 8.053799,-7.272768 2.00921,-2.014106 4.537267,-4.736153 5.617904,-6.048993 2.190487,-2.661172 2.005541,-2.568601 4.211956,-2.108213 2.157447,0.450171 4.566292,1.763048 6.143065,3.348114 0.74111,0.74501 1.538721,1.701485 1.772467,2.125502 l 0.424995,0.77094 -1.059797,0.396521 c -0.582888,0.218087 -1.427217,0.446882 -1.876286,0.508434 -0.449069,0.06155 -0.81649,0.133846 -0.81649,0.160654 0,0.02681 0.296598,0.67329 0.659104,1.436627 0.452249,0.952306 0.695429,1.776878 0.774846,2.627336 l 0.115742,1.239451 -0.634398,0.0606 c -0.493207,0.04712 -0.892159,-0.112511 -1.792557,-0.717232 -2.150702,-1.444441 -4.461241,-2.048102 -7.226507,-1.888027 -3.491305,0.202105 -6.454665,1.741746 -8.696966,4.518591 -0.519142,0.6429 -0.739835,0.758374 -1.865803,0.97625 -0.70236,0.135907 -1.951166,0.247397 -2.775125,0.247756 l -1.498108,6.56e-4 z"
     id="path843"
     inkscape:connector-curvature="0" />
  <path
     style="fill:#8dd35f;fill-opacity:1;stroke:none;stroke-width:0;stroke-miterlimit:4;stroke-dasharray:none"
     d="m 18.460852,43.07597 c 0.0073,-0.535285 0.810211,-2.330562 1.47362,-3.294795 0.339864,-0.493975 0.588744,-0.917789 0.553068,-0.941808 -0.03568,-0.02402 -0.41437,-0.195538 -0.84154,-0.381152 l -0.776674,-0.337479 1.116115,-1.965963 c 0.613862,-1.081279 1.089768,-1.987915 1.057568,-2.014747 -0.0322,-0.02683 -0.248521,-0.147632 -0.480713,-0.268445 -0.408837,-0.212723 -0.379273,-0.257952 0.936317,-1.432419 0.747167,-0.667018 2.13418,-1.780413 3.082252,-2.474211 0.948072,-0.693798 1.722454,-1.303584 1.720848,-1.355082 -0.0016,-0.0515 -0.693032,-0.421765 -1.536503,-0.822818 -1.264653,-0.601314 -1.829135,-1.02839 -3.218956,-2.435398 -0.926954,-0.938417 -2.002812,-2.25352 -2.390794,-2.922452 l -0.705424,-1.216238 1.079951,-0.355372 c 1.534184,-0.504843 3.89464,-0.498391 5.527512,0.01511 l 1.264084,0.397524 0.298478,-1.05858 c 0.164162,-0.582218 0.423237,-1.502072 0.575722,-2.044119 0.30823,-1.095684 0.274451,-1.095667 1.600193,-7.96e-4 2.464641,2.035437 4.649162,5.987664 4.944202,8.945032 l 0.102752,1.029949 -2.028542,2.354983 c -3.110193,3.610697 -5.914692,6.543756 -8.489131,8.878276 -2.139419,1.94004 -4.62749,4.028713 -4.799087,4.028713 -0.03837,0 -0.06776,-0.14747 -0.06532,-0.327712 z"
     id="path845"
     inkscape:connector-curvature="0" />
</svg>
