<?xml version="1.0" encoding="iso-8859-1"?>
<!-- Generator: Adobe Illustrator 19.0.0, SVG Export Plug-In . SVG Version: 6.00 Build 0)  -->
<svg version="1.1" id="Capa_1" xmlns="http://www.w3.org/2000/svg" xmlns:xlink="http://www.w3.org/1999/xlink" x="0px" y="0px"
	 viewBox="0 0 503.448 503.448" style="enable-background:new 0 0 503.448 503.448;" xml:space="preserve">
<g transform="translate(-5)">
	<path style="fill:#639085;" d="M28.367,320.099l-10.55,31.652c-0.808,3.132,0.18,6.455,2.568,8.637l3.898,3.898
		c2.182,2.388,5.504,3.376,8.637,2.568l31.652-10.55L28.367,320.099z"/>
	
		<ellipse transform="matrix(-0.7071 -0.7071 0.7071 -0.7071 72.3038 514.0864)" style="fill:#81CB97;" cx="142.623" cy="242.069" rx="110.934" ry="141.125"/>
	<path style="fill:#91D4C5;" d="M184.864,284.403c-50.261,50.176-107.605,76.032-134.997,62.549c-2.626-1.27-5.02-2.972-7.083-5.035
		c-2.063-2.043-3.74-4.443-4.949-7.083c-13.568-27.392,12.288-84.736,62.549-134.912c50.261-50.261,107.605-76.117,134.912-62.549
		h0.085c2.614,1.211,4.985,2.888,6.997,4.949c2.063,2.063,3.764,4.457,5.035,7.083C260.981,176.798,235.125,234.142,184.864,284.403
		z"/>
	<path style="fill:#6D5A61;" d="M242.404,150.854c-3.281,0-6.271-1.881-7.692-4.838c-1.421-2.957-1.021-6.467,1.03-9.029
		c10.018-12.949,16.065-28.525,17.408-44.842c0.108-7.401-1.997-14.666-6.046-20.862c-2.562-3.951-1.439-9.23,2.509-11.796
		c3.948-2.566,9.229-1.449,11.799,2.496c5.836,8.97,8.899,19.461,8.805,30.162c-1.319,20.214-8.695,39.563-21.167,55.525
		C247.434,149.686,244.988,150.858,242.404,150.854z"/>
	<path style="fill:#81CB97;" d="M247.413,149.406L49.867,346.952c-2.626-1.27-5.02-2.972-7.083-5.035
		c-2.063-2.043-3.74-4.443-4.949-7.083l197.461-197.461h0.085c2.614,1.211,4.985,2.888,6.997,4.949
		C244.441,144.385,246.143,146.78,247.413,149.406z"/>
	<path style="fill:#6D5A61;" d="M397.542,200.52c-2.908,0.005-5.617-1.473-7.188-3.921l-5.838-9.083
		C340.33,119.084,270.221,71.557,190.292,55.849L11.904,21.162c-4.625-0.9-7.646-5.379-6.746-10.004
		c0.9-4.625,5.379-7.646,10.004-6.746L193.55,39.099c84.498,16.604,158.614,66.848,205.325,139.191l5.838,9.083
		c1.686,2.625,1.806,5.96,0.312,8.699C403.531,198.812,400.662,200.517,397.542,200.52z"/>
	<path style="fill:#639085;" d="M371.898,465.054l14.921,29.841c1.644,2.786,4.692,4.437,7.923,4.291h5.512
		c3.232,0.146,6.279-1.505,7.923-4.291l14.921-29.841H371.898z"/>
	<ellipse style="fill:#81CB97;" cx="397.515" cy="331.336" rx="110.933" ry="141.124"/>
	<path style="fill:#91D4C5;" d="M457.248,331.336c0,71.083-22.272,129.963-51.2,139.691c-5.525,1.934-11.542,1.934-17.067,0
		c-28.928-9.813-51.2-68.608-51.2-139.691c0-71.168,22.272-129.963,51.2-139.691c5.525-1.934,11.542-1.934,17.067,0
		C434.976,201.374,457.248,260.168,457.248,331.336z"/>
	<path style="fill:#81CB97;" d="M406.048,191.646v279.381c-5.525,1.934-11.542,1.934-17.067,0V191.646
		C394.506,189.712,400.523,189.712,406.048,191.646z"/>
</g>
<g>
</g>
<g>
</g>
<g>
</g>
<g>
</g>
<g>
</g>
<g>
</g>
<g>
</g>
<g>
</g>
<g>
</g>
<g>
</g>
<g>
</g>
<g>
</g>
<g>
</g>
<g>
</g>
<g>
</g>
</svg>
