<?xml version="1.0" encoding="iso-8859-1"?>
<!-- Generator: Adobe Illustrator 19.0.0, SVG Export Plug-In . SVG Version: 6.00 Build 0)  -->
<svg xmlns="http://www.w3.org/2000/svg" xmlns:xlink="http://www.w3.org/1999/xlink" version="1.1" id="Layer_1" x="0px" y="0px" viewBox="0 0 513.296 513.296" style="enable-background:new 0 0 513.296 513.296;" xml:space="preserve" width="512" height="512">
<g>
	<g>
		<path style="fill:#70D65B;" d="M390.447,161.034l-26.42-33.58l-26.91-34.21c19.63-19.63-2.41-77.66,34.73-77.66    c37.14,0,17.59,53.58,17.59,53.58s41.5-88.32,76.24-53.58c29.39,29.39-43.8,70.95-45.89,72.13c2.04-0.63,67.9-20.62,77.16,21.86    C505.697,149.653,419.787,113.133,390.447,161.034z"/>
		<path style="fill:#58B741;" d="M465.676,15.583c-9.86-9.86-79.93,69.82-97.63,106.17c-1.13,2.32-2.48,4.2-4.02,5.7l-26.91-34.21    c19.63-19.63-2.41-77.66,34.73-77.66c37.14,0,17.59,53.58,17.59,53.58S430.936-19.156,465.676,15.583z"/>
		<path style="fill:#E6E6E6;" d="M75.987,501.563c-26.01,7.03-42.35,5.06-51.36-3.37c-0.01-0.01-0.01-0.01-0.02-0.02    c-38.5-36.09,57.2-190.24,104.83-262.64c55.41-84.2,157.7-218.67,238.61-113.78l0.01,0.01c4.92,6.38,9.77,13.66,14.52,21.88    C465.396,286.994,113.017,491.554,75.987,501.563z"/>
		<path style="fill:#CCCCCC;" d="M368.047,121.753c-64.7-64.7-374.58,344.98-343.44,376.42c-38.5-36.09,57.2-190.24,104.83-262.64    C184.846,151.333,287.136,16.863,368.047,121.753z"/>
	</g>
	<g>
		<path d="M235.616,394.212C162.241,450.7,88.138,490.507,74.024,494.323c-24.131,6.525-39.724,5.196-46.342-3.95    c-6.35-8.774-11.42-34.875,25.966-111.107c19.024-38.792,46.633-85.762,82.059-139.606    c33.224-50.496,62.777-87.009,90.352-111.625c3.09-2.758,3.358-7.5,0.6-10.589c-2.759-3.09-7.499-3.359-10.59-0.6    c-28.558,25.495-58.943,62.971-92.893,114.57c-11.125,16.91-21.49,33.156-31.074,48.702l-28.81,6.53    c-4.039,0.916-6.572,4.933-5.656,8.972c0.789,3.482,3.882,5.844,7.308,5.844c0.549,0,1.106-0.061,1.665-0.187l14.658-3.322    c-16.378,27.372-30.126,52.36-41.086,74.707C8.596,437.063,0.533,478.443,15.531,499.166c6.812,9.413,17.856,14.13,32.988,14.129    c8.521,0,18.338-1.497,29.421-4.493c7.089-1.917,22.108-9.141,40.716-19.447l-1.332,4.985c-1.069,4.001,1.308,8.113,5.31,9.182    c0.648,0.173,1.3,0.256,1.941,0.256c3.313,0,6.345-2.212,7.241-5.565l5.167-19.334c1.151-0.677,2.307-1.359,3.472-2.051    c17.982-10.684,42.988-26.338,71.034-46.18l-1.509,11.908c-0.521,4.109,2.388,7.862,6.497,8.383    c0.32,0.041,0.639,0.061,0.953,0.061c3.722,0,6.95-2.769,7.431-6.558l3.272-25.816c5.474-4.036,11.025-8.21,16.633-12.528    c3.282-2.527,3.895-7.236,1.367-10.518C243.609,392.298,238.898,391.685,235.616,394.212z"/>
		<path d="M504.276,107.978c-2.514-11.52-8.712-20.218-18.423-25.852c-10.174-5.902-22.849-7.417-34.524-7.084    c17.202-14.109,26.79-27.533,28.51-39.923c1.272-9.179-1.791-17.768-8.861-24.838C460.618-0.078,450.042-0.782,442.996,0.45    c-15.942,2.788-30.554,18.146-41.434,33.355c-0.753-5.2-2.383-10.191-5.335-14.411c-3.61-5.159-10.771-11.31-24.382-11.31    c-12.945,0-21.982,5.763-26.861,17.129c-3.754,8.747-4.515,19.762-5.25,30.415c-0.715,10.352-1.455,20.978-4.883,27.926    c-5.017-2.433-10.145-4.297-15.385-5.567c-23.341-5.662-48.765,0.199-75.563,17.417c-3.485,2.239-4.495,6.879-2.256,10.364    c2.238,3.485,6.881,4.493,10.363,2.256c23.214-14.915,44.717-20.117,63.921-15.459c21.977,5.331,42.216,23.778,60.155,54.832    c18.053,31.25,14.802,68.539-9.66,110.834c-20.597,35.61-55.596,74.146-104.026,114.537c-3.181,2.653-3.609,7.382-0.956,10.563    c1.483,1.779,3.615,2.696,5.764,2.696c1.693,0,3.397-0.571,4.8-1.74c101.339-84.517,144.581-160.673,126.664-222.059    c13.649-18.814,39.227-20.794,61.921-22.54c17.836-1.371,33.239-2.555,40.61-12.463    C504.934,122.208,505.968,115.733,504.276,107.978z M489.168,118.271c-3.295,4.429-17.336,5.508-29.726,6.461    c-21.004,1.615-48.626,3.753-66.896,21.694c-1.073-2.199-2.226-4.378-3.471-6.533c-12.523-21.678-26.35-37.938-41.323-48.641    c5.208-9.727,6.099-22.316,6.946-34.591c1.769-25.604,4.364-33.577,17.147-33.577c8.648,0,11.234,3.687,12.084,4.899    c6.703,9.559,0.99,31.638-1.537,38.611c-1.374,3.768,0.459,7.949,4.161,9.492c3.7,1.542,7.963-0.101,9.672-3.729    c0.064-0.137,6.559-13.856,16.286-27.899c11.922-17.21,23.668-27.593,33.074-29.233c3.332-0.582,8.494-0.628,14.784,5.663    c3.772,3.772,5.237,7.637,4.611,12.164c-2.552,18.451-36.169,41.005-48.904,48.137c-3.354,1.875-4.746,5.98-3.228,9.51    c1.518,3.529,5.464,5.339,9.129,4.194c0.095-0.029,9.552-2.956,21.468-4.276c14.924-1.653,26.994-0.1,34.9,4.497    c5.987,3.481,9.676,8.736,11.275,16.064C490.347,114.504,490.195,116.89,489.168,118.271z"/>
		<path d="M93.854,379.696l-23.457,7.819c-3.93,1.31-6.053,5.558-4.743,9.487c1.048,3.143,3.974,5.13,7.114,5.13    c0.786,0,1.586-0.125,2.373-0.387l23.457-7.819c3.93-1.31,6.053-5.558,4.743-9.487C102.031,380.51,97.784,378.385,93.854,379.696z    "/>
		<path d="M275.086,329.805c4.143,0,7.5-3.358,7.5-7.5v-28.344c0-4.142-3.357-7.5-7.5-7.5s-7.5,3.358-7.5,7.5v28.344    C267.586,326.447,270.943,329.805,275.086,329.805z"/>
		<path d="M226.824,202.193c0.941,3.294,3.944,5.441,7.208,5.441c0.683,0,1.376-0.094,2.064-0.291l27.366-7.819    c3.982-1.138,6.289-5.289,5.151-9.272c-1.139-3.983-5.292-6.288-9.272-5.151l-27.366,7.819    C227.993,194.059,225.686,198.21,226.824,202.193z"/>
	</g>
</g>















</svg>
