<?xml version="1.0" encoding="iso-8859-1"?>
<!-- Generator: Adobe Illustrator 19.0.0, SVG Export Plug-In . SVG Version: 6.00 Build 0)  -->
<svg version="1.1" id="Capa_1" xmlns="http://www.w3.org/2000/svg" xmlns:xlink="http://www.w3.org/1999/xlink" x="0px" y="0px"
	 viewBox="0 0 512 512" style="enable-background:new 0 0 512 512;" xml:space="preserve">
<linearGradient id="SVGID_1_" gradientUnits="userSpaceOnUse" x1="361.8383" y1="307.7675" x2="581.9783" y2="307.7675" gradientTransform="matrix(1.0039 0 0 -1.0039 0.1922 516.5618)">
	<stop  offset="0" style="stop-color:#8C6239"/>
	<stop  offset="0.517" style="stop-color:#6F4E38"/>
	<stop  offset="1" style="stop-color:#503837"/>
</linearGradient>
<path style="fill:url(#SVGID_1_);" d="M363.915,410.929h-20.556c-81.784,0-148.084-66.3-148.084-148.084V152.331
	c0-81.784,66.3-148.084,148.084-148.084h20.556C445.7,4.247,512,70.546,512,152.331v110.514
	C512,344.63,445.7,410.929,363.915,410.929z"/>
<linearGradient id="SVGID_2_" gradientUnits="userSpaceOnUse" x1="406.4631" y1="255.9166" x2="5.1031" y2="59.9966" gradientTransform="matrix(1.0039 0 0 -1.0039 0.1922 516.5618)">
	<stop  offset="0" style="stop-color:#3E2E28;stop-opacity:0"/>
	<stop  offset="1" style="stop-color:#503837"/>
</linearGradient>
<path style="fill:url(#SVGID_2_);" d="M195.275,217.219v45.625c0,81.784,66.3,148.084,148.084,148.084h20.556
	c81.784,0,148.084-66.3,148.084-148.084v-45.625H195.275z"/>
<linearGradient id="SVGID_3_" gradientUnits="userSpaceOnUse" x1="401.1685" y1="108.2037" x2="271.9586" y2="237.4137" gradientTransform="matrix(1.0039 0 0 -1.0039 0.1922 516.5618)">
	<stop  offset="0" style="stop-color:#3E2E28;stop-opacity:0"/>
	<stop  offset="1" style="stop-color:#503837"/>
</linearGradient>
<path style="fill:url(#SVGID_3_);" d="M324.602,205.761c-32.209-33.751-78.024-54.86-129.281-57.103
	c-0.03,1.221-0.046,2.445-0.046,3.672v110.514c0,81.784,66.3,148.084,148.084,148.084h20.556c45.416,0,86.049-20.452,113.213-52.641
	L324.602,205.761z"/>
<linearGradient id="SVGID_4_" gradientUnits="userSpaceOnUse" x1="177.604" y1="196.0491" x2="402.764" y2="-30.3809" gradientTransform="matrix(1.0039 0 0 -1.0039 0.1922 516.5618)">
	<stop  offset="0" style="stop-color:#8C6239"/>
	<stop  offset="0.517" style="stop-color:#6F4E38"/>
	<stop  offset="1" style="stop-color:#503837"/>
</linearGradient>
<path style="fill:url(#SVGID_4_);" d="M372.615,327.667c-0.286,102.895-83.915,180.372-186.81,180.085S-0.285,429.526,0.001,326.631
	s83.91-178.471,186.804-178.185C289.698,148.732,372.901,224.774,372.615,327.667z"/>
<radialGradient id="SVGID_5_" cx="181.5269" cy="192.1014" r="203.5691" gradientTransform="matrix(1.0039 0.0028 0.0028 -1.0039 3.5258 520.4442)" gradientUnits="userSpaceOnUse">
	<stop  offset="0" style="stop-color:#9EB644"/>
	<stop  offset="0.468" style="stop-color:#9CB443"/>
	<stop  offset="0.637" style="stop-color:#95AE3D"/>
	<stop  offset="0.757" style="stop-color:#8AA235"/>
	<stop  offset="0.854" style="stop-color:#799228"/>
	<stop  offset="0.936" style="stop-color:#637C17"/>
	<stop  offset="1" style="stop-color:#4C6606"/>
</radialGradient>
<path style="fill:url(#SVGID_5_);" d="M355.504,327.708c-0.26,93.445-76.209,163.807-169.654,163.547
	c-93.445-0.26-169-71.043-168.741-164.489c0.26-93.445,76.204-162.081,169.649-161.821
	C280.203,165.206,355.764,234.263,355.504,327.708z"/>
<radialGradient id="SVGID_6_" cx="181.5272" cy="192.1009" r="179.1611" gradientTransform="matrix(1.0039 0.0028 0.0028 -1.0039 3.5258 520.4442)" gradientUnits="userSpaceOnUse">
	<stop  offset="0" style="stop-color:#FFE7A5"/>
	<stop  offset="0.259" style="stop-color:#FCE5A2;stop-opacity:0.741"/>
	<stop  offset="0.452" style="stop-color:#F3E199;stop-opacity:0.548"/>
	<stop  offset="0.622" style="stop-color:#E2D988;stop-opacity:0.378"/>
	<stop  offset="0.78" style="stop-color:#CCCD72;stop-opacity:0.22"/>
	<stop  offset="0.928" style="stop-color:#AFBF55;stop-opacity:0.071"/>
	<stop  offset="1" style="stop-color:#9EB644;stop-opacity:0"/>
</radialGradient>
<path style="fill:url(#SVGID_6_);" d="M369.411,327.675c-0.281,101.125-82.472,177.27-183.597,176.989
	C84.689,504.383,2.923,427.782,3.204,326.656S85.67,151.254,186.796,151.535S369.692,226.549,369.411,327.675z"/>
<radialGradient id="SVGID_7_" cx="185.2316" cy="187.5687" r="160.8479" gradientTransform="matrix(1.0039 0 0 -1.0039 0.1922 516.5618)" gradientUnits="userSpaceOnUse">
	<stop  offset="0" style="stop-color:#FFE7A5"/>
	<stop  offset="0.281" style="stop-color:#FCE6A2;stop-opacity:0.719"/>
	<stop  offset="0.47" style="stop-color:#F3E199;stop-opacity:0.53"/>
	<stop  offset="0.633" style="stop-color:#E4D98A;stop-opacity:0.367"/>
	<stop  offset="0.78" style="stop-color:#CFCF75;stop-opacity:0.22"/>
	<stop  offset="0.916" style="stop-color:#B3C159;stop-opacity:0.084"/>
	<stop  offset="1" style="stop-color:#9EB644;stop-opacity:0"/>
</radialGradient>
<path style="fill:url(#SVGID_7_);" d="M296.074,351.008c15.407,2.43,30.823,4.803,46.257,7.081c3.23,0.477,4.074-4.311,0.876-4.968
	c-15.282-3.138-30.58-6.18-45.888-9.167c-18.313-3.66-36.682-6.994-55.025-10.482l-5.877-1.064l5.972-0.027
	c18.67-0.25,37.34-0.344,56.01-0.769c15.594-0.283,31.189-0.621,46.783-1.059c3.264-0.091,3.264-4.953,0-5.045
	c-15.594-0.438-31.189-0.776-46.783-1.059c-18.67-0.425-37.34-0.519-56.01-0.769h-0.098c-2.96-0.013-3.479-4.234-0.61-4.963
	l0.095-0.024c18.055-4.762,36.145-9.374,54.158-14.305c15.062-4.05,30.11-8.154,45.134-12.353c3.144-0.879,1.968-5.596-1.222-4.895
	c-15.237,3.351-30.448,6.798-45.647,10.298c-18.217,4.108-36.354,8.536-54.529,12.814l-5.802,1.42l5.444-2.455
	c16.953-7.825,33.969-15.508,50.851-23.492c14.13-6.604,28.237-13.258,42.304-20.003c2.945-1.411,0.966-5.853-2.053-4.608
	c-14.423,5.945-28.807,11.981-43.167,18.068c-17.227,7.209-34.32,14.719-51.476,22.087l-7.156,3.148
	c-0.277,0.121-0.493-0.26-0.246-0.435l6.384-4.514c15.15-10.914,30.389-21.7,45.44-32.756c12.611-9.177,25.191-18.399,37.714-27.701
	c2.621-1.947-0.168-5.929-2.893-4.132c-13.025,8.587-25.994,17.253-38.929,25.966c-15.537,10.362-30.885,20.992-46.321,31.497
	l-4.908,3.403l4.203-4.243c13.025-13.378,26.159-26.646,39.061-40.148c10.826-11.227,21.614-22.494,32.331-33.83
	c2.243-2.372-1.195-5.811-3.567-3.567c-11.336,10.718-22.602,21.505-33.83,32.331c-13.502,12.901-26.77,26.036-40.148,39.062
	l-0.07,0.07c-2.102,2.083-5.453-0.534-3.941-3.079l0.051-0.085c9.399-16.133,18.931-32.187,28.18-48.41
	c7.786-13.514,15.526-27.057,23.18-40.65c1.602-2.845-2.566-5.348-4.325-2.597c-8.404,13.143-16.723,26.337-24.996,39.559
	c-9.977,15.787-19.671,31.743-29.497,47.619l-3.099,5.106l2.114-5.586c6.454-17.52,13.055-34.985,19.346-52.568
	c5.322-14.66,10.591-29.342,15.77-44.057c1.083-3.08-3.456-4.822-4.71-1.807c-5.994,14.402-11.896,28.841-17.747,43.299
	c-7.084,17.278-13.86,34.675-20.781,52.017l-2.834,7.286c-0.109,0.282-0.532,0.165-0.481-0.134l1.322-7.705
	c2.996-18.43,6.145-36.832,8.968-55.292c2.428-15.406,4.803-30.821,7.08-46.255c0.477-3.23-4.311-4.074-4.968-0.876
	c-3.138,15.281-6.18,30.579-9.166,45.887c-3.659,18.313-6.994,36.682-10.482,55.025l-1.064,5.877l-0.027-5.972
	c-0.25-18.67-0.344-37.34-0.769-56.01c-0.283-15.595-0.621-31.19-1.059-46.785c-0.091-3.264-4.953-3.264-5.045,0
	c-0.438,15.595-0.776,31.19-1.059,46.785c-0.425,18.67-0.519,37.34-0.769,56.01v0.049c-0.013,2.96-4.235,3.479-4.963,0.609
	l-0.012-0.048l-7.096-27.093l-3.557-13.544l-3.651-13.521c-4.088-15.209-8.233-30.405-12.477-45.575
	c-0.879-3.143-5.596-1.967-4.895,1.222c3.38,15.386,6.86,30.747,10.396,46.094l3.128,13.651l3.224,13.627l6.463,27.25l1.392,5.684
	l-2.404-5.335l-11.693-25.449l-5.854-12.721l-5.943-12.682c-6.667-14.268-13.387-28.512-20.201-42.716
	c-1.412-2.944-5.852-0.966-4.609,2.053c6,14.565,12.094,29.089,18.241,43.588l5.451,12.9l5.541,12.861l11.097,25.714l3.107,7.058
	c0.121,0.277-0.26,0.493-0.435,0.246l-4.45-6.298l-16.33-22.753l-8.172-11.371l-8.252-11.315
	c-9.265-12.735-18.578-25.436-27.974-38.08c-1.948-2.62-5.929,0.168-4.133,2.894c8.667,13.153,17.418,26.249,26.216,39.311
	l7.811,11.624l7.891,11.568l15.796,23.126l3.335,4.807l-4.155-4.119l-20.033-19.571l-10.023-9.779l-10.091-9.711
	c-11.335-10.933-22.713-21.825-34.161-32.645c-2.372-2.242-5.81,1.195-3.568,3.568c10.819,11.449,21.712,22.826,32.645,34.161
	l9.71,10.091l9.78,10.022l19.571,20.032l0,0c2.084,2.102-0.534,5.454-3.079,3.941l0,0l-24.175-14.14l-12.092-7.063l-12.142-6.978
	c-13.645-7.864-27.321-15.677-41.048-23.403c-2.845-1.601-5.348,2.566-2.598,4.325c13.269,8.489,26.591,16.891,39.943,25.243
	l11.864,7.441l11.916,7.357l23.839,14.698l5.004,3.035l-5.472-2.072l-26.263-9.728l-13.134-4.855l-13.169-4.764
	c-14.803-5.375-29.628-10.695-44.488-15.92c-3.08-1.083-4.821,3.455-1.807,4.71c14.542,6.057,29.121,12.017,43.72,17.923
	l12.977,5.268l13.012,5.176l26.03,10.335l7.188,2.794c0.282,0.109,0.165,0.532-0.134,0.481l-7.601-1.306l-27.636-4.542
	l-13.819-2.262l-13.836-2.165c-15.557-2.454-31.124-4.85-46.708-7.146c-3.23-0.476-4.074,4.311-0.876,4.968
	c15.43,3.172,30.878,6.244,46.335,9.259l13.743,2.697l13.76,2.6l27.523,5.183l5.757,1.041l-5.851,0.025l-28.004,0.326l-14.003,0.172
	l-14.003,0.27c-15.747,0.285-31.493,0.627-47.239,1.073c-3.263,0.092-3.263,4.953,0,5.046c15.747,0.445,31.493,0.788,47.239,1.073
	l14.003,0.27l14.003,0.172l28.004,0.326l0,0c2.961,0.013,3.479,4.235,0.61,4.963l0,0l-27.093,7.096l-13.544,3.557l-13.521,3.651
	c-15.209,4.088-30.405,8.233-45.575,12.477c-3.143,0.879-1.967,5.596,1.222,4.895c15.386-3.38,30.747-6.86,46.094-10.396
	l13.651-3.128l13.627-3.224l27.25-6.463l5.683-1.392l-5.335,2.404l-25.449,11.693l-12.721,5.854l-12.682,5.944
	c-14.268,6.667-28.512,13.387-42.715,20.201c-2.943,1.412-0.966,5.852,2.053,4.609c14.565-6,29.089-12.094,43.588-18.241l12.9-5.451
	l12.861-5.541l25.714-11.097l7.058-3.107c0.277-0.121,0.493,0.26,0.246,0.435l-6.298,4.45l-22.753,16.33l-11.371,8.172
	l-11.315,8.252c-12.736,9.265-25.437,18.578-38.081,27.974c-2.62,1.948,0.168,5.929,2.894,4.133
	c13.154-8.667,26.25-17.418,39.312-26.217l11.624-7.811l11.568-7.891l23.127-15.796l4.808-3.335l-4.119,4.155l-19.571,20.032
	l-9.78,10.022l-9.71,10.091c-10.933,11.335-21.825,22.713-32.645,34.161c-2.242,2.372,1.195,5.81,3.568,3.568
	c11.449-10.819,22.826-21.711,34.161-32.645l10.091-9.711l10.023-9.779l20.033-19.571l0,0c2.102-2.084,5.454,0.534,3.941,3.079l0,0
	l-14.14,24.175l-7.063,12.092l-6.978,12.142c-7.864,13.645-15.677,27.321-23.403,41.048c-1.601,2.845,2.566,5.348,4.325,2.598
	c8.489-13.27,16.891-26.592,25.243-39.944l7.441-11.864l7.357-11.916l14.698-23.839l3.035-5.004l-2.072,5.472l-9.727,26.263
	l-4.856,13.134l-4.764,13.169c-5.375,14.803-10.695,29.628-15.92,44.488c-1.083,3.08,3.455,4.821,4.71,1.807
	c6.056-14.542,12.017-29.12,17.923-43.72l5.268-12.977l5.176-13.012l10.336-26.03l2.793-7.188c0.109-0.282,0.532-0.165,0.481,0.134
	l-1.306,7.6l-4.542,27.636l-2.262,13.82l-2.165,13.836c-2.454,15.557-4.85,31.124-7.146,46.707c-0.476,3.23,4.311,4.074,4.968,0.876
	c3.172-15.43,6.244-30.878,9.259-46.335l2.697-13.743l2.6-13.76l5.183-27.523l1.041-5.758l0.025,5.852l0.326,28.004l0.172,14.003
	l0.27,14.003c0.285,15.747,0.627,31.492,1.072,47.239c0.092,3.263,4.953,3.263,5.046,0c0.445-15.747,0.788-31.492,1.072-47.239
	l0.27-14.003l0.172-14.003l0.326-28.004v-0.05c0.013-2.96,4.234-3.48,4.963-0.61l0.012,0.048
	c4.763,18.054,9.374,36.145,14.305,54.158c4.05,15.062,8.154,30.111,12.353,45.135c0.879,3.144,5.596,1.968,4.895-1.222
	c-3.351-15.237-6.798-30.449-10.298-45.647c-4.108-18.217-8.536-36.355-12.814-54.529l-1.42-5.802l2.455,5.445
	c7.825,16.953,15.508,33.969,23.492,50.851c6.604,14.13,13.259,28.238,20.003,42.305c1.412,2.945,5.853,0.966,4.608-2.053
	c-5.945-14.423-11.982-28.807-18.069-43.168c-7.209-17.227-14.718-34.32-22.087-51.476l-3.148-7.156
	c-0.121-0.277,0.26-0.493,0.435-0.246l4.514,6.384c10.914,15.15,21.7,30.39,32.756,45.439c9.176,12.611,18.398,25.19,27.701,37.713
	c1.947,2.621,5.929-0.168,4.132-2.893c-8.587-13.025-17.253-25.993-25.965-38.929c-10.361-15.537-20.993-30.885-31.497-46.321
	l-3.403-4.908l4.243,4.204c13.378,13.025,26.646,26.16,40.148,39.062c11.227,10.827,22.494,21.614,33.83,32.332
	c2.372,2.243,5.811-1.195,3.567-3.567c-10.718-11.336-21.505-22.603-32.332-33.83c-12.901-13.502-26.037-26.77-39.061-40.148
	l-0.069-0.07c-2.083-2.102,0.534-5.453,3.078-3.941l0.084,0.05c16.133,9.399,32.187,18.931,48.41,28.18
	c13.514,7.786,27.057,15.526,40.65,23.18c2.845,1.602,5.348-2.566,2.597-4.325c-13.143-8.404-26.337-16.724-39.56-24.996
	c-15.786-9.977-31.742-19.671-47.619-29.497l-5.106-3.098l5.587,2.114c17.52,6.454,34.985,13.054,52.568,19.346
	c14.661,5.322,29.342,10.591,44.058,15.77c3.08,1.083,4.822-3.455,1.807-4.71c-14.403-5.994-28.841-11.897-43.299-17.747
	c-17.278-7.084-34.675-13.86-52.017-20.781l-7.286-2.834c-0.282-0.109-0.165-0.532,0.134-0.481l7.706,1.323
	C259.212,345.034,277.614,348.184,296.074,351.008z"/>
<g>
	
		<linearGradient id="SVGID_8_" gradientUnits="userSpaceOnUse" x1="181.7433" y1="248.8935" x2="189.0233" y2="248.8935" gradientTransform="matrix(1.0039 0 0 -1.0039 0.1922 516.5618)">
		<stop  offset="0" style="stop-color:#654E48"/>
		<stop  offset="1" style="stop-color:#503837"/>
	</linearGradient>
	<ellipse style="fill:url(#SVGID_8_);" cx="186.308" cy="266.692" rx="3.659" ry="7.983"/>
	
		<linearGradient id="SVGID_9_" gradientUnits="userSpaceOnUse" x1="181.7433" y1="126.5535" x2="189.0233" y2="126.5535" gradientTransform="matrix(1.0039 0 0 -1.0039 0.1922 516.5618)">
		<stop  offset="0" style="stop-color:#654E48"/>
		<stop  offset="1" style="stop-color:#503837"/>
	</linearGradient>
	<ellipse style="fill:url(#SVGID_9_);" cx="186.308" cy="389.512" rx="3.659" ry="7.983"/>
</g>
<g>
	
		<linearGradient id="SVGID_10_" gradientUnits="userSpaceOnUse" x1="181.9982" y1="185.1367" x2="0.0582" y2="177.8467" gradientTransform="matrix(1.0039 0 0 -1.0039 0.1922 516.5618)">
		<stop  offset="0" style="stop-color:#654E48"/>
		<stop  offset="1" style="stop-color:#503837"/>
	</linearGradient>
	<ellipse style="fill:url(#SVGID_10_);" cx="247.717" cy="328.102" rx="7.983" ry="3.659"/>
	
		<linearGradient id="SVGID_11_" gradientUnits="userSpaceOnUse" x1="181.8021" y1="190.0307" x2="-0.1379" y2="182.7408" gradientTransform="matrix(1.0039 0 0 -1.0039 0.1922 516.5618)">
		<stop  offset="0" style="stop-color:#654E48"/>
		<stop  offset="1" style="stop-color:#503837"/>
	</linearGradient>
	<ellipse style="fill:url(#SVGID_11_);" cx="124.898" cy="328.102" rx="7.983" ry="3.659"/>
</g>
<linearGradient id="SVGID_12_" gradientUnits="userSpaceOnUse" x1="226.0738" y1="233.549" x2="231.2278" y2="228.395" gradientTransform="matrix(1.0039 0 0 -1.0039 0.1922 516.5618)">
	<stop  offset="0" style="stop-color:#654E48"/>
	<stop  offset="1" style="stop-color:#503837"/>
</linearGradient>
<path style="fill:url(#SVGID_12_);" d="M232.319,287.264c-3.118,3.118-6.804,4.487-8.232,3.058c-1.429-1.429-0.06-5.115,3.058-8.232
	c3.118-3.118,6.804-4.487,8.232-3.058S235.436,284.145,232.319,287.264z"/>
<linearGradient id="SVGID_13_" gradientUnits="userSpaceOnUse" x1="139.5573" y1="147.0485" x2="144.7173" y2="141.8885" gradientTransform="matrix(1.0039 0 0 -1.0039 0.1922 516.5618)">
	<stop  offset="0" style="stop-color:#654E48"/>
	<stop  offset="1" style="stop-color:#503837"/>
</linearGradient>
<path style="fill:url(#SVGID_13_);" d="M145.471,374.111c-3.118,3.118-6.804,4.487-8.232,3.058s-0.06-5.115,3.058-8.232
	c3.118-3.118,6.804-4.487,8.232-3.058C149.959,367.307,148.589,370.994,145.471,374.111z"/>
<g>
	
		<linearGradient id="SVGID_14_" gradientUnits="userSpaceOnUse" x1="231.2218" y1="147.046" x2="226.0628" y2="141.897" gradientTransform="matrix(1.0039 0 0 -1.0039 0.1922 516.5618)">
		<stop  offset="0" style="stop-color:#654E48"/>
		<stop  offset="1" style="stop-color:#503837"/>
	</linearGradient>
	<path style="fill:url(#SVGID_14_);" d="M227.144,374.111c-3.118-3.118-4.487-6.804-3.058-8.232c1.429-1.429,5.115-0.06,8.232,3.058
		s4.487,6.804,3.058,8.232C233.948,378.597,230.262,377.229,227.144,374.111z"/>
	
		<linearGradient id="SVGID_15_" gradientUnits="userSpaceOnUse" x1="144.7945" y1="233.6345" x2="139.6355" y2="228.4855" gradientTransform="matrix(1.0039 0 0 -1.0039 0.1922 516.5618)">
		<stop  offset="0" style="stop-color:#654E48"/>
		<stop  offset="1" style="stop-color:#503837"/>
	</linearGradient>
	<path style="fill:url(#SVGID_15_);" d="M140.297,287.264c-3.118-3.118-4.487-6.804-3.058-8.232s5.115-0.06,8.232,3.058
		c3.118,3.118,4.487,6.804,3.058,8.232C147.1,291.75,143.414,290.382,140.297,287.264z"/>
</g>
<linearGradient id="SVGID_16_" gradientUnits="userSpaceOnUse" x1="206.779" y1="245.1464" x2="213.4487" y2="242.2065" gradientTransform="matrix(1.0039 0 0 -1.0039 0.1922 516.5618)">
	<stop  offset="0" style="stop-color:#654E48"/>
	<stop  offset="1" style="stop-color:#503837"/>
</linearGradient>
<path style="fill:url(#SVGID_16_);" d="M214.477,273.409c-1.782,4.033-4.725,6.64-6.574,5.824c-1.848-0.816-1.902-4.749-0.119-8.781
	c1.783-4.033,4.725-6.64,6.574-5.824C216.205,265.444,216.259,269.376,214.477,273.409z"/>
<linearGradient id="SVGID_17_" gradientUnits="userSpaceOnUse" x1="157.3308" y1="133.2486" x2="163.9968" y2="130.3003" gradientTransform="matrix(1.0039 0 0 -1.0039 0.1922 516.5618)">
	<stop  offset="0" style="stop-color:#654E48"/>
	<stop  offset="1" style="stop-color:#503837"/>
</linearGradient>
<path style="fill:url(#SVGID_17_);" d="M164.833,385.749c-1.782,4.033-4.725,6.64-6.574,5.824c-1.848-0.817-1.902-4.749-0.119-8.781
	c1.783-4.033,4.725-6.64,6.574-5.824C166.561,377.785,166.615,381.717,164.833,385.749z"/>
<g>
	
		<linearGradient id="SVGID_18_" gradientUnits="userSpaceOnUse" x1="242.8111" y1="166.334" x2="239.8711" y2="159.674" gradientTransform="matrix(1.0039 0 0 -1.0039 0.1922 516.5618)">
		<stop  offset="0" style="stop-color:#654E48"/>
		<stop  offset="1" style="stop-color:#503837"/>
	</linearGradient>
	<path style="fill:url(#SVGID_18_);" d="M240.999,356.269c-4.033-1.782-6.64-4.725-5.824-6.574c0.817-1.848,4.749-1.902,8.781-0.119
		c4.033,1.783,6.64,4.725,5.824,6.574C248.963,357.998,245.032,358.051,240.999,356.269z"/>
	
		<linearGradient id="SVGID_19_" gradientUnits="userSpaceOnUse" x1="130.8889" y1="215.7382" x2="127.9489" y2="209.0782" gradientTransform="matrix(1.0039 0 0 -1.0039 0.1922 516.5618)">
		<stop  offset="0" style="stop-color:#654E48"/>
		<stop  offset="1" style="stop-color:#503837"/>
	</linearGradient>
	<path style="fill:url(#SVGID_19_);" d="M128.658,306.625c-4.033-1.782-6.64-4.725-5.824-6.574c0.816-1.848,4.749-1.902,8.781-0.119
		c4.033,1.782,6.64,4.725,5.824,6.574C136.622,308.353,132.691,308.407,128.658,306.625z"/>
</g>
<linearGradient id="SVGID_20_" gradientUnits="userSpaceOnUse" x1="241.1199" y1="213.2057" x2="243.7497" y2="206.4062" gradientTransform="matrix(1.0039 0 0 -1.0039 0.1922 516.5618)">
	<stop  offset="0" style="stop-color:#654E48"/>
	<stop  offset="1" style="stop-color:#503837"/>
</linearGradient>
<path style="fill:url(#SVGID_20_);" d="M244.898,309.346c-4.112,1.591-8.036,1.354-8.766-0.531c-0.73-1.884,2.013-4.702,6.125-6.295
	c4.112-1.591,8.036-1.354,8.766,0.531C251.753,304.937,249.01,307.755,244.898,309.346z"/>
<linearGradient id="SVGID_21_" gradientUnits="userSpaceOnUse" x1="127.0309" y1="169.0354" x2="129.6607" y2="162.2359" gradientTransform="matrix(1.0039 0 0 -1.0039 0.1922 516.5618)">
	<stop  offset="0" style="stop-color:#654E48"/>
	<stop  offset="1" style="stop-color:#503837"/>
</linearGradient>
<path style="fill:url(#SVGID_21_);" d="M130.358,353.679c-4.112,1.591-8.036,1.354-8.766-0.531c-0.73-1.884,2.013-4.702,6.125-6.295
	c4.112-1.591,8.036-1.354,8.766,0.531C137.212,349.27,134.47,352.088,130.358,353.679z"/>
<g>
	
		<linearGradient id="SVGID_22_" gradientUnits="userSpaceOnUse" x1="210.7694" y1="131.9574" x2="203.9794" y2="129.3274" gradientTransform="matrix(1.0039 0 0 -1.0039 0.1922 516.5618)">
		<stop  offset="0" style="stop-color:#654E48"/>
		<stop  offset="1" style="stop-color:#503837"/>
	</linearGradient>
	<path style="fill:url(#SVGID_22_);" d="M205.062,386.691c-1.591-4.112-1.354-8.036,0.531-8.766c1.884-0.73,4.702,2.013,6.295,6.125
		c1.591,4.112,1.354,8.036-0.531,8.766C209.471,393.546,206.653,390.803,205.062,386.691z"/>
	
		<linearGradient id="SVGID_23_" gradientUnits="userSpaceOnUse" x1="166.5818" y1="246.0397" x2="159.7918" y2="243.4097" gradientTransform="matrix(1.0039 0 0 -1.0039 0.1922 516.5618)">
		<stop  offset="0" style="stop-color:#654E48"/>
		<stop  offset="1" style="stop-color:#503837"/>
	</linearGradient>
	<path style="fill:url(#SVGID_23_);" d="M160.729,272.151c-1.591-4.112-1.354-8.036,0.531-8.766c1.884-0.73,4.702,2.013,6.295,6.125
		c1.591,4.112,1.354,8.036-0.531,8.766C165.138,279.004,162.32,276.263,160.729,272.151z"/>
</g>
<g>
</g>
<g>
</g>
<g>
</g>
<g>
</g>
<g>
</g>
<g>
</g>
<g>
</g>
<g>
</g>
<g>
</g>
<g>
</g>
<g>
</g>
<g>
</g>
<g>
</g>
<g>
</g>
<g>
</g>
</svg>
