<?xml version="1.0" encoding="iso-8859-1"?>
<!-- Generator: Adobe Illustrator 19.0.0, SVG Export Plug-In . SVG Version: 6.00 Build 0)  -->
<svg version="1.1" id="Capa_1" xmlns="http://www.w3.org/2000/svg" xmlns:xlink="http://www.w3.org/1999/xlink" x="0px" y="0px"
	 viewBox="0 0 512 512" style="enable-background:new 0 0 512 512;" xml:space="preserve">
<path style="fill:#30AA44;" d="M424.999,386.372c-4.09-5.738-10.787-13.352-20.503-19.168c-3.696-2.212-3.769-7.446-0.198-9.659
	c10-6.197,28.514-16.177,51.84-21.973c4.627-1.15,5.684-7.087,1.825-10.012c-4.856-3.68-11.733-8.083-20.613-11.841
	c-4.07-1.722-4.937-7.059-1.551-9.711c8.35-6.54,22.795-16.482,39.077-21.683c4.735-1.513,5.288-7.854,0.883-10.348
	c-6.073-3.437-13.704-7.378-21.16-10.196c-4.336-1.639-5.154-7.341-1.472-9.958c11.44-8.131,29.955-23.105,40.984-41.499
	c2.165-3.61-0.347-8.338-4.651-8.683c-6.19-0.497-15.374-2.13-27.131-6.713c-3.539-1.38-4.949-5.624-2.82-8.631
	c10.714-15.136,35.912-59.383,11.612-114.068c-1.018-2.291-3.415-3.723-5.915-3.533c-59.67,4.532-86.681,47.696-94.928,64.306
	c-1.638,3.3-6.043,4.072-8.936,1.609c-9.61-8.179-15.401-15.49-18.774-20.705c-2.344-3.625-7.698-3.595-9.85,0.022
	c-10.965,18.431-15.372,41.832-17.107,55.76c-0.558,4.483-5.967,6.465-9.465,3.425c-6.016-5.228-13.104-10.079-19.01-13.796
	c-4.283-2.696-9.605,0.798-8.692,5.684c3.14,16.801,1.235,34.234-0.565,44.686c-0.73,4.239-5.839,6.005-9.285,3.238
	c-7.519-6.038-14.656-10.005-20.199-12.536c-4.405-2.011-9.132,1.735-7.95,6.354c5.956,23.285,5.947,44.318,5.232,56.06
	c-0.255,4.193-4.897,6.611-8.598,4.405c-9.727-5.797-19.606-8.084-26.597-8.964c-4.34-0.547-7.605,3.634-5.935,7.648
	c9.507,22.859,11.517,47.818,11.904,59.768c0.115,3.539-3.022,6.245-6.579,5.646c-13.444-2.267-28.074-0.397-37.277,1.359
	c-4.236,0.808-5.935,5.791-3.142,9.137c34.295,41.091,43.479,86.351,45.055,117.59l31.478,18.802
	c28.252-13.423,72.456-26.795,124.895-16.081c4.27,0.872,7.852-2.985,6.555-7.098c-2.817-8.936-8.107-22.704-16.477-33.466
	c-2.214-2.847-1.319-6.892,1.852-8.469c10.705-5.324,33.633-15.389,58.267-17.856C425.404,394.791,427.538,389.934,424.999,386.372z
	"/>
<path style="fill:#269E35;" d="M288.016,387.207c4.113-1.441,5.21-6.589,1.988-9.455c-7.001-6.227-14.482-15.334-27.185-20.282
	c-3.361-1.309-4.666-5.241-2.753-8.22c6.46-10.06,16.862-30.458,36.747-45.208c3.491-2.59,2.833-7.853-1.174-9.61
	c-6.453-2.829-16.108-5.932-27.431-5.942c-4.308-0.004-7.053-4.46-5.123-8.191c5.407-10.448,16.185-28.509,33.238-45.446
	c3.383-3.36,1.246-8.999-3.568-9.531c-6.056-0.67-14.218-0.923-23.769,0.405c-4.377,0.609-7.858-3.528-6.311-7.541
	c0.852-2.21,1.888-4.734,3.094-7.445c-6.469-4.829-12.531-8.138-17.375-10.35c-4.405-2.011-9.132,1.735-7.95,6.354
	c5.956,23.285,5.947,44.318,5.231,56.06c-0.255,4.193-4.897,6.611-8.598,4.405c-9.727-5.797-19.606-8.084-26.597-8.964
	c-4.34-0.547-7.605,3.634-5.935,7.648c9.508,22.859,11.517,47.818,11.904,59.768c0.115,3.539-3.022,6.245-6.578,5.646
	c-13.444-2.267-28.074-0.397-37.277,1.359c-4.236,0.808-5.934,5.791-3.142,9.137c26.56,31.823,38.053,66.142,42.621,94.517
	C230.105,417.496,254.882,398.811,288.016,387.207z"/>
<path style="fill:#83CC8E;" d="M281.478,393.694c-0.597-0.357-1.156-0.8-1.657-1.331c-2.931-3.102-2.792-7.992,0.31-10.923
	c34.203-32.316,86.89-29.84,89.116-29.718c4.26,0.234,7.527,3.875,7.295,8.135c-0.232,4.258-3.869,7.523-8.126,7.295l0,0
	c-0.48-0.024-48.362-2.173-77.673,25.52C288.173,395.103,284.372,395.423,281.478,393.694z"/>
<g>
	<path style="fill:#78C181;" d="M322.074,319.005c-1.161-0.694-2.155-1.701-2.841-2.98c-2.016-3.761-0.602-8.444,3.159-10.46
		c29.461-15.794,63.079-10.252,64.496-10.008c4.206,0.72,7.028,4.719,6.306,8.924c-0.723,4.202-4.711,7.023-8.912,6.308l0,0
		c-0.296-0.05-29.91-4.834-54.589,8.395C327.212,320.515,324.328,320.351,322.074,319.005z"/>
	<path style="fill:#78C181;" d="M261.97,404.239c-2.894-1.729-4.414-5.226-3.494-8.643c10.446-38.79-15.942-79.731-16.21-80.14
		c-2.335-3.568-1.343-8.356,2.222-10.696c3.564-2.341,8.347-1.354,10.692,2.206c1.251,1.9,30.495,47.063,18.218,92.648
		c-1.11,4.121-5.35,6.562-9.47,5.452C263.222,404.877,262.567,404.596,261.97,404.239z"/>
	<path style="fill:#78C181;" d="M306.364,333.953c-2.254-1.346-3.765-3.808-3.77-6.624c-0.053-28.08-18.257-52.644-18.441-52.889
		c-2.56-3.409-1.88-8.251,1.524-10.816c3.405-2.566,8.238-1.892,10.81,1.506c0.878,1.161,21.498,28.817,21.56,62.171
		c0.008,4.267-3.444,7.733-7.712,7.741C308.884,335.044,307.525,334.646,306.364,333.953z"/>
</g>
<path style="fill:#83CC8E;" d="M379.354,217.584L199.561,481.319c-6.263,9.187-3.238,21.891,6.615,27.776l0,0l0,0
	c9.853,5.885,22.472,2.526,27.592-7.345l146.967-283.342C381.187,217.537,379.907,216.772,379.354,217.584z"/>
<g>
	<path style="fill:#78C181;" d="M216.598,489.908l97.484-142.997l66.653-128.503c0.452-0.871-0.828-1.636-1.381-0.825
		L199.561,481.319c-6.263,9.187-3.238,21.891,6.615,27.776l0,0c3.426,2.046,7.184,2.951,10.848,2.877
		C212.427,505.502,211.943,496.736,216.598,489.908z"/>
	<path style="fill:#78C181;" d="M409.17,245.614c0.132-4.265-3.219-7.829-7.484-7.962c-0.899-0.027-18.745-0.53-35.141,2.294
		l-10.079,16.875c1.464,0.516,3.097,0.598,4.702,0.135c15.752-4.536,39.801-3.864,40.043-3.857
		C405.475,253.229,409.038,249.878,409.17,245.614z"/>
	<path style="fill:#78C181;" d="M355.424,258.565c-5.061-16.471-14.571-33.185-15.03-33.987c-2.121-3.704-6.839-4.986-10.542-2.867
		c-3.703,2.118-4.989,6.839-2.871,10.542c0.117,0.205,11.745,20.663,15.224,36.702c0.472,2.177,1.818,3.939,3.59,4.997
		c0.108,0.064,0.221,0.119,0.332,0.178L355.424,258.565z"/>
</g>
<path style="fill:#30AA44;" d="M270.407,294.432c-6.453-2.829-16.108-5.932-27.431-5.942c-4.308-0.004-7.054-4.46-5.123-8.191
	c5.407-10.448,16.185-28.509,33.238-45.446c3.383-3.36,1.246-8.999-3.568-9.531c-6.056-0.67-14.218-0.923-23.769,0.405
	c-4.377,0.609-7.858-3.528-6.311-7.541c3.815-9.896,11.119-25.839,22.429-38.653c3.289-3.727,0.512-9.455-4.548-9.337
	c-6.976,0.163-15.549,0.693-23.395,2.096c-4.562,0.816-8.189-3.659-6.37-7.794c5.653-12.847,13.869-35.197,13.906-56.643
	c0.007-4.209-4.573-6.98-8.445-5.07c-5.569,2.748-14.291,6.055-26.735,8.149c-3.746,0.631-7.132-2.291-6.847-5.964
	c1.437-18.488,0.381-69.396-48.522-103.885c-2.049-1.445-4.841-1.445-6.89,0C93.124,35.572,92.068,86.48,93.505,104.968
	c0.286,3.673-3.1,6.594-6.847,5.964c-12.444-2.094-21.165-5.401-26.735-8.149c-3.872-1.91-8.452,0.861-8.445,5.07
	c0.037,21.447,8.253,43.797,13.906,56.643c1.819,4.135-1.807,8.61-6.37,7.794c-7.846-1.404-16.419-1.934-23.395-2.096
	c-5.06-0.118-7.837,5.61-4.548,9.337c11.311,12.814,18.614,28.757,22.429,38.653c1.547,4.013-1.934,8.15-6.311,7.541
	c-9.551-1.328-17.713-1.074-23.769-0.405c-4.813,0.532-6.95,6.172-3.567,9.532c17.053,16.937,27.831,34.998,33.238,45.446
	c1.931,3.731-0.815,8.186-5.123,8.191c-11.323,0.011-20.977,3.113-27.431,5.942c-4.007,1.756-4.665,7.02-1.174,9.61
	c19.884,14.75,34.408,35.148,40.868,45.208c1.913,2.98,0.608,6.911-2.753,8.22c-12.704,4.948-24.305,14.055-31.306,20.282
	c-3.222,2.866-2.126,8.014,1.988,9.455c50.513,17.691,81.606,51.839,98.979,77.85h36.666c17.372-26.011,48.465-60.158,98.979-77.85
	c4.113-1.441,5.21-6.589,1.988-9.455c-7.001-6.227-18.603-15.334-31.306-20.282c-3.361-1.309-4.666-5.241-2.753-8.22
	c6.46-10.06,20.983-30.458,40.868-45.208C275.072,301.451,274.413,296.188,270.407,294.432z"/>
<g>
	<path style="fill:#269E35;" d="M62.797,385.575c-4.08-1.532-5.061-6.704-1.776-9.497c7.139-6.069,8.638-13.884,21.45-18.547
		c3.389-1.233,4.782-6.165,2.936-9.187c-6.233-10.202-20.297-28.859-39.846-44.05c-3.433-2.667-2.657-7.915,1.388-9.581
		c6.515-2.684,10.054-5.57,21.375-5.327c4.307,0.092,7.151-4.301,5.304-8.074c-5.172-10.566-15.543-28.864-32.213-46.178
		c-3.307-3.435-1.045-9.025,3.78-9.449c0.327-0.029,0.684-0.05,1.023-0.076c-9.128-1.178-16.951-0.933-22.797-0.287
		c-4.813,0.532-6.95,6.172-3.567,9.532c17.053,16.937,27.831,34.998,33.238,45.446c1.931,3.731-0.815,8.186-5.123,8.191
		c-11.323,0.011-20.977,3.113-27.431,5.942c-4.007,1.756-4.665,7.02-1.174,9.61c19.884,14.75,34.408,35.148,40.868,45.208
		c1.913,2.98,0.608,6.911-2.753,8.22c-12.704,4.948-24.305,14.055-31.306,20.282c-3.222,2.866-2.126,8.014,1.988,9.455
		c50.513,17.691,81.606,51.839,98.979,77.85h22.065C134.956,449.293,112.323,404.173,62.797,385.575z"/>
	<path style="fill:#269E35;" d="M53.501,218.184c1.168,3.03-0.532,6.128-3.319,7.203c5.293-0.17,11.651,0.081,18.767,1.233
		c4.363,0.706,7.935-3.352,6.478-7.398c-3.593-9.979-10.538-26.081-21.56-39.145c-2.386-2.829-1.383-6.688,1.371-8.382
		c-6.748-0.959-13.748-1.364-19.619-1.5c-5.06-0.118-7.837,5.61-4.548,9.337C42.382,192.345,49.686,208.288,53.501,218.184z"/>
	<path style="fill:#269E35;" d="M63.677,171.137c5.831,0.407,12.277,1.111,18.288,2.326c4.543,0.918,8.269-3.475,6.542-7.65
		c-5.364-12.97-13.078-35.498-12.635-56.94c0.002-0.086,0.017-0.167,0.022-0.252c-6.908-1.832-12.174-3.965-15.971-5.838
		c-3.872-1.91-8.452,0.861-8.445,5.07c0.037,21.447,8.253,43.797,13.906,56.643C66.488,167.007,65.579,169.636,63.677,171.137z"/>
	<path style="fill:#269E35;" d="M92.966,107.771c4.805,1.807,10.761,3.581,18.008,4.967c3.732,0.714,7.182-2.13,6.979-5.809
		c-0.963-17.417,0.927-63.464,42.492-96.656c-3.514-3.162-7.341-6.237-11.527-9.189c-2.049-1.445-4.841-1.445-6.89,0
		C93.124,35.572,92.068,86.48,93.505,104.968C93.584,105.98,93.376,106.931,92.966,107.771z"/>
</g>
<g>
	<path style="fill:#83CC8E;" d="M150.946,374.312c-0.696,0-1.402-0.095-2.105-0.293c-4.107-1.16-6.495-5.43-5.335-9.537
		c12.793-45.283,59.296-70.173,61.269-71.211c3.777-1.984,8.449-0.533,10.435,3.244c1.984,3.775,0.536,8.442-3.236,10.43l0,0
		c-0.425,0.225-42.634,22.933-53.597,61.738C157.416,372.089,154.317,374.312,150.946,374.312z"/>
	<path style="fill:#83CC8E;" d="M147.5,289.373c-1.353,0-2.723-0.355-3.967-1.102c-3.66-2.195-4.847-6.941-2.652-10.6
		c17.194-28.667,48.897-41.147,50.239-41.665c3.981-1.538,8.454,0.448,9.99,4.428c1.534,3.978-0.443,8.445-4.416,9.986h0.001
		c-0.28,0.109-28.157,11.187-42.561,35.199C152.685,288.035,150.125,289.373,147.5,289.373z"/>
</g>
<g>
	<path style="fill:#78C181;" d="M139.605,393.369c-3.371,0-6.47-2.223-7.432-5.628c-10.922-38.658-54.571-60.276-55.011-60.49
		c-3.834-1.865-5.437-6.485-3.577-10.322c1.86-3.837,6.472-5.443,10.311-3.589c2.048,0.99,50.314,24.767,63.148,70.199
		c1.161,4.107-1.228,8.377-5.335,9.537C141.007,393.274,140.3,393.369,139.605,393.369z"/>
	<path style="fill:#78C181;" d="M141.677,310.262c-2.625,0-5.185-1.338-6.634-3.754c-14.444-24.08-42.669-35.834-42.952-35.95
		c-3.945-1.614-5.845-6.119-4.238-10.067c1.608-3.949,6.102-5.848,10.053-4.251c1.349,0.546,33.233,13.716,50.389,42.32
		c2.195,3.659,1.008,8.405-2.652,10.6C144.399,309.907,143.029,310.262,141.677,310.262z"/>
</g>
<path style="fill:#83CC8E;" d="M184.639,181.705c-2.074-3.73-6.779-5.071-10.508-2.998c-0.786,0.437-16.365,9.156-28.993,19.988
	v19.656c1.521-0.307,2.965-1.075,4.106-2.295c11.198-11.972,32.189-23.727,32.399-23.845
	C185.372,190.137,186.713,185.433,184.639,181.705z"/>
<path style="fill:#78C181;" d="M145.138,220.384c-12.791-11.545-29.526-21.018-30.331-21.472c-3.721-2.093-8.428-0.774-10.521,2.944
	s-0.776,8.429,2.941,10.523c0.206,0.116,20.679,11.717,31.89,23.703c1.522,1.627,3.581,2.449,5.645,2.449
	c0.126,0,0.251-0.011,0.377-0.017v-18.13H145.138z"/>
<path style="fill:#83CC8E;" d="M144.668,172.929L125.55,491.546C124.884,502.645,133.996,512,145.472,512l0,0l0,0
	c11.477,0,20.588-9.355,19.922-20.454l-19.118-318.617C146.218,171.949,144.727,171.949,144.668,172.929z"/>
<path style="fill:#78C181;" d="M144.562,491.546l10.416-173.592l-8.702-145.025c-0.059-0.98-1.549-0.98-1.608,0L125.55,491.546
	C124.884,502.645,133.996,512,145.472,512c3.453,0,6.684-0.859,9.506-2.346C148.419,506.201,144.097,499.306,144.562,491.546z"/>
<g>
</g>
<g>
</g>
<g>
</g>
<g>
</g>
<g>
</g>
<g>
</g>
<g>
</g>
<g>
</g>
<g>
</g>
<g>
</g>
<g>
</g>
<g>
</g>
<g>
</g>
<g>
</g>
<g>
</g>
</svg>
