<?xml version="1.0" encoding="iso-8859-1"?>
<!-- Generator: Adobe Illustrator 19.0.0, SVG Export Plug-In . SVG Version: 6.00 Build 0)  -->
<svg version="1.1" id="Layer_1" xmlns="http://www.w3.org/2000/svg" xmlns:xlink="http://www.w3.org/1999/xlink" x="0px" y="0px"
	 viewBox="0 0 512.007 512.007" style="enable-background:new 0 0 512.007 512.007;" xml:space="preserve">
<ellipse style="fill:#FFD41D;" cx="287.855" cy="239.066" rx="224.152" ry="151.24"/>
<path style="fill:#EFC71D;" d="M357.44,356.002c-123.792,0-224.146-67.714-224.146-151.244c0-39.675,22.651-75.773,59.688-102.751
	c-76.365,24.108-129.275,76.407-129.275,137.055c0,83.53,100.354,151.244,224.146,151.244c64.995,0,123.518-18.673,164.459-48.493
	C423.498,350.91,391.353,356.002,357.44,356.002z"/>
<path style="fill:#FCE275;" d="M89.226,272.941c0,9.386,10.09,22.025,26.333,32.985c27.348,18.452,66.928,29.036,108.59,29.036
	c41.663,0,81.242-10.583,108.59-29.036c16.242-10.96,26.333-23.599,26.333-32.985v-0.004h89.224
	c0,83.533-100.355,151.244-224.146,151.244S0.004,356.469,0.004,272.936h89.224"/>
<path style="fill:#A3E261;" d="M448.292,272.941c0,83.529-100.345,151.24-224.14,151.24S0,356.47,0,272.941h25.026
	c0,31.827,19.405,62.439,54.627,86.201c38.243,25.809,89.56,40.025,144.499,40.025c54.928,0,106.256-14.216,144.499-40.025
	c35.222-23.762,54.615-54.374,54.615-86.201H448.292L448.292,272.941z"/>
<g>
</g>
<g>
</g>
<g>
</g>
<g>
</g>
<g>
</g>
<g>
</g>
<g>
</g>
<g>
</g>
<g>
</g>
<g>
</g>
<g>
</g>
<g>
</g>
<g>
</g>
<g>
</g>
<g>
</g>
</svg>
