<svg xmlns="http://www.w3.org/2000/svg" data-name="Layer 1" viewBox="0 0 100 125" x="0px" y="0px"><defs><style>.cls-1{fill:none;}</style></defs><title>Mirabelle</title><path class="cls-1" d="M40.68,41.38c1-.35,3.07-.91,4.55.33l.12.12c.11.09.5.15,1.14-.16L47.54,41l0,0-.38-.35.08-.56a4.15,4.15,0,0,1,.37-1l-.82,1.13-.23.33-.39.08a12.16,12.16,0,0,1-3.38.25,6.64,6.64,0,0,0-.87-.07c-.89,0-1.81-.08-2.21-.88-.06-.09-.43-.33-1.25-.14a2.58,2.58,0,0,0-1,.42,2.14,2.14,0,0,1-1.31.44c-.53,0-1.45.1-2.19.18l-.63.07a9.74,9.74,0,0,0-1,.2,4,4,0,0,1-2.57.12h0c-.12,0-.75.13-1.17.22s-.74.15-1.11.21a5.28,5.28,0,0,0-1.36.5,8.49,8.49,0,0,1-2.06.74,13.42,13.42,0,0,0-3.59,1l-.28.17a7.74,7.74,0,0,1-2.46,1.12c-.59.12-1.78.51-2.29.69-.15.08-.53.3-1.14.67-.22.13-.44.29-.67.45a5.64,5.64,0,0,1-2,1,2.69,2.69,0,0,0-.34,1.14s.27.18,1.36,0a7.39,7.39,0,0,0,1.92-.71c1-.46,2-.95,3-.46a2.46,2.46,0,0,0,2.14-.86,4.19,4.19,0,0,1,2.46-1.74l.44-.17A9.69,9.69,0,0,1,26,44.84h.32l0-.09c.36-.85,1.4-1.1,2.27-1.23l.84-.13a10.94,10.94,0,0,1,4.33-.17,4.31,4.31,0,0,0,2.29.19,6.33,6.33,0,0,1,1.17-.27l.56-.1a4.31,4.31,0,0,1,2.51-1.69A1.33,1.33,0,0,1,40.68,41.38Z"/><path class="cls-1" d="M44.2,60.49l-.52.25a5.37,5.37,0,0,1-2.3.54,4.4,4.4,0,0,1-2.31-.61l1-1.46h-.18a.9.9,0,0,0-.14.25c0-.06,0-.15.05-.24-2.55.14-7.52,1-9.89,5.07-1.9,3.29-2,8.34-.25,12.56A12.62,12.62,0,0,0,38,84.49a13.81,13.81,0,0,0,11.65-2.07,15.29,15.29,0,0,0,6.59-10.7c.41-4.4-.93-8.45-3.59-10.82a9.76,9.76,0,0,0-8.34-2.06c0,.6-.07,1-.08,1.06Z"/><path class="cls-1" d="M42.19,51.78a65.93,65.93,0,0,1-.43,7.47,3.25,3.25,0,0,0,.55-.12c.17-2.36.73-10.92.1-16.14a5.16,5.16,0,0,0-.54.11A45.26,45.26,0,0,1,42.19,51.78Z"/><path class="cls-1" d="M51.86,34.06l0,0,2,.58.14.1c1.1.8,1.58.76,1.66.75l.33-.91.94.35a4.9,4.9,0,0,0,2.43.4l.1-.86,1.1.28c2.56.64,3.46-.3,3.5-.34l.31-.34.48,0c2.58.06,3-1.14,3-1.19l.19-.59.63-.12c2.42-.34,3.06-1.2,3.06-1.61l-.06-.5.37-.29c1.87-1.75,1.35-2.8,1.33-2.84l-.25-.48.24-.52c1-1.74-.9-3.62-.92-3.64L72,21.8l.26-.56a5.27,5.27,0,0,0-1.63-1.67l-.4-.28,0-.48a.28.28,0,0,0-.14-.24c-1-.7-4.42-.27-6.45.24l-1,.24-.09-.37A20,20,0,0,0,59,21l-1,.84-.23-.55a19.4,19.4,0,0,0-2.27,2.9l-.63,1-.58-.52a14.81,14.81,0,0,0-1,2.12c-.52,1.3-.89,2.22-1.64,2.37a14.17,14.17,0,0,0,.19,4.35Zm2.07-2.36h0a9.08,9.08,0,0,1,.62-4.09,12.39,12.39,0,0,1,.87-1.8,8.9,8.9,0,0,1,1.2-1.6c-.07.67-.18,1.3-.26,1.94s-.18,1.25-.27,1.86-.16,1.36-.19,2l.3-.25c.39-.31.8-.59,1.21-.88A9.4,9.4,0,0,1,58,26.48a13.84,13.84,0,0,1,1.24-2.4,16.11,16.11,0,0,1,1.6-2.1,13.27,13.27,0,0,1,1.94-1.78l-1.1,2.34c-.36.76-.72,1.52-1,2.28a20.24,20.24,0,0,0-.83,2.27c0,.07,0,.14-.05.21.42-.27.83-.55,1.26-.8.69-.41,1.39-.78,2.11-1.14.06-.24.13-.49.2-.73s.25-.73.43-1.07a9.71,9.71,0,0,1,1.23-2,7.61,7.61,0,0,1,1.76-1.52,4.63,4.63,0,0,1,2.15-.73,11.1,11.1,0,0,0-2.53,3.21,13.07,13.07,0,0,0-.76,1.67l.63-.28a25,25,0,0,1,5.62-1.6c-1.64,1.07-3.29,2-4.92,3l-1.1.65c.45.25.89.52,1.35.77a17,17,0,0,0,3,1.29,6.42,6.42,0,0,1-3.46.06A10.47,10.47,0,0,1,65,27.57c-.36-.15-.71-.31-1.06-.49L62,28.23l-1.18.68,2.31.61c1.52.39,3,.81,4.61,1.06a8.5,8.5,0,0,1-2.41.46,17.2,17.2,0,0,1-2.44,0,27.18,27.18,0,0,1-4.51-.71l-1.32.76-.27.15,1.76.69,3.33,1.43a7,7,0,0,1-1.88.21,15.06,15.06,0,0,1-1.85-.14,20.37,20.37,0,0,1-3.57-.86l-.13,0c-.82.43-1.66.86-2.52,1.26A24.39,24.39,0,0,1,53.93,31.71Z"/><path class="cls-1" d="M88.28,69.15l.21-.41c.06-.13,1.6-3.38-2.13-7.83l-.44-.53.33-.6a1.15,1.15,0,0,0-.1-.76c-.3-.68-1.4-2-5.34-3.38l-.89-.3.22-.82c0-.21-.61-2-7.44-3.21l-.87-.16,0-.78c-.09-.18-1-1.44-6.23-1.38l-1.71,0,.63-1.14c-.46-.13-1.68-.29-4.72.18a5,5,0,0,1-2.43.08,1.53,1.53,0,0,1,.2.49l0,.15,0,.15c-.37,3.4-.37,6.76,0,7.72H59l.14.83c.69,4,1.86,7.92,2.59,8.7h0l1.42.12.25.5c1.52,3.07,3.34,5.91,4.13,6.5L68,73l.52.68C71.08,77,74,80,75,80.24l.35-.51.75.31c2.09.87,6.78,2.17,7.94.63L85,79.49c1.42-1.86,1.91-2.55,1.91-3.53v-.51l.41-.3a4.63,4.63,0,0,0,1.16-5.57Zm-8.42.13a58.21,58.21,0,0,1,5.27,8.42c-2.2-2.49-4.29-5-6.48-7.44l-2.39-2.65c0,.19,0,.37.06.56.14,1,.3,2.09.51,3.14s.38,2.12.56,3.18.33,2.15.61,3.21a12.45,12.45,0,0,1-1.64-2.89,32.48,32.48,0,0,1-1.17-3.1,28.83,28.83,0,0,1-.81-3.24,10.75,10.75,0,0,1-.15-3.06c-.73-.8-1.46-1.6-2.21-2.38q-1.89-2-3.82-4c.07.43.14.86.23,1.28.26,1.26.55,2.53.85,3.8.6,2.55,1.23,5.11,1.72,7.74a38,38,0,0,1-1.8-3.57q-.81-1.82-1.49-3.71c-.43-1.26-.84-2.54-1.17-3.85-.15-.66-.29-1.33-.39-2a8.67,8.67,0,0,1-.09-1.89l-3-3.14c0,.35,0,.72,0,1.09,0,.83,0,1.69.07,2.56.05,1.73.12,3.48,0,5.29a22.75,22.75,0,0,1-2-7.78,10.39,10.39,0,0,1,0-1.42,4.49,4.49,0,0,1,.31-1.47l-3-3.08c1.2.76,2.36,1.57,3.5,2.41l.21,0A15.82,15.82,0,0,1,64.27,51a15.53,15.53,0,0,1,2.18,0,13,13,0,0,1,2.16.36,8,8,0,0,1,2,.82c-.73,0-1.42,0-2.11.06s-1.36.14-2,.21-1.34.2-2,.31l-.51.1q1.19,1,2.35,1.95l.88.78a21.2,21.2,0,0,1,3.18-.13,22.15,22.15,0,0,1,3.42.35,18.5,18.5,0,0,1,3.31.88,14.33,14.33,0,0,1,3,1.54,31.92,31.92,0,0,0-3.26-.65,32.51,32.51,0,0,0-3.25-.3c-1.08,0-2.17,0-3.24,0l-1.25.08q2.23,2.1,4.35,4.32c.76.81,1.51,1.65,2.24,2.49,1.52.19,3,.43,4.55.72a41.16,41.16,0,0,1,4.86,1.21,41.51,41.51,0,0,1-5,.21c-.89,0-1.78,0-2.67-.09C78.28,67.22,79.08,68.24,79.86,69.29Z"/><path class="cls-1" d="M48.08,43.06a8.34,8.34,0,0,0,.8.51l-.79-.52Z"/><path d="M90.45,69.22c.44-1.22,1.23-4.79-2.22-9.17A3.13,3.13,0,0,0,88,58.4c-.66-1.71-2.67-3.19-6-4.42a2.84,2.84,0,0,0-.36-.8c-1-1.62-3.73-2.87-8.06-3.72a2.68,2.68,0,0,0-.47-.65c-1.1-1.14-3.33-1.75-6.66-1.81a1.66,1.66,0,0,0-.12-.21c-.78-1.12-2.92-1.33-7-.68a4.35,4.35,0,0,1-1.37.15,11.16,11.16,0,0,0-4.84-2.82,14.35,14.35,0,0,1-3.62-1.83,1.72,1.72,0,0,0,.11-.5A1.85,1.85,0,0,0,49.37,40a17.44,17.44,0,0,1,2.88-3.75l.73.21c1.3.91,2.38,1.22,3.3.93a2,2,0,0,0,.69-.37c1.63.46,2.8.44,3.58-.05l.2-.15a5.38,5.38,0,0,0,4.48-.78c2.66-.05,3.81-1.24,4.28-2,3.3-.61,4-2.23,4.21-3.11,2-2,1.88-3.66,1.63-4.5.93-2.24-.42-4.32-1.11-5.17,0-1.27-1.36-2.5-2.15-3.1A2.26,2.26,0,0,0,71.21,17c-1.79-1.32-5.88-.6-7.56-.23l-.24-.1c-.94-.32-2.67.49-5.14,2.39l-.15,0c-.37,0-1.46-.14-4,3.5a1.49,1.49,0,0,0-.34,0c-1.17.28-1.8,1.85-2.47,3.51-.16.39-.36.89-.5,1.17a1.49,1.49,0,0,0-.7.42c-1,1-.74,3.79-.46,5.67a58.79,58.79,0,0,0-4.29,5.37,9.49,9.49,0,0,1-2.23.18A7.86,7.86,0,0,0,42,38.74c-.21,0-.5,0-.68,0A3.08,3.08,0,0,0,38,37.78a4.51,4.51,0,0,0-1.66.71.52.52,0,0,1-.2.1c-.64,0-1.57.1-2.4.19l-.62.06a10.62,10.62,0,0,0-1.23.24,9.78,9.78,0,0,1-1.32.24,4.22,4.22,0,0,0-2.38.09c-.32.07-.66.14-1,.19a6.87,6.87,0,0,0-1.92.67,6.72,6.72,0,0,1-1.58.59,15.16,15.16,0,0,0-4.25,1.29l-.29.17a6.14,6.14,0,0,1-1.81.87,27.36,27.36,0,0,0-2.63.79l-.15.06s-.43.23-1.3.77c-.24.15-.5.32-.75.5a7.54,7.54,0,0,1-1.14.7h0a1.53,1.53,0,0,0-1.23.69,4.06,4.06,0,0,0-.73,2.91c.57,2,2.87,1.59,3.63,1.46a9.22,9.22,0,0,0,2.44-.88c.47-.23,1.1-.54,1.3-.45,1.66.77,4-.47,4.69-1.64.25-.42.53-.54,1.47-.91l.46-.18A9.62,9.62,0,0,1,26,46.83c1.31,0,2,0,2.31-.65a1,1,0,0,0,.11-.59l.51-.1.86-.14a10.27,10.27,0,0,1,3.46-.22,6.26,6.26,0,0,0,3.54.14,5.25,5.25,0,0,1,.79-.17c.77-.13,1.5-.25,1.8-.85a3.86,3.86,0,0,1,.59-.59c.4,2.41.27,9.7,0,13.53-2.84.1-8.85.93-11.83,6.1-2.19,3.8-2.34,9.55-.37,14.32a14.58,14.58,0,0,0,9.73,8.81A15.74,15.74,0,0,0,50.8,84.07a17.35,17.35,0,0,0,7.45-12.15c.47-5-1.12-9.71-4.25-12.5a11.46,11.46,0,0,0-9.54-2.61,99,99,0,0,0,0-13.19,2.63,2.63,0,0,0,1.21.29h.23A11.1,11.1,0,0,0,50.5,46.4,12.59,12.59,0,0,1,55.6,49c-.31,3-.6,8,.65,9.19a1.44,1.44,0,0,0,1,.43h0c.56,3,1.79,8.43,3.58,9.39a1.6,1.6,0,0,0,1,.19c1.17,2.3,3.52,6.54,5.19,7.06l.22.05c1.86,2.37,5.69,6.9,7.89,6.9h0a1.71,1.71,0,0,0,.69-.16,18.5,18.5,0,0,0,6,1.27,4.53,4.53,0,0,0,3.82-1.51l.88-1.15c1.35-1.77,2.15-2.82,2.3-4.26A6.65,6.65,0,0,0,90.45,69.22ZM51.58,29.15c.75-.15,1.12-1.06,1.64-2.37a14.81,14.81,0,0,1,1-2.12l.58.52.63-1a19.4,19.4,0,0,1,2.27-2.9l.23.55L59,21a20,20,0,0,1,3.55-2.35l.09.37,1-.24c2-.51,5.5-.94,6.45-.24a.28.28,0,0,1,.14.24l0,.48.4.28a5.27,5.27,0,0,1,1.63,1.67L72,21.8l.49.49s1.88,1.9.92,3.64l-.24.52.25.48s.55,1.09-1.33,2.84l-.37.29.06.5c0,.41-.64,1.27-3.06,1.61l-.63.12-.19.59c0,.05-.43,1.25-3,1.19l-.48,0-.31.34s-.94,1-3.5.34l-1.1-.28-.1.86a4.9,4.9,0,0,1-2.43-.4L56,34.61l-.33.91c-.08,0-.56,0-1.66-.75l-.14-.1-2-.58,0,0-.09-.56A14.17,14.17,0,0,1,51.58,29.15ZM37.79,43l-.56.1a6.33,6.33,0,0,0-1.17.27,4.31,4.31,0,0,1-2.29-.19,10.94,10.94,0,0,0-4.33.17l-.84.13c-.87.13-1.91.39-2.27,1.23l0,.09H26a9.69,9.69,0,0,0-3.27.32l-.44.17a4.19,4.19,0,0,0-2.46,1.74,2.46,2.46,0,0,1-2.14.86c-1-.48-2,0-3,.46a7.39,7.39,0,0,1-1.92.71c-1.09.19-1.35,0-1.36,0A2.69,2.69,0,0,1,11.73,48a5.64,5.64,0,0,0,2-1c.23-.16.46-.31.67-.45.61-.38,1-.59,1.14-.67.5-.17,1.69-.57,2.29-.69A7.74,7.74,0,0,0,20.23,44l.28-.17a13.42,13.42,0,0,1,3.59-1,8.49,8.49,0,0,0,2.06-.74,5.28,5.28,0,0,1,1.36-.5c.37-.05.74-.13,1.11-.21s1.05-.22,1.17-.22h0A4,4,0,0,0,32.37,41a9.74,9.74,0,0,1,1-.2l.63-.07c.74-.08,1.66-.18,2.19-.18a2.14,2.14,0,0,0,1.31-.44,2.58,2.58,0,0,1,1-.42c.82-.19,1.19.05,1.25.14.39.79,1.32.83,2.21.88a6.64,6.64,0,0,1,.87.07,12.16,12.16,0,0,0,3.38-.25l.39-.08.23-.33L47.64,39a4.15,4.15,0,0,0-.37,1l-.08.56.38.35,0,0-1.06.68c-.64.31-1,.25-1.14.16l-.12-.12c-1.48-1.24-3.59-.69-4.55-.33a1.33,1.33,0,0,0-.38,0A4.31,4.31,0,0,0,37.79,43ZM42.3,59.13a3.25,3.25,0,0,1-.55.12,65.93,65.93,0,0,0,.43-7.47,45.26,45.26,0,0,0-.32-8.67A5.16,5.16,0,0,1,42.4,43C43,48.21,42.47,56.77,42.3,59.13Zm10.37,1.78c2.66,2.37,4,6.42,3.59,10.82a15.29,15.29,0,0,1-6.59,10.7A13.81,13.81,0,0,1,38,84.49a12.62,12.62,0,0,1-8.4-7.64c-1.74-4.22-1.64-9.27.25-12.56,2.38-4.12,7.34-4.94,9.89-5.07,0,.1,0,.18-.05.24a.9.9,0,0,1,.14-.25H40l-1,1.46a4.4,4.4,0,0,0,2.31.61,5.37,5.37,0,0,0,2.3-.54l.52-.25,0-.58c0-.08,0-.46.08-1.06A9.76,9.76,0,0,1,52.67,60.91ZM48.08,43.06h0l.79.52A8.34,8.34,0,0,1,48.08,43.06Zm39.2,32.09-.41.3V76c0,1-.49,1.67-1.91,3.53l-.89,1.17c-1.16,1.55-5.85.25-7.94-.62l-.75-.31-.35.51c-1-.28-4-3.21-6.49-6.51L68,73l-.49.27c-.79-.59-2.61-3.43-4.13-6.5l-.25-.5-1.42-.12h0c-.73-.79-1.91-4.69-2.59-8.7L59,56.67H57.6c-.34-1-.34-4.32,0-7.72l0-.15,0-.15a1.53,1.53,0,0,0-.2-.49,5,5,0,0,0,2.43-.08c3-.48,4.26-.32,4.72-.18L63.92,49l1.71,0c5.27-.06,6.14,1.19,6.23,1.38l0,.78.87.16c6.83,1.23,7.4,3,7.44,3.21l-.22.82.89.3c3.95,1.36,5,2.7,5.34,3.38a1.15,1.15,0,0,1,.1.76l-.33.6.44.53c3.73,4.44,2.19,7.7,2.13,7.83l-.21.41.17.42A4.63,4.63,0,0,1,87.29,75.15Z"/><path d="M54.59,32.53a20.37,20.37,0,0,0,3.57.86,15.06,15.06,0,0,0,1.85.14,7,7,0,0,0,1.88-.21L58.56,31.9l-1.76-.69.27-.15,1.32-.76A27.18,27.18,0,0,0,62.9,31a17.2,17.2,0,0,0,2.44,0,8.5,8.5,0,0,0,2.41-.46c-1.6-.26-3.09-.67-4.61-1.06l-2.31-.61L62,28.23l1.93-1.15c.35.18.7.34,1.06.49a10.47,10.47,0,0,0,1.66.53A6.42,6.42,0,0,0,70.13,28a17,17,0,0,1-3-1.29c-.46-.24-.9-.51-1.35-.77l1.1-.65c1.63-1,3.28-1.92,4.92-3a25,25,0,0,0-5.62,1.6l-.63.28a13.07,13.07,0,0,1,.76-1.67,11.1,11.1,0,0,1,2.53-3.21,4.63,4.63,0,0,0-2.15.73A7.61,7.61,0,0,0,65,21.59a9.71,9.71,0,0,0-1.23,2c-.18.35-.28.72-.43,1.07s-.14.49-.2.73c-.71.36-1.42.73-2.11,1.14-.43.25-.84.53-1.26.8,0-.07,0-.14.05-.21a20.24,20.24,0,0,1,.83-2.27c.32-.76.67-1.52,1-2.28l1.1-2.34A13.27,13.27,0,0,0,60.81,22a16.11,16.11,0,0,0-1.6,2.1A13.84,13.84,0,0,0,58,26.48a9.4,9.4,0,0,0-.56,2.41c-.4.29-.81.57-1.21.88l-.3.25c0-.66.1-1.33.19-2s.17-1.23.27-1.86.19-1.27.26-1.94a8.9,8.9,0,0,0-1.2,1.6,12.39,12.39,0,0,0-.87,1.8,9.08,9.08,0,0,0-.62,4.09h0a24.39,24.39,0,0,0-2,2c.86-.4,1.69-.82,2.52-1.26Z"/><path d="M85.13,66.08a41.16,41.16,0,0,0-4.86-1.21c-1.51-.29-3-.52-4.55-.72-.73-.84-1.48-1.67-2.24-2.49q-2.11-2.22-4.35-4.32l1.25-.08c1.08,0,2.16,0,3.24,0a32.51,32.51,0,0,1,3.25.3,31.92,31.92,0,0,1,3.26.65,14.33,14.33,0,0,0-3-1.54,18.5,18.5,0,0,0-3.31-.88,22.15,22.15,0,0,0-3.42-.35,21.2,21.2,0,0,0-3.18.13l-.88-.78q-1.16-1-2.35-1.95l.51-.1c.67-.1,1.34-.21,2-.31s1.35-.16,2-.21,1.38-.06,2.11-.06a8,8,0,0,0-2-.82A13,13,0,0,0,66.45,51a15.53,15.53,0,0,0-2.18,0,15.82,15.82,0,0,0-2.19.24l-.21,0c-1.14-.84-2.3-1.66-3.5-2.41l3,3.08A4.49,4.49,0,0,0,61,53.39a10.39,10.39,0,0,0,0,1.42,22.75,22.75,0,0,0,2,7.78c.12-1.81,0-3.56,0-5.29,0-.86-.06-1.72-.07-2.56,0-.37,0-.75,0-1.09l3,3.14a8.67,8.67,0,0,0,.09,1.89c.1.69.25,1.36.39,2,.32,1.31.73,2.59,1.17,3.85s.95,2.49,1.49,3.71A38,38,0,0,0,71,71.83c-.49-2.63-1.12-5.19-1.72-7.74-.3-1.27-.59-2.54-.85-3.8-.09-.42-.16-.85-.23-1.28q1.92,2,3.82,4c.75.78,1.48,1.58,2.21,2.38a10.75,10.75,0,0,0,.15,3.06,28.83,28.83,0,0,0,.81,3.24,32.48,32.48,0,0,0,1.17,3.1A12.45,12.45,0,0,0,78,77.71c-.28-1.06-.41-2.14-.61-3.21s-.39-2.13-.56-3.18-.36-2.11-.51-3.14c0-.18,0-.37-.06-.56l2.39,2.65c2.19,2.43,4.28,5,6.48,7.44a58.21,58.21,0,0,0-5.27-8.42c-.77-1-1.58-2.07-2.41-3.08.89,0,1.78.08,2.67.09A41.51,41.51,0,0,0,85.13,66.08Z"/><text x="0" y="115" fill="#000000" font-size="5px" font-weight="bold" font-family="'Helvetica Neue', Helvetica, Arial-Unicode, Arial, Sans-serif">Created by Icons Producer</text><text x="0" y="120" fill="#000000" font-size="5px" font-weight="bold" font-family="'Helvetica Neue', Helvetica, Arial-Unicode, Arial, Sans-serif">from the Noun Project</text></svg>