<svg xmlns="http://www.w3.org/2000/svg" data-name="Layer 1" viewBox="0 0 100 125" x="0px" y="0px"><defs><style>.cls-1{fill:none;}</style></defs><title>Pomelo</title><path class="cls-1" d="M46.72,22.65s0,0,0-.07,0,0,0-.08l-.41-1.07q-.25.53-.52,1.05v1.85a3.81,3.81,0,0,0,1.56-.72Z"/><path class="cls-1" d="M39.19,16.17A14.05,14.05,0,0,0,29.5,12.8c-4.29.09-8.25,2.31-10.88,4.24a15,15,0,0,1,8.67,1A25.37,25.37,0,0,1,39.19,16.17Z"/><path class="cls-1" d="M54.47,25.74a4,4,0,0,0-1-.12,5.9,5.9,0,0,0-4.91,2.88c-.28.52-.32.93-.12,1.21a2.14,2.14,0,0,0,1.9.58h.12a7,7,0,0,0,4.06-1.53,2.7,2.7,0,0,0,1-2.23C55.45,26.16,55.09,25.9,54.47,25.74Zm-3.35,2.71a.6.6,0,1,1,.6-.6A.6.6,0,0,1,51.12,28.45Zm1.77-1a.79.79,0,1,1,.79-.79A.79.79,0,0,1,52.89,27.45Z"/><path class="cls-1" d="M41.43,18.49a26.25,26.25,0,0,0-4.4-.38A22.91,22.91,0,0,0,27.77,20l-.14.06C22,22.6,17.38,27.49,13.88,34.63,18.9,29.1,28.11,21.21,41.43,18.49Z"/><path class="cls-1" d="M61.88,26.37a1,1,0,0,1-.37-.11c-.08,0-7.1-3.63-12.31-3.33l.22.37a1,1,0,0,1-.14,1.19,5.8,5.8,0,0,1-4.22,1.9,3.47,3.47,0,0,1-.49,0,1,1,0,0,1-.79-.65,28.74,28.74,0,0,1-7.94,7.74l0,0c-.11.09-10.75,9.09-12.3,23.52a26.34,26.34,0,0,0,7,20.2A31.9,31.9,0,0,0,54.7,87.55c10,0,19-3.64,25.33-10.24a30.49,30.49,0,0,0,8.43-22.63C87.68,36.67,74.55,27.48,61.88,26.37ZM35,73.64a.81.81,0,1,1-.81.81A.81.81,0,0,1,35,73.64Zm-3.64.89a.89.89,0,1,1,.89-.89A.89.89,0,0,1,31.34,74.53Zm1.29,1.54a.4.4,0,1,1,.4-.4A.4.4,0,0,1,32.63,76.06Zm2.75,3.15A1.21,1.21,0,1,1,36.59,78,1.21,1.21,0,0,1,35.38,79.21ZM56,30.17a8.83,8.83,0,0,1-5.35,2.12,4.37,4.37,0,0,1-.59,0,3.91,3.91,0,0,1-3.2-1.46,3,3,0,0,1,0-3.32A7.66,7.66,0,0,1,55,23.8,3.18,3.18,0,0,1,57.48,26,4.47,4.47,0,0,1,56,30.17Zm10.67,5.36c0-.67.81-1.21,1.8-1.21s1.8.54,1.8,1.21-.81,1.21-1.8,1.21S66.64,36.2,66.64,35.53Zm3.23,4.78a.94.94,0,1,1,.94-.94A.94.94,0,0,1,69.87,40.31Zm5.47-2.54c-.24.62-1.19.84-2.11.48S71.74,37.09,72,36.47s1.19-.84,2.12-.48S75.58,37.15,75.34,37.77Z"/><path class="cls-1" d="M44.71,20c-16.2,2.24-26.59,12.51-31.07,18a12.21,12.21,0,0,1,2.49-.47l.39,0C33.77,36.09,41.37,27.51,44.71,20Z"/><path d="M90.45,54.6c-.83-19.14-14.72-28.94-28.2-30.2-1.26-.63-8.54-4.12-14-3.38l-1-2.62v0l0-.06a1,1,0,0,0-.1-.16l0,0s0-.06-.05-.08l0,0-.15-.1a1,1,0,0,0-.12-.08h0a23.39,23.39,0,0,0-4.4-1.25s0,0,0-.07a15.64,15.64,0,0,0-12.8-5.72c-8.41.17-15.29,7.36-15.58,7.66A1,1,0,0,0,15,20.07c.06,0,5.12-2.13,9.84-.81-6.8,3.82-12,11-15.54,21.32a268.18,268.18,0,0,0,0,.25,1,1,0,0,0,0,.22.72.72,0,0,0,.12.34,1,1,0,0,0,.07.12,1,1,0,0,0,.26.24h0a1,1,0,0,0,.86.08l.06,0a1,1,0,0,0,.3-.19h0a9.23,9.23,0,0,1,5.36-2.14l.38,0a44.9,44.9,0,0,0,13.64-3.07A39.3,39.3,0,0,0,21.53,56.8a28.34,28.34,0,0,0,7.52,21.75,33.88,33.88,0,0,0,25.65,11c10.56,0,20.07-3.85,26.78-10.85A32.48,32.48,0,0,0,90.45,54.6ZM45.72,22.49q.27-.53.52-1.05l.41,1.07s0,0,0,.08,0,0,0,.07l.56,1a3.81,3.81,0,0,1-1.56.72ZM18.61,17c2.63-1.92,6.59-4.15,10.88-4.24a14.05,14.05,0,0,1,9.69,3.37,25.37,25.37,0,0,0-11.91,1.89A15,15,0,0,0,18.61,17Zm9,3,.14-.06A22.91,22.91,0,0,1,37,18.11a26.25,26.25,0,0,1,4.4.38C28.11,21.21,18.9,29.1,13.88,34.63,17.38,27.49,22,22.6,27.63,20.07ZM16.53,37.45l-.39,0a12.21,12.21,0,0,0-2.49.47c4.48-5.48,14.87-15.76,31.07-18C41.37,27.51,33.77,36.09,16.53,37.45ZM80,77.32c-6.32,6.6-15.32,10.24-25.33,10.24A31.9,31.9,0,0,1,30.54,77.21a26.34,26.34,0,0,1-7-20.2c1.55-14.43,12.2-23.43,12.3-23.52l0,0a28.74,28.74,0,0,0,7.94-7.74,1,1,0,0,0,.79.65,3.47,3.47,0,0,0,.49,0,5.8,5.8,0,0,0,4.22-1.9,1,1,0,0,0,.14-1.19l-.22-.37c5.21-.31,12.23,3.29,12.31,3.33a1,1,0,0,0,.37.11c12.67,1.11,25.79,10.29,26.57,28.31A30.49,30.49,0,0,1,80,77.32Z"/><circle cx="31.34" cy="73.64" r="0.89"/><circle cx="34.97" cy="74.44" r="0.81"/><circle cx="69.87" cy="39.37" r="0.94"/><circle cx="52.89" cy="26.66" r="0.79"/><circle cx="51.12" cy="27.85" r="0.6"/><circle cx="35.38" cy="78" r="1.21"/><ellipse cx="68.43" cy="35.53" rx="1.8" ry="1.21"/><ellipse cx="73.66" cy="37.12" rx="1.21" ry="1.8" transform="translate(12.36 92.31) rotate(-68.74)"/><circle cx="32.63" cy="75.66" r="0.4"/><path d="M55,23.8a7.66,7.66,0,0,0-8.13,3.75,3,3,0,0,0,0,3.32A3.91,3.91,0,0,0,50,32.33a4.37,4.37,0,0,0,.59,0A8.83,8.83,0,0,0,56,30.17,4.47,4.47,0,0,0,57.48,26,3.18,3.18,0,0,0,55,23.8Zm-.42,5a7,7,0,0,1-4.06,1.53h-.12a2.14,2.14,0,0,1-1.9-.58c-.2-.28-.16-.69.12-1.21a5.9,5.9,0,0,1,4.91-2.88,4,4,0,0,1,1,.12c.62.16,1,.42,1.08.79A2.7,2.7,0,0,1,54.55,28.76Z"/><text x="0" y="115" fill="#000000" font-size="5px" font-weight="bold" font-family="'Helvetica Neue', Helvetica, Arial-Unicode, Arial, Sans-serif">Created by Icons Producer</text><text x="0" y="120" fill="#000000" font-size="5px" font-weight="bold" font-family="'Helvetica Neue', Helvetica, Arial-Unicode, Arial, Sans-serif">from the Noun Project</text></svg>