<svg height="499pt" viewBox="0 -18 499.1479 499" width="499pt" xmlns="http://www.w3.org/2000/svg"><path d="m489.136719 463.90625c-1.621094 0-3.269531-.394531-4.792969-1.230469l-93.359375-51.132812c-10.179687-5.578125-19.5-12.5625-27.703125-20.769531l-188.128906-188.128907c-3.90625-3.90625-3.90625-10.238281 0-14.140625 3.90625-3.90625 10.234375-3.90625 14.140625 0l188.128906 188.128906c6.863281 6.859376 14.65625 12.707032 23.171875 17.367188l93.355469 51.132812c4.84375 2.652344 6.621093 8.730469 3.964843 13.574219-1.8125 3.320313-5.238281 5.199219-8.777343 5.199219zm0 0" fill="#a56021"/><path d="m495.136719 454.90625c-1.621094 0-3.269531-.394531-4.792969-1.230469l-93.359375-51.132812c-10.179687-5.578125-19.5-12.5625-27.703125-20.769531l-188.128906-188.128907c-1.996094-1.992187-2.964844-4.617187-2.921875-7.230469-1.117188.484376-2.167969 1.179688-3.078125 2.089844-3.90625 3.90625-3.90625 10.238282 0 14.140625l188.128906 188.128907c8.203125 8.207031 17.523438 15.195312 27.703125 20.769531l93.359375 51.132812c1.523438.832031 3.171875 1.230469 4.792969 1.230469 3.539062 0 6.964843-1.878906 8.78125-5.199219.808593-1.476562 1.203125-3.070312 1.226562-4.644531-1.261719.546875-2.621093.84375-4.007812.84375zm0 0" fill="#8c4c17"/><g fill="#ffd551"><path d="m184.644531.0742188c-23.859375 42.4062502-19.289062 74.9492192-19.289062 74.9492192l.082031-.007813c.097656 1.359375.21875 2.730469.375 4.113281 3.226562 28.792969 18.078125 50.761719 33.175781 49.070313 15.097657-1.691407 24.726563-26.402344 21.5-55.195313-.152343-1.382812-.335937-2.746094-.542969-4.097656l.085938-.007812s-2.742188-32.75-35.386719-68.8242192zm0 0"/><path d="m91.238281 38.144531c.539063 48.65625 20.769531 74.554688 20.769531 74.554688l.066407-.050781c.765625 1.132812 1.558593 2.257812 2.382812 3.378906 17.1875 23.320312 41.035157 34.921875 53.265625 25.910156 12.230469-9.015625 8.214844-35.230469-8.976562-58.550781-.820313-1.121094-1.664063-2.210938-2.515625-3.277344l.066406-.050781s-18.746094-26.992188-65.058594-41.914063zm0 0"/><path d="m.00390625 210.964844c42.40234375 23.859375 74.94921875 19.292968 74.94921875 19.292968l-.011719-.085937c1.359375-.097656 2.734375-.21875 4.113282-.375 28.792968-3.226563 50.761718-18.078125 49.070312-33.175781-1.6875-15.097656-26.402344-24.726563-55.191406-21.5-1.382813.152344-2.75.335937-4.097656.542968l-.011719-.085937c.003906 0-32.746094 2.738281-68.82031275 35.386719zm0 0"/><path d="m24.15625 112.304688c24.796875 41.867187 55.265625 54.179687 55.265625 54.179687l.03125-.078125c1.226563.597656 2.480469 1.175781 3.753906 1.734375 26.546875 11.601563 52.996094 9.726563 59.082031-4.195313 6.085938-13.921874-10.5-34.613281-37.046874-46.21875-1.273438-.554687-2.546876-1.082031-3.816407-1.578124l.03125-.078126c0 .003907-29.734375-14-77.300781-3.765624zm0 0"/><path d="m183.804688.164062c32.539062 36.179688 35.175781 68.9375 35.175781 68.9375l-.082031.011719c.203124 1.347657.378906 2.714844.53125 4.097657 3.136718 28.800781-6.566407 53.480468-21.667969 55.125-15.105469 1.644531-29.890625-20.371094-33.027344-49.175782-.148437-1.378906-.269531-2.753906-.363281-4.113281l-.082032.007813c-.003906 0-4.472656-32.558594 19.515626-74.890626zm0 0"/><path d="m283.265625 16.945312c10.085937 47.601563-4.003906 77.289063-4.003906 77.289063l-.078125-.035156c-.5 1.269531-1.03125 2.542969-1.589844 3.816406-11.6875 26.507813-32.429688 43.03125-46.328125 36.90625-13.902344-6.128906-15.703125-32.589844-4.015625-59.101563.558594-1.269531 1.140625-2.519531 1.742188-3.746093l-.078126-.03125c0-.003907 12.40625-30.433594 54.351563-55.097657zm0 0"/><path d="m364.910156 74.683594c-15.0625 46.265625-42.113281 64.933594-42.113281 64.933594l-.050781-.070313c-1.0625.851563-2.160156 1.6875-3.28125 2.507813-23.375 17.117187-49.597656 21.054687-58.574219 8.796874-8.976563-12.257812 2.699219-36.070312 26.070313-53.1875 1.125-.820312 2.25-1.613281 3.382812-2.371093l-.050781-.070313c.003906 0 25.964843-20.148437 74.617187-20.539062zm0 0"/><path d="m230.207031 427.441406c23.859375-42.40625 19.289063-74.953125 19.289063-74.953125l-.082032.011719c-.097656-1.359375-.21875-2.730469-.375-4.113281-3.226562-28.792969-18.078124-50.761719-33.175781-49.070313-15.097656 1.691406-24.726562 26.402344-21.5 55.195313.152344 1.378906.335938 2.746093.542969 4.09375l-.085938.011719c0-.003907 2.738282 32.746093 35.386719 68.824218zm0 0"/><path d="m323.609375 389.367188c-.539063-48.652344-20.765625-74.554688-20.765625-74.554688l-.070312.050781c-.761719-1.128906-1.558594-2.253906-2.382813-3.375-17.1875-23.324219-41.03125-34.921875-53.261719-25.910156-12.230468 9.015625-8.214844 35.226563 8.976563 58.550781.824219 1.117188 1.664062 2.210938 2.515625 3.273438l-.066406.050781c-.003907.003906 18.742187 26.996094 65.054687 41.914063zm0 0"/><path d="m410.011719 165.746094c-42.40625-23.859375-74.949219-19.289063-74.949219-19.289063l.007812.082031c-1.359374.097657-2.730468.222657-4.113281.375-28.792969 3.226563-50.761719 18.078126-49.070312 33.175782 1.691406 15.097656 26.402343 24.726562 55.195312 21.503906 1.382813-.15625 2.746094-.335938 4.097657-.546875l.007812.085937s32.746094-2.742187 68.824219-35.386718zm0 0"/><path d="m390.691406 315.207031c-24.792968-41.863281-55.261718-54.179687-55.261718-54.179687l-.035157.078125c-1.222656-.59375-2.476562-1.175781-3.75-1.730469-26.546875-11.605469-53-9.726562-59.085937 4.191406-6.082032 13.921875 10.503906 34.617188 37.050781 46.21875 1.273437.558594 2.546875 1.082032 3.816406 1.578125l-.035156.078125c.003906 0 29.734375 14 77.300781 3.765625zm0 0"/><path d="m416.195312 241.613281c-34.785156-34.019531-67.402343-38.03125-67.402343-38.03125l-.011719.082031c-1.339844-.257812-2.695312-.492187-4.070312-.699218-28.644532-4.339844-53.710938 4.320312-55.984376 19.34375-2.273437 15.019531 19.101563 30.714844 47.746094 35.054687 1.375.207031 2.742188.382813 4.097656.53125l-.011718.085938s32.339844 5.828125 75.636718-16.367188zm0 0"/><path d="m129.726562 410.773438c-10.089843-47.597657 4.003907-77.289063 4.003907-77.289063l.078125.035156c.496094-1.269531 1.027344-2.542969 1.585937-3.8125 11.6875-26.511719 32.429688-43.035156 46.332031-36.90625 13.902344 6.128907 15.699219 32.585938 4.011719 59.097657-.558593 1.273437-1.140625 2.519531-1.742187 3.746093l.078125.035157c-.003907 0-12.410157 30.429687-54.347657 55.09375zm0 0"/><path d="m50.464844 350.054688c15.066406-46.265626 42.113281-64.933594 42.113281-64.933594l.050781.070312c1.066406-.851562 2.160156-1.691406 3.28125-2.507812 23.375-17.117188 49.601563-21.054688 58.574219-8.796875 8.976563 12.257812-2.695313 36.070312-26.070313 53.1875-1.121093.820312-2.25 1.613281-3.382812 2.371093l.050781.070313c-.003906 0-25.960937 20.148437-74.617187 20.539063zm0 0"/><path d="m9.816406 286.480469c26.527344-40.789063 57.484375-51.820313 57.484375-51.820313l.027344.078125c1.25-.542969 2.527344-1.066406 3.820313-1.574219 27.007812-10.480468 53.363281-7.5 58.859374 6.664063 5.496094 14.164063-11.945312 34.144531-38.953124 44.628906-1.292969.503907-2.589844.976563-3.878907 1.417969l.027344.078125c.003906 0-30.289063 12.746094-77.386719.527344zm0 0"/><path d="m91.238281 38.144531c.539063 48.65625 20.769531 74.554688 20.769531 74.554688l.066407-.050781c.765625 1.132812 1.558593 2.257812 2.382812 3.378906 17.1875 23.320312 41.035157 34.921875 53.265625 25.910156 12.230469-9.015625 8.214844-35.230469-8.976562-58.550781-.820313-1.121094-1.664063-2.210938-2.515625-3.277344l.066406-.050781s-18.746094-26.992188-65.058594-41.914063zm0 0"/><path d="m.00390625 210.964844c42.40234375 23.859375 74.94921875 19.292968 74.94921875 19.292968l-.011719-.085937c1.359375-.097656 2.734375-.21875 4.113282-.375 28.792968-3.226563 50.761718-18.078125 49.070312-33.175781-1.6875-15.097656-26.402344-24.726563-55.191406-21.5-1.382813.152344-2.75.335937-4.097656.542968l-.011719-.085937c.003906 0-32.746094 2.738281-68.82031275 35.386719zm0 0"/><path d="m24.15625 112.304688c24.796875 41.867187 55.265625 54.179687 55.265625 54.179687l.03125-.078125c1.226563.597656 2.480469 1.175781 3.753906 1.734375 26.546875 11.601563 52.996094 9.726563 59.082031-4.195313 6.085938-13.921874-10.5-34.613281-37.046874-46.21875-1.273438-.554687-2.546876-1.082031-3.816407-1.578124l.03125-.078126c0 .003907-29.734375-14-77.300781-3.765624zm0 0"/><path d="m364.910156 74.683594c-15.0625 46.265625-42.113281 64.933594-42.113281 64.933594l-.050781-.070313c-1.0625.851563-2.160156 1.6875-3.28125 2.507813-23.375 17.117187-49.597656 21.054687-58.574219 8.796874-8.976563-12.257812 2.699219-36.070312 26.070313-53.1875 1.125-.820312 2.25-1.613281 3.382812-2.371093l-.050781-.070313c.003906 0 25.964843-20.148437 74.617187-20.539062zm0 0"/><path d="m230.207031 427.441406c23.859375-42.40625 19.289063-74.953125 19.289063-74.953125l-.082032.011719c-.097656-1.359375-.21875-2.730469-.375-4.113281-3.226562-28.792969-18.078124-50.761719-33.175781-49.070313-15.097656 1.691406-24.726562 26.402344-21.5 55.195313.152344 1.378906.335938 2.746093.542969 4.09375l-.085938.011719c0-.003907 2.738282 32.746093 35.386719 68.824218zm0 0"/><path d="m410.011719 165.746094c-42.40625-23.859375-74.949219-19.289063-74.949219-19.289063l.007812.082031c-1.359374.097657-2.730468.222657-4.113281.375-28.792969 3.226563-50.761719 18.078126-49.070312 33.175782 1.691406 15.097656 26.402343 24.726562 55.195312 21.503906 1.382813-.15625 2.746094-.335938 4.097657-.546875l.007812.085937s32.746094-2.742187 68.824219-35.386718zm0 0"/><path d="m416.195312 241.613281c-34.785156-34.019531-67.402343-38.03125-67.402343-38.03125l-.011719.082031c-1.339844-.257812-2.695312-.492187-4.070312-.699218-28.644532-4.339844-53.710938 4.320312-55.984376 19.34375-2.273437 15.019531 19.101563 30.714844 47.746094 35.054687 1.375.207031 2.742188.382813 4.097656.53125l-.011718.085938s32.339844 5.828125 75.636718-16.367188zm0 0"/><path d="m50.464844 350.054688c15.066406-46.265626 42.113281-64.933594 42.113281-64.933594l.050781.070312c1.066406-.851562 2.160156-1.691406 3.28125-2.507812 23.375-17.117188 49.601563-21.054688 58.574219-8.796875 8.976563 12.257812-2.695313 36.070312-26.070313 53.1875-1.121093.820312-2.25 1.613281-3.382812 2.371093l.050781.070313c-.003906 0-25.960937 20.148437-74.617187 20.539063zm0 0"/></g><path d="m185.734375 79.160156c-.148437-1.382812-.269531-2.753906-.363281-4.117187l-.082032.011719s-3.355468-24.519532 11.425782-58.65625c-3.671875-5.261719-7.9375-10.703126-12.90625-16.230469-23.992188 42.328125-19.519532 74.886719-19.519532 74.886719l.082032-.007813c.09375 1.359375.214844 2.734375.363281 4.113281 3.136719 28.804688 17.921875 50.820313 33.027344 49.175782 3.125-.339844 6.015625-1.683594 8.613281-3.828126-10.097656-7.414062-18.386719-24.625-20.640625-45.347656zm0 0" fill="#ffc34c"/><path d="m325.644531 277.371094c1.277344.558594 2.527344 1.136718 3.753907 1.734375l.035156-.078125s22.820312 9.238281 45.035156 38.863281c5.144531-.597656 10.554688-1.460937 16.226562-2.683594-24.796874-41.867187-55.261718-54.179687-55.261718-54.179687l-.035156.078125c-1.226563-.597657-2.476563-1.175781-3.753907-1.734375-26.542969-11.601563-52.996093-9.726563-59.082031 4.195312-1.515625 3.46875-1.625 7.359375-.519531 11.421875 10.582031-7.570312 32.0625-7.03125 53.601562 2.382813zm0 0" fill="#ffc34c"/><path d="m416.195312 241.613281c-34.785156-34.019531-67.402343-38.03125-67.402343-38.03125l-.011719.082031c-1.339844-.257812-2.695312-.492187-4.070312-.699218-28.644532-4.339844-53.710938 4.320312-55.984376 19.34375-2.273437 15.019531 19.101563 30.714844 47.746094 35.054687 1.375.207031 2.742188.382813 4.097656.53125l-.011718.085938s32.339844 5.828125 75.636718-16.367188zm0 0" fill="#ffd551"/><path d="m245.25 87.820312c.558594-1.273437 1.140625-2.519531 1.742188-3.746093l-.078126-.035157s9.414063-23.058593 39.515626-45.300781c-.527344-6.757812-1.519532-14.03125-3.164063-21.792969-41.941406 24.664063-54.351563 55.097657-54.351563 55.097657l.078126.03125c-.601563 1.226562-1.183594 2.476562-1.742188 3.746093-11.6875 26.511719-9.886719 52.972657 4.015625 59.101563 2.664063 1.171875 5.578125 1.507813 8.628906 1.109375-4.355469-11.578125-2.722656-29.882812 5.355469-48.210938zm0 0" fill="#ffc34c"/><path d="m286.960938 118.664062c1.125-.820312 2.25-1.609374 3.382812-2.371093l-.050781-.066407s22.925781-17.789062 66.058593-20.257812c3.070313-6.328125 5.992188-13.394531 8.558594-21.28125-48.652344.386719-74.613281 20.539062-74.613281 20.539062l.050781.066407c-1.132812.761719-2.261718 1.550781-3.382812 2.371093-22.941406 16.800782-34.597656 40.042969-26.535156 52.488282 4.246093-10.484375 13.59375-22.011719 26.53125-31.488282zm0 0" fill="#ffc34c"/><path d="m284.640625 187.238281c6.699219-10.804687 24.554687-19.886719 46.316406-22.324219 1.382813-.152343 2.753907-.277343 4.113281-.375l-.011718-.085937s25.773437-3.597656 61.320312 12.410156c4.449219-3.257812 9.011719-6.9375 13.628906-11.121093-42.40625-23.859376-74.949218-19.289063-74.949218-19.289063l.007812.085937c-1.359375.09375-2.730468.21875-4.113281.375-28.792969 3.222657-50.761719 18.074219-49.070313 33.175782.289063 2.550781 1.25 4.945312 2.757813 7.148437zm0 0" fill="#ffc34c"/><path d="m344.710938 220.964844c1.375.207031 2.730468.441406 4.070312.699218l.011719-.082031s24.664062 3.042969 53.964843 26.199219c4.339844-1.769531 8.820313-3.800781 13.4375-6.167969-34.785156-34.019531-67.402343-38.03125-67.402343-38.03125l-.011719.082031c-1.339844-.257812-2.695312-.492187-4.070312-.699218-28.648438-4.339844-53.710938 4.320312-55.984376 19.34375-.585937 3.847656.394532 7.742187 2.644532 11.476562 7.511718-10.878906 29.148437-16.484375 53.339844-12.820312zm0 0" fill="#ffc34c"/><path d="m282.550781 347.457031.070313-.050781c-.855469-1.0625-1.695313-2.15625-2.519532-3.273438-17.003906-23.078124-21.109374-48.976562-9.34375-58.25-9.207031-4.191406-17.757812-4.628906-23.628906-.300781-12.230468 9.015625-8.214844 35.226563 8.976563 58.550781.824219 1.117188 1.664062 2.210938 2.515625 3.273438l-.066406.050781s18.746093 26.992188 65.058593 41.910157c-.039062-3.464844-.1875-6.796876-.410156-10.027344-28.601563-14.5625-40.652344-31.882813-40.652344-31.882813zm0 0" fill="#ffc34c"/><path d="m218.820312 358.613281.085938-.007812c-.207031-1.347657-.386719-2.714844-.542969-4.097657-2.4375-21.761718 2.472657-41.183593 11.527344-50.105468-4.402344-3.742188-9.199219-5.628906-14.027344-5.089844-15.097656 1.691406-24.726562 26.402344-21.5 55.195312.152344 1.382813.335938 2.75.542969 4.097657l-.085938.007812s2.742188 32.75 35.386719 68.828125c3.699219-6.578125 6.714844-12.914062 9.167969-18.929687-18.695312-27.84375-20.554688-49.898438-20.554688-49.898438zm0 0" fill="#ffc34c"/><path d="m154.730469 339.484375.078125.035156c.5-1.269531 1.027344-2.542969 1.585937-3.8125 8.179688-18.558593 20.796875-32.210937 32.402344-36.636719-1.832031-2.839843-4.1875-5-7.070313-6.269531-13.902343-6.125-34.644531 10.394531-46.332031 36.90625-.558593 1.269531-1.089843 2.542969-1.585937 3.8125l-.078125-.035156s-14.09375 29.691406-4.003907 77.289063c6.808594-4.003907 12.824219-8.15625 18.148438-12.308594-3.667969-36.773438 6.855469-58.980469 6.855469-58.980469zm0 0" fill="#ffc34c"/><path d="m107.578125 300.121094.050781.070312c1.066406-.851562 2.160156-1.691406 3.28125-2.507812 16.429688-12.03125 34.253906-17.539063 46.523438-15.5-.253906-3.109375-1.210938-5.921875-2.949219-8.296875-8.976563-12.257813-35.199219-8.320313-58.578125 8.796875-1.121094.824218-2.214844 1.660156-3.28125 2.507812l-.050781-.066406s-27.046875 18.664062-42.109375 64.929688c7.679687-.0625 14.792968-.617188 21.332031-1.503907 15.25-34.25 35.78125-48.429687 35.78125-48.429687zm0 0" fill="#ffc34c"/><path d="m39.816406 286.480469c26.527344-40.789063 57.484375-51.820313 57.484375-51.820313l.027344.078125c1.25-.542969 2.527344-1.066406 3.820313-1.574219 5.015624-1.945312 10.003906-3.425781 14.84375-4.457031-11.429688-3.375-28.007813-2.074219-44.84375 4.457031-1.292969.503907-2.570313 1.03125-3.820313 1.574219l-.027344-.078125s-30.957031 11.03125-57.484375 51.820313c22.636719 5.875 41.375 5.972656 54.746094 4.5-7.589844-.78125-15.867188-2.195313-24.746094-4.5zm0 0" fill="#ffc34c"/><path d="m82.21875 229.386719c-13.347656-1.953125-31.609375-6.828125-52.214844-18.421875 33.222656-30.066406 63.605469-34.761719 68.203125-35.320313-7.636719-1.285156-16.253906-1.535156-25.273437-.527343-1.382813.15625-2.75.335937-4.097656.542968l-.011719-.082031s-32.746094 2.738281-68.824219 35.386719c42.40625 23.859375 74.949219 19.289062 74.949219 19.289062l-.011719-.082031c1.359375-.097656 2.734375-.222656 4.113281-.378906 1.070313-.113281 2.125-.253907 3.167969-.40625zm0 0" fill="#ffc34c"/><path d="m107.203125 159.140625c-1.273437-.554687-2.523437-1.132813-3.75-1.730469l-.03125.078125s-27.804687-11.257812-51.902344-48.761719c-8.277343.371094-17.421875 1.441407-27.363281 3.582032 24.796875 41.867187 55.265625 54.179687 55.265625 54.179687l.03125-.078125c1.226563.597656 2.480469 1.175782 3.75 1.730469 24.644531 10.773437 49.195313 9.921875 57.457031-1.394531-9.957031.027344-21.695312-2.464844-33.457031-7.605469zm0 0" fill="#ffc34c"/><path d="m144.460938 116.023438c-.824219-1.121094-1.617188-2.246094-2.382813-3.375l-.066406.050781s-16.523438-21.164063-20.101563-61.15625c-8.464844-4.824219-18.628906-9.519531-30.667968-13.398438.539062 48.652344 20.769531 74.554688 20.769531 74.554688l.066406-.050781c.765625 1.128906 1.558594 2.253906 2.382813 3.375 17.1875 23.324218 41.03125 34.921874 53.265624 25.910156.90625-.667969 1.714844-1.445313 2.445313-2.292969-8.808594-4.933594-17.941406-13.070313-25.710937-23.617187zm0 0" fill="#ffc34c"/><path d="m305.496094 213.871094c0 53.679687-43.515625 97.199218-97.199219 97.199218-53.679687 0-97.199219-43.519531-97.199219-97.199218 0-53.683594 43.519532-97.199219 97.199219-97.199219 53.683594 0 97.199219 43.515625 97.199219 97.199219zm0 0" fill="#bf6c0d"/><path d="m171.683594 224.535156c-5.152344-46.660156 23.628906-89.25 66.621094-103.144531-12.722657-4.136719-26.511719-5.699219-40.671876-4.132813-53.359374 5.890626-91.839843 53.921876-85.945312 107.277344 5.890625 53.359375 53.921875 91.835938 107.277344 85.945313 6.695312-.738281 13.15625-2.140625 19.324218-4.132813-35.210937-11.453125-62.277343-42.617187-66.605468-81.8125zm0 0" fill="#a56021"/><path d="m208.175781 286.078125c-36.796875 0-67.597656-27.636719-71.644531-64.285156-4.367188-39.570313 24.269531-75.316407 63.839844-79.6875 2.671875-.292969 5.378906-.445313 8.042968-.445313 36.796876 0 67.597657 27.636719 71.644532 64.289063 2.117187 19.167969-3.359375 38.015625-15.417969 53.066406-12.054687 15.046875-29.253906 24.503906-48.421875 26.621094-2.667969.292969-5.375.441406-8.042969.441406zm0 0" fill="#a56021"/><path d="m262.160156 213.921875c-3.015625 0-5.617187-2.273437-5.953125-5.34375-2.703125-24.464844-23.246093-42.917969-47.792969-42.917969-3.3125 0-6-2.6875-6-6s2.6875-6 6-6c30.671876 0 56.34375 23.042969 59.714844 53.605469.367188 3.289063-2.011718 6.257813-5.304687 6.621094-.21875.023437-.441407.035156-.664063.035156zm0 0" fill="#bf6c0d"/><path d="m203.007812 285.875c-16.972656-15.378906-28.613281-36.78125-31.324218-61.339844-3.550782-32.179687 9.035156-62.414062 31.289062-82.644531-.867187.0625-1.738281.121094-2.597656.214844-39.570312 4.367187-68.210938 40.117187-63.839844 79.6875 3.851563 34.917969 32 61.632812 66.472656 64.082031zm0 0" fill="#8c4c17"/><path d="m457.953125 272.511719c-69.566406 25.039062-77.84375 60.414062-77.84375 60.414062l.171875.050781c-.535156 1.410157-1.015625 2.855469-1.445312 4.328126-8.941407 30.71875 8.671874 62.914062 39.339843 71.90625 30.664063 8.992187 62.769531-8.621094 71.707031-39.339844.429688-1.472656.796876-2.949219 1.105469-4.429688l.167969.050782c.003906 0 11.996094-34.285157-33.203125-92.980469zm0 0" fill="#ccc033"/><path d="m448.175781 409.210938c-30.667969-8.996094-48.28125-41.1875-39.339843-71.90625.429687-1.472657.910156-2.917969 1.445312-4.328126l-.167969-.050781s6.371094-27.21875 54.890625-50.808593c-2.183594-3.128907-4.519531-6.328126-7.046875-9.609376-69.566406 25.039063-77.84375 60.417969-77.84375 60.417969l.167969.046875c-.535156 1.414063-1.015625 2.855469-1.445312 4.332032-8.941407 30.71875 8.675781 62.910156 39.339843 71.902343 10.597657 3.109375 21.367188 3.035157 31.292969.34375-.433594-.113281-.863281-.214843-1.292969-.339843zm0 0" fill="#99af17"/><path d="m418.496094 414.996094c-.699219 0-1.410156-.101563-2.121094-.304688-3.972656-1.171875-6.246094-5.339844-5.078125-9.3125l21.277344-72.339844c1.171875-3.972656 5.339843-6.242187 9.3125-5.078124 3.972656 1.171874 6.246093 5.339843 5.078125 9.3125l-21.277344 72.339843c-.960938 3.261719-3.949219 5.382813-7.191406 5.382813zm0 0" fill="#eacf32"/><path d="m475.871094 377.980469c0 9.664062-7.835938 17.5-17.5 17.5-9.667969 0-17.5-7.835938-17.5-17.5 0-9.664063 7.832031-17.5 17.5-17.5 9.664062 0 17.5 7.835937 17.5 17.5zm0 0" fill="#99af17"/><path d="m231.90625 259.339844c0 9.664062-7.832031 17.5-17.5 17.5-9.664062 0-17.5-7.835938-17.5-17.5 0-9.664063 7.835938-17.5 17.5-17.5 9.667969 0 17.5 7.835937 17.5 17.5zm0 0" fill="#8c4c17"/></svg>