<svg height="462pt" viewBox="0 -6 462.40735 462" width="462pt" xmlns="http://www.w3.org/2000/svg"><path d="m441.914062 334.335938h.007813c-18.308594-24.683594-147.410156-107.378907-150.160156-109.140626-28.058594-23.449218-54.027344-49.351562-77.566407-77.429687l-77.609374-92.574219c-24.125-28.78125-67.015626-32.550781-95.792969-8.425781-28.78125 24.128906-32.554688 67.019531-8.425781 95.800781l83.359374 99.429688s8.59375 12.429687 35.199219 38.390625c26.835938 27.207031 76.140625 76.863281 91.980469 90.632812 33.890625 31.121094 79.789062 65.726563 123.082031 73.757813.023438.003906.050781.007812.074219.011718 29.257812 13.457032 64.847656 4.558594 84.007812-22.742187 19.429688-27.695313 15.316407-64.84375-8.15625-87.710937zm0 0" fill="#ccc033"/><path d="m414.066406 338.335938c-1.347656 0-2.703125-.453126-3.824218-1.378907-27.328126-22.636719-85.695313-62.292969-131.414063-91.546875l-.957031-.613281c-.214844-.136719-.421875-.289063-.617188-.453125l-.875-.730469c-2.542968-2.125-2.882812-5.90625-.761718-8.453125 2.125-2.539062 5.910156-2.878906 8.453124-.757812l1.222657.894531c46.03125 29.457031 104.882812 69.457031 132.605469 92.417969 2.550781 2.113281 2.90625 5.894531.792968 8.449218-1.191406 1.429688-2.898437 2.171876-4.625 2.171876zm0 0" fill="#eacf32"/><path d="m418.640625 441.753906c-5.191406 0-10.203125-1.085937-14.898437-3.226562l-4.207032-1.921875-4.167968-.664063c-29.253907-5.507812-68.03125-29.207031-109.242188-66.769531l-.339844-.308594-.347656-.300781c-11.191406-9.652344-44.898438-42.65625-92.492188-90.546875l-.457031-.453125c-22.320312-21.617188-30.992187-32.941406-32.003906-34.289062l-.960937-1.441407-.855469-.910156-85.535157-101.277344c-6.160156-7.296875-9.09375-16.539062-8.253906-26.023437.839844-9.488282 5.351563-18.078125 12.703125-24.199219 8.277344-6.882813 17.09375-8.332031 23.039063-8.332031 10.671875 0 20.714844 4.648437 27.554687 12.75l79.636719 94.289062c25.324219 29.984375 53.527344 57.929688 83.832031 83.066406l1.652344 1.367188 1.8125 1.148438c1.371094.871093 34.03125 21.636718 69.046875 45.484374 35.554688 24.210938 54.757812 38.832032 64.996094 47.28125l14.648437 14.167969c12.652344 12.234375 14.453125 31.558594 4.28125 45.949219-6.714843 9.492188-17.71875 15.160156-29.441406 15.160156zm0 0" fill="#fcda4f"/><path d="m396.0625 393.789062c-.023438-.003906-.046875-.007812-.074219-.011718-43.292969-8.03125-89.191406-42.636719-123.082031-73.757813-15.839844-13.769531-65.144531-63.425781-91.980469-90.632812-26.605469-25.960938-35.199219-38.390625-35.199219-38.390625l-83.359374-99.429688c-11.96875-14.277344-17.0625-32.023437-15.65625-49.234375-2.027344 1.359375-4.007813 2.832031-5.917969 4.433594-28.78125 24.128906-32.554688 67.019531-8.425781 95.800781l83.359374 99.429688s8.59375 12.429687 35.199219 38.390625c26.835938 27.207031 76.140625 76.863281 91.980469 90.628906 33.890625 31.121094 79.789062 65.730469 123.082031 73.757813.023438.003906.050781.007812.074219.011718 29.257812 13.457032 64.847656 4.558594 84.007812-22.742187 7.207032-10.273438 11.167969-21.847657 12.109376-33.511719-19.359376 12.921875-44.46875 15.214844-66.117188 5.257812zm0 0" fill="#99af17"/><path d="m452.476562 393.910156c-17.609374 7.957032-38.230468 8.242188-56.414062-.121094-.023438-.003906-.046875-.007812-.074219-.011718-43.292969-8.03125-89.191406-42.636719-123.082031-73.757813-15.839844-13.769531-65.144531-63.425781-91.980469-90.632812-26.605469-25.960938-35.199219-38.390625-35.199219-38.390625l-76.59375-91.359375c-2.347656 4.261719-3.8125 8.996093-4.253906 13.984375-.839844 9.484375 2.089844 18.726562 8.253906 26.023437l85.535157 101.277344.855469.910156.960937 1.4375c1.007813 1.351563 9.683594 12.675781 32 34.292969l.460937.449219c47.589844 47.894531 81.300782 80.894531 92.488282 90.546875l.347656.300781.339844.308594c41.214844 37.566406 79.992187 61.265625 109.242187 66.773437l4.167969.664063 4.210938 1.921875c4.691406 2.140625 9.703124 3.226562 14.898437 3.226562 5.296875 0 10.445313-1.167968 15.121094-3.316406 6.167969-4.375 11.710937-9.851562 16.304687-16.394531.804688-1.144531 1.558594-2.304688 2.277344-3.476563 3.046875-8.019531 3.042969-16.765625.132812-24.65625zm0 0" fill="#ccc033"/><path d="m75.566406 64.664062-26.9375 20.652344-45.035156-57.699218c-5.800781-7.433594-4.433594-18.171876 3.050781-23.910157 7.394531-5.667969 17.972657-4.316406 23.707031 3.027344zm0 0" fill="#ccc033"/><path d="m24.59375 27.617188c-5.753906-7.371094-4.445312-17.984376 2.875-23.757813-5.957031-4.699219-14.539062-4.972656-20.824219-.152344-7.484375 5.738281-8.851562 16.476563-3.050781 23.910157l45.035156 57.699218 13.140625-10.074218zm0 0" fill="#99af17"/><path d="m108.609375 36.578125c-15.414063-19.734375-43.90625-23.238281-63.640625-7.824219l-19.957031 15.582032c-19.730469 15.414062-23.234375 43.910156-7.820313 63.644531 6.140625 7.863281 17.5 9.261719 25.363282 3.117187 0 0 39.355468-15.054687 62.9375-49.152344 7.863281-6.144531 9.261718-17.5 3.117187-25.367187zm0 0" fill="#eacf32"/><g fill="#ccc033"><path d="m47.1875 107.980469c-15.414062-19.734375-11.910156-48.230469 7.824219-63.644531l19.953125-15.582032c4-3.125 8.363281-5.457031 12.902344-7.046875-14.074219-4.917969-30.277344-2.8125-42.902344 7.046875l-19.953125 15.582032c-19.734375 15.414062-23.238281 43.910156-7.824219 63.644531 6.144531 7.863281 17.5 9.261719 25.367188 3.117187 0 0 1.984374-.757812 5.324218-2.320312-.230468-.265625-.472656-.519532-.691406-.796875zm0 0"/><path d="m79.269531 71.96875c0 9.664062-7.835937 17.5-17.5 17.5-9.667969 0-17.5-7.835938-17.5-17.5s7.832031-17.5 17.5-17.5c9.664063 0 17.5 7.835938 17.5 17.5zm0 0"/></g></svg>