<?xml version="1.0" encoding="UTF-8" standalone="no"?>
<!-- Generator: Adobe Illustrator 18.0.0, SVG Export Plug-In . SVG Version: 6.00 Build 0)  -->

<svg
   xmlns:dc="http://purl.org/dc/elements/1.1/"
   xmlns:cc="http://creativecommons.org/ns#"
   xmlns:rdf="http://www.w3.org/1999/02/22-rdf-syntax-ns#"
   xmlns:svg="http://www.w3.org/2000/svg"
   xmlns="http://www.w3.org/2000/svg"
   xmlns:sodipodi="http://sodipodi.sourceforge.net/DTD/sodipodi-0.dtd"
   xmlns:inkscape="http://www.inkscape.org/namespaces/inkscape"
   version="1.1"
   id="Capa_1"
   x="0px"
   y="0px"
   viewBox="0 0 56 56"
   style="enable-background:new 0 0 56 56;"
   xml:space="preserve"
   sodipodi:docname="blueberry_2.svg"
   inkscape:version="0.92.4 (5da689c313, 2019-01-14)"><metadata
   id="metadata59"><rdf:RDF><cc:Work
       rdf:about=""><dc:format>image/svg+xml</dc:format><dc:type
         rdf:resource="http://purl.org/dc/dcmitype/StillImage" /></cc:Work></rdf:RDF></metadata><defs
   id="defs57">
	
	
	
	
	
	
	
	
</defs><sodipodi:namedview
   pagecolor="#ffffff"
   bordercolor="#666666"
   borderopacity="1"
   objecttolerance="10"
   gridtolerance="10"
   guidetolerance="10"
   inkscape:pageopacity="0"
   inkscape:pageshadow="2"
   inkscape:window-width="1920"
   inkscape:window-height="1017"
   id="namedview55"
   showgrid="false"
   inkscape:zoom="4.2142857"
   inkscape:cx="-10.559322"
   inkscape:cy="28"
   inkscape:window-x="-8"
   inkscape:window-y="-8"
   inkscape:window-maximized="1"
   inkscape:current-layer="Capa_1" />
<path
   inkscape:connector-curvature="0"
   id="path2"
   d="M 47.156,32 C 48.572,31.005 49.5,29.362 49.5,27.5 49.5,25.362 48.277,23.513 46.495,22.603 46.496,22.568 46.5,22.535 46.5,22.5 46.5,19.922 44.724,17.765 42.331,17.169 41.735,14.776 39.578,13 37,13 34.563,13 32.5,14.586 31.778,16.782 30.831,15.122 29.048,14 27,14 25.138,14 23.495,14.928 22.5,16.344 21.505,14.928 19.862,14 18,14 15.83,14 13.959,15.26 13.064,17.085 10.473,17.53 8.5,19.782 8.5,22.5 c 0,0.55 0.083,1.081 0.234,1.582 C 7.381,25.084 6.5,26.687 6.5,28.5 c 0,1.839 0.906,3.463 2.292,4.461 C 7.987,33.918 7.5,35.152 7.5,36.5 c 0,2.744 2.012,5.013 4.641,5.426 -0.408,0.768 -0.641,1.644 -0.641,2.574 0,2.578 1.776,4.735 4.169,5.331 C 16.265,52.224 18.422,54 21,54 22.159,54 23.232,53.64 24.119,53.028 25.034,54.792 26.875,56 29,56 30.947,56 32.654,54.985 33.632,53.458 34.35,53.802 35.151,54 36,54 38.877,54 41.234,51.79 41.476,48.976 44.29,48.734 46.5,46.377 46.5,43.5 46.5,42.818 46.37,42.169 46.144,41.566 48.116,40.73 49.5,38.777 49.5,36.5 49.5,34.638 48.572,32.995 47.156,32 Z"
   style="fill:#0000ff" /><g
   id="g8">
		<path
   inkscape:connector-curvature="0"
   id="path4"
   d="m 26.976,0 c 0,0 0.043,0.016 0.106,0.041 C 27.144,0.016 27.187,0 27.187,0 Z"
   style="fill:#659c35" />
		<path
   inkscape:connector-curvature="0"
   id="path6"
   d="M 13.605,16.221 C 14.607,14.879 16.196,14 18,14 c 1.862,0 3.505,0.928 4.5,2.344 C 23.495,14.928 25.138,14 27,14 c 2.048,0 3.831,1.122 4.778,2.782 C 32.5,14.586 34.563,13 37,13 c 1.929,0 3.621,0.995 4.601,2.498 C 43.925,13.774 45.651,11.593 46.5,9 36.575,5.625 33.484,10 33.484,10 32.883,2.606 27.843,0.342 27.082,0.041 26.319,0.342 21.28,2.606 20.679,10 c 0,0 -3.091,-4.375 -13.016,-1 0.972,2.969 3.087,5.402 5.942,7.221 z"
   style="fill:#659c35" />
	</g><path
   inkscape:connector-curvature="0"
   id="path10"
   d="m 16.357,28.997 c -1.243,0 -2.535,-0.461 -3.593,-1.61 -0.374,-0.406 -0.348,-1.039 0.059,-1.413 0.406,-0.375 1.039,-0.348 1.413,0.059 1.206,1.309 2.798,1.089 3.796,0.502 0.992,-0.584 1.954,-1.864 1.396,-3.548 -0.174,-0.524 0.111,-1.09 0.635,-1.263 0.525,-0.173 1.09,0.111 1.263,0.635 0.872,2.635 -0.517,4.862 -2.281,5.9 -0.775,0.456 -1.716,0.738 -2.688,0.738 z"
   style="fill:#8080ff" /><path
   inkscape:connector-curvature="0"
   id="path12"
   d="m 37.264,41.325 c -1.243,0 -2.535,-0.461 -3.593,-1.61 -0.374,-0.406 -0.348,-1.039 0.059,-1.413 0.407,-0.375 1.039,-0.348 1.413,0.059 1.206,1.309 2.799,1.088 3.796,0.502 0.992,-0.584 1.954,-1.864 1.396,-3.548 -0.174,-0.524 0.111,-1.09 0.635,-1.263 0.524,-0.175 1.09,0.111 1.263,0.635 0.872,2.635 -0.517,4.862 -2.281,5.9 -0.775,0.456 -1.716,0.738 -2.688,0.738 z"
   style="fill:#8080ff" /><path
   inkscape:connector-curvature="0"
   id="path14"
   d="m 20.698,41.998 c -0.227,0 -0.45,-0.014 -0.669,-0.042 -2.037,-0.259 -4.198,-1.762 -4.436,-4.534 -0.047,-0.55 0.36,-1.035 0.911,-1.082 0.549,-0.048 1.035,0.36 1.082,0.911 0.152,1.774 1.547,2.574 2.696,2.721 1.142,0.141 2.686,-0.279 3.276,-1.952 0.183,-0.521 0.756,-0.796 1.275,-0.61 0.521,0.184 0.794,0.754 0.61,1.275 -0.823,2.336 -2.872,3.313 -4.745,3.313 z"
   style="fill:#8080ff" /><path
   inkscape:connector-curvature="0"
   id="path16"
   d="m 29.698,32.661 c -0.227,0 -0.45,-0.014 -0.669,-0.042 -2.036,-0.26 -4.197,-1.762 -4.435,-4.534 -0.047,-0.55 0.36,-1.035 0.911,-1.082 0.548,-0.047 1.035,0.36 1.082,0.911 0.152,1.774 1.547,2.574 2.696,2.72 1.142,0.147 2.686,-0.278 3.276,-1.952 0.183,-0.521 0.756,-0.796 1.275,-0.61 0.521,0.184 0.794,0.754 0.61,1.275 -0.824,2.337 -2.873,3.314 -4.746,3.314 z"
   style="fill:#8080ff" /><path
   inkscape:connector-curvature="0"
   id="path18"
   d="m 28.461,50.169 c -1.303,0 -2.657,-0.5 -3.722,-1.751 -0.358,-0.42 -0.308,-1.052 0.113,-1.41 0.419,-0.358 1.052,-0.308 1.41,0.113 1.155,1.356 2.755,1.195 3.774,0.648 1.014,-0.545 2.024,-1.787 1.532,-3.492 -0.153,-0.531 0.153,-1.085 0.684,-1.238 0.531,-0.153 1.085,0.153 1.238,0.684 0.77,2.667 -0.704,4.839 -2.507,5.808 -0.74,0.397 -1.619,0.638 -2.522,0.638 z"
   style="fill:#8080ff" /><path
   inkscape:connector-curvature="0"
   id="path20"
   d="m 40.633,26.996 c -0.958,0 -1.886,-0.274 -2.653,-0.72 -1.776,-1.03 -3.184,-3.254 -2.326,-5.9 0.169,-0.525 0.736,-0.813 1.259,-0.643 0.525,0.17 0.813,0.734 0.643,1.259 -0.549,1.694 0.426,2.973 1.427,3.554 0.996,0.579 2.583,0.788 3.777,-0.526 0.372,-0.407 1.003,-0.439 1.413,-0.067 0.409,0.372 0.438,1.004 0.067,1.413 -1.058,1.163 -2.357,1.63 -3.607,1.63 z"
   style="fill:#8080ff" />
<g
   id="g24">
</g>
<g
   id="g26">
</g>
<g
   id="g28">
</g>
<g
   id="g30">
</g>
<g
   id="g32">
</g>
<g
   id="g34">
</g>
<g
   id="g36">
</g>
<g
   id="g38">
</g>
<g
   id="g40">
</g>
<g
   id="g42">
</g>
<g
   id="g44">
</g>
<g
   id="g46">
</g>
<g
   id="g48">
</g>
<g
   id="g50">
</g>
<g
   id="g52">
</g>
</svg>