<?xml version="1.0" encoding="iso-8859-1"?>
<!-- Generator: Adobe Illustrator 19.0.0, SVG Export Plug-In . SVG Version: 6.00 Build 0)  -->
<svg version="1.1" id="Layer_1" xmlns="http://www.w3.org/2000/svg" xmlns:xlink="http://www.w3.org/1999/xlink" x="0px" y="0px"
	 viewBox="0 0 511.983 511.983" style="enable-background:new 0 0 511.983 511.983;" xml:space="preserve">
<path style="fill:#81AF46;" d="M102.043,249.085c-67.834,22.593-60.381,69.733-60.381,69.733l5.757,35.593l10,12l66.67-9.094
	l66.233-48.311v-46.188C190.323,262.819,169.3,226.679,102.043,249.085z"/>
<path style="opacity:0.1;enable-background:new    ;" d="M109.465,246.804c-2.414,0.672-4.883,1.438-7.422,2.281
	c-9.828,3.266-18.07,7.062-24.992,11.156c-1.75,5.109-2.969,10.641-3.289,16.531c-0.961,17.562,5.961,34.203,20.585,49.437
	l15.391-14.765c-10.328-10.766-15.266-22-14.688-33.375C95.746,264.553,103.903,253.101,109.465,246.804z"/>
<path style="fill:#81AF46;" d="M416.786,58.402c-65.201-29.343-95.998-4.141-95.998-4.141l-15.828,75.264
	c0,0,49.781,43.109,51.562,43.109s113.325,3.343,113.325,3.343l16.577-42.405C486.425,133.572,481.425,87.494,416.786,58.402z"/>
<path style="opacity:0.1;enable-background:new    ;" d="M375.021,109.323c1.875-19.391,14.968-31.75,40.03-37.78
	c7.25-1.734,14.469-2.641,20.828-3.094c-5.703-3.5-12.047-6.875-19.094-10.047c-4.812-2.172-9.438-4.031-13.891-5.625
	c-11.297,3.484-20.827,8.422-28.39,14.734c-12.171,10.125-19.14,23.515-20.718,39.765L375.021,109.323z"/>
<path style="fill:#8CC153;" d="M204.19,231.366C177.8,233.897,56.865,379.207,64.169,425.863
	c7.296,46.671,90.037,61.858,158.715,19.874C319.616,386.598,230.587,228.851,204.19,231.366z"/>
<path style="fill:#A0D468;" d="M199.143,350.192C178.12,318.193,19.451,283.038,2.998,309.491
	c-16.46,26.452,36.46,171.934,119.662,169.293C255.938,474.565,220.166,382.208,199.143,350.192z"/>
<path style="fill:#8CC153;" d="M506.878,113.057c-21.125-16.031-211.495,10.453-237.729,49.702
	c-26.242,39.265,24.327,106.498,103.278,122.154C483.643,306.96,528.003,129.087,506.878,113.057z"/>
<path style="fill:#A0D468;" d="M416.661,212.117c6.234-37.796-82.232-186.917-112.248-178.621
	c-30.029,8.296-91.075,153.387-28.108,207.824C377.193,328.521,410.442,249.898,416.661,212.117z"/>
<g>
</g>
<g>
</g>
<g>
</g>
<g>
</g>
<g>
</g>
<g>
</g>
<g>
</g>
<g>
</g>
<g>
</g>
<g>
</g>
<g>
</g>
<g>
</g>
<g>
</g>
<g>
</g>
<g>
</g>
</svg>
