<svg xmlns="http://www.w3.org/2000/svg" viewBox="0 0 512 640" x="0px" y="0px"><defs><style>.cls-1{fill:none;stroke:#000;stroke-linecap:round;stroke-linejoin:round;stroke-width:20px;}</style></defs><title>coriander-vegetable-vegan-healthy-vegetarian-organic</title><path class="cls-1" d="M254.66,10.51S238.17,12.18,233,33.06c0,0-16.42-15-29.53,0-11.74,13.45,0,29.24,0,29.24S174.93,54.37,174,83c-1.05,31.35,46.57,25.88,41.19,70.85-5.51,46.14-39.64-20.56-55.28-21.39s-17.37,15-17.37,15-9.71-14.43-22.07-11.8c-14.81,3.16-16.68,16.92-13.55,27.67,0,0-17.65-.22-19.2,17.88-1.57,18.28,20,20.68,20,20.68s-7.71,11.44-3.62,23.78c10.1,30.46,90.72-6.38,97.82,33.53,7.65,42.95-60.12,32.92-80.52,23-16.75-8.09-34.14-18.11-45.43-12.27s-6.08,20.05-6.08,20.05-21.72-.84-22.59,14.2S62.9,321.8,62.9,321.8s-20,9.18-15.68,22.55,23.49,8.35,23.49,8.35-18.24,15-6.08,25.89S197.89,338.76,255,428.13C312,338.76,433.1,389.45,445.26,378.59s-6.08-25.89-6.08-25.89,19.11,5,23.49-8.35S447,321.8,447,321.8s16.51-2.51,15.64-17.54-22.59-14.2-22.59-14.2,5.21-14.2-6.08-20.05-28.69,4.18-45.43,12.27c-20.41,9.87-88.17,19.9-80.53-23,7.11-39.91,87.73-3.07,97.82-33.53,4.09-12.34-3.62-23.78-3.62-23.78s21.57-2.4,20-20.68c-1.56-18.1-19.2-17.88-19.2-17.88,3.13-10.75,1.26-24.51-13.56-27.67-12.35-2.63-22.06,11.8-22.06,11.8s-1.74-15.87-17.38-15S300.26,200,294.74,153.85c-5.38-45,42.25-39.5,41.19-70.85-1-28.63-29.45-20.7-29.45-20.7s11.74-15.79,0-29.24c-13.12-15-29.54,0-29.54,0-5.21-20.88-21.7-22.55-21.7-22.55"/><line class="cls-1" x1="254.95" y1="428.13" x2="254.95" y2="500.9"/><text x="0" y="527" fill="#000000" font-size="5px" font-weight="bold" font-family="'Helvetica Neue', Helvetica, Arial-Unicode, Arial, Sans-serif">Created by AomAm</text><text x="0" y="532" fill="#000000" font-size="5px" font-weight="bold" font-family="'Helvetica Neue', Helvetica, Arial-Unicode, Arial, Sans-serif">from the Noun Project</text></svg>