<?xml version="1.0" encoding="iso-8859-1"?>
<!-- Generator: Adobe Illustrator 19.0.0, SVG Export Plug-In . SVG Version: 6.00 Build 0)  -->
<svg version="1.1" id="Capa_1" xmlns="http://www.w3.org/2000/svg" xmlns:xlink="http://www.w3.org/1999/xlink" x="0px" y="0px"
	 viewBox="0 0 512 512" style="enable-background:new 0 0 512 512;" xml:space="preserve">
<polygon style="fill:#BDF052;" points="512,63.125 460.587,129.818 436.765,111.451 437.958,109.907 420.062,92.02 402.085,74.044 
	400.541,75.227 382.184,51.405 448.866,0.002 480.488,31.614 "/>
<polygon style="fill:#92D700;" points="512,63.125 460.587,129.818 436.765,111.451 437.958,109.907 420.062,92.02 480.488,31.614 
	"/>
<path style="fill:#11A892;" d="M461.068,149.589c-5.955,22.157-33.788,48.836-72.297,85.752
	c-39.753,38.099-89.221,85.511-119.339,135.3c-34.74,57.439-90.655,128.362-159.724,140.013c-5.354,0.902-10.688,1.343-15.971,1.343
	c-24.644,0-48.095-9.675-66.081-27.662l-0.01-0.01C5.819,462.5-3.766,432.602,1.347,402.294
	C12.998,333.215,83.921,277.3,141.36,242.56c49.779-30.108,97.202-79.576,135.3-119.329c36.916-38.52,63.585-66.342,85.752-72.307
	c42.691-11.47,68.136,15.57,74.774,23.882c0.02,0.01,0.03,0.03,0.05,0.04C445.618,81.553,472.528,106.979,461.068,149.589z"/>
<path style="fill:#0F9887;" d="M461.068,149.589c-5.955,22.157-33.788,48.836-72.297,85.752
	c-39.753,38.099-89.221,85.511-119.339,135.3c-34.74,57.439-90.655,128.362-159.724,140.013c-5.354,0.902-10.688,1.343-15.971,1.343
	c-24.644,0-48.095-9.675-66.081-27.662l-0.01-0.01l409.591-409.48C445.618,81.553,472.528,106.979,461.068,149.589z"/>
<g>
</g>
<g>
</g>
<g>
</g>
<g>
</g>
<g>
</g>
<g>
</g>
<g>
</g>
<g>
</g>
<g>
</g>
<g>
</g>
<g>
</g>
<g>
</g>
<g>
</g>
<g>
</g>
<g>
</g>
</svg>
