<?xml version="1.0" encoding="UTF-8" standalone="no"?>
<svg
   xmlns:dc="http://purl.org/dc/elements/1.1/"
   xmlns:cc="http://creativecommons.org/ns#"
   xmlns:rdf="http://www.w3.org/1999/02/22-rdf-syntax-ns#"
   xmlns:svg="http://www.w3.org/2000/svg"
   xmlns="http://www.w3.org/2000/svg"
   xmlns:sodipodi="http://sodipodi.sourceforge.net/DTD/sodipodi-0.dtd"
   xmlns:inkscape="http://www.inkscape.org/namespaces/inkscape"
   data-name="Layer 1"
   viewBox="0 0 100 125"
   x="0px"
   y="0px"
   version="1.1"
   id="svg16"
   sodipodi:docname="currants_red.svg"
   inkscape:version="0.92.4 (5da689c313, 2019-01-14)">
  <metadata
     id="metadata22">
    <rdf:RDF>
      <cc:Work
         rdf:about="">
        <dc:format>image/svg+xml</dc:format>
        <dc:type
           rdf:resource="http://purl.org/dc/dcmitype/StillImage" />
      </cc:Work>
    </rdf:RDF>
  </metadata>
  <defs
     id="defs20" />
  <sodipodi:namedview
     pagecolor="#ffffff"
     bordercolor="#666666"
     borderopacity="1"
     objecttolerance="10"
     gridtolerance="10"
     guidetolerance="10"
     inkscape:pageopacity="0"
     inkscape:pageshadow="2"
     inkscape:window-width="1920"
     inkscape:window-height="1017"
     id="namedview18"
     showgrid="false"
     inkscape:zoom="5.3400704"
     inkscape:cx="46.920451"
     inkscape:cy="49.866094"
     inkscape:window-x="-8"
     inkscape:window-y="-8"
     inkscape:window-maximized="1"
     inkscape:current-layer="svg16" />
  <title
     id="title2">Currant</title>
  <path
     d="M24,47.31c-.07.19-.15.38-.21.57-1.73,5.43.12,10.63,4.61,13.28A14.06,14.06,0,0,0,23.63,71,14.58,14.58,0,0,0,36.76,86.84c.47,0,.93.07,1.39.07a14.46,14.46,0,0,0,4-.56,11.74,11.74,0,0,0,10.69,10c.27,0,.55,0,.82,0a11.28,11.28,0,0,0,7.8-3.29,13.4,13.4,0,0,0,3.9-7.17,13.34,13.34,0,0,0,3.65.52,13.62,13.62,0,0,0,2.32-.2,13.46,13.46,0,1,0-7.8-25.53c0-.45.07-.91.07-1.37a13.91,13.91,0,0,0-.88-4.83,11.82,11.82,0,0,0,6.71,2.12,11.75,11.75,0,1,0-4.94-22.42,28.15,28.15,0,0,0-12.5-6.67A73,73,0,0,0,35,3.41l-.72-.62L30.9,6.28,38,13.53a18.93,18.93,0,0,1-2.48,11.61,16.49,16.49,0,0,0-8.16-10.49l-1.08-.58-1.36,4.57c-1.27-.32-3.35-.7-4.58-.18l-4.77,1.34.44,1c.1.24,2.27,5.34,6.46,8.06-1.68,1.3-4.36,3.5-5,4.76l-.52,1,1.26.49L16,39.06l1.49.69a14.34,14.34,0,0,0-1.56,6.59v.89l.88.11a37.29,37.29,0,0,0,4,.23A19.92,19.92,0,0,0,24,47.31Zm1.69,1.18A9.76,9.76,0,0,1,38,42.16a8.58,8.58,0,0,1,5.48,4.59,14,14,0,0,0-7.85,11.59,13.48,13.48,0,0,0-5.37,1.58l0,0C26,57.89,24.18,53.31,25.71,48.5ZM45.43,38.43c1.1-.39,2.37-1,2.7-1.15l.55-.26a32,32,0,0,1,.93,8.32h-.05a13.94,13.94,0,0,0-4.26.67,11.34,11.34,0,0,0-1-1.74l1.37-.2.17-.64A8.51,8.51,0,0,0,45.43,38.43ZM39.29,27.88a19,19,0,0,0,2.89-6.82,41.78,41.78,0,0,1,5.36,11.56c.29,1,.53,1.88.75,2.74A14.73,14.73,0,0,0,39.29,27.88Zm14.34,6c1.89.66,4.75,1.94,6.29,4a11.78,11.78,0,0,0-1.8,10.38,14,14,0,0,0-3.19-1.87A37.2,37.2,0,0,0,53.63,33.86Zm7.93,25.48a12,12,0,1,1-12-12A12,12,0,0,1,61.56,59.34ZM55.53,73c-.29,0-.57-.09-.86-.11a11.92,11.92,0,0,0-1.71,0A13.87,13.87,0,0,0,55.57,72C55.54,72.32,55.53,72.67,55.53,73ZM36.95,84.85A12.58,12.58,0,0,1,25.62,71.16C26.2,65,30,60.94,35.61,60.35A14,14,0,0,0,45.79,72.81a12.52,12.52,0,0,1,.07,1.7,10.82,10.82,0,0,1-.27,2.16,7.7,7.7,0,0,1-.81,2,5.74,5.74,0,0,1-1.54,1.63A6,6,0,0,0,45.19,79a8.45,8.45,0,0,0,1.35-2,12.05,12.05,0,0,0,.82-2.29,15.53,15.53,0,0,0,.29-1.54,14,14,0,0,0,1.92.15c.36,0,.71,0,1.06-.05l0,.09a1.43,1.43,0,0,1,0,.14A12.57,12.57,0,0,1,36.95,84.85ZM60,91.65A9.18,9.18,0,0,1,53,94.36,9.74,9.74,0,0,1,44,85.66a14.63,14.63,0,0,0,3.38-2.09,14.45,14.45,0,0,0,5-8.58,8.81,8.81,0,0,1,3.25.1c0,.07,0,.14,0,.21a13.39,13.39,0,0,0,5,8.26h0a9.6,9.6,0,0,1-.11,2.11,9.37,9.37,0,0,1-.58,2.1,6.77,6.77,0,0,1-1.17,1.86A6.36,6.36,0,0,1,57,91a6.62,6.62,0,0,0,2.14-1,7.51,7.51,0,0,0,1.7-1.74A10.61,10.61,0,0,0,62,86.06a13.28,13.28,0,0,0,.44-1.34c.32.18.64.34,1,.49A11.33,11.33,0,0,1,60,91.65Zm7-30a11.48,11.48,0,1,1-9.24,9A14,14,0,0,0,63,63.21,11.39,11.39,0,0,1,67,61.69Zm2.36-26.58a9.77,9.77,0,1,1-4.48,1.1A9.77,9.77,0,0,1,69.36,35.11ZM39.89,12.94l0-.33L33.69,6.27l.69-.71A73.4,73.4,0,0,1,50.31,28.8l.21.49.53.1a26.85,26.85,0,0,1,11.59,5.86,11.66,11.66,0,0,0-1.37,1.12c-3-3.64-8.79-5-9-5l-1.91-.42.77,1.79c2,4.71,2,10.8,1.89,13a13.86,13.86,0,0,0-1.37-.27c.08-1.26.15-5.69-2.15-13.45-2.7-9.11-7-14-7.21-14.22L40.64,16l-.14,2.4a16.91,16.91,0,0,1-3.06,8.61l-.24.38-.74-.09A20.79,20.79,0,0,0,39.89,12.94ZM18.75,38.15l2.26-4-1.09-.43a49,49,0,0,1,4.93-4.11l1.36-1-1.54-.71c-3.25-1.5-5.44-5-6.36-6.77l2.6-.73.16-.06c.61-.28,2.66,0,4.2.52l1,.3L27.43,17A15,15,0,0,1,34,28c-1.29,1.66-8,10-15.84,15.85a11.2,11.2,0,0,1,1.54-3.94l.73-1Zm.49,7.37A92.45,92.45,0,0,0,35.51,29.28a12.46,12.46,0,0,1,10.81,6.63,13.84,13.84,0,0,1-2.39.88L42.47,37l.71,1.29a7.71,7.71,0,0,1,.84,4l-1.35.2A11.81,11.81,0,0,0,25.25,44.9l-.44.17A16.46,16.46,0,0,1,19.24,45.51Z"
     id="path4" />
  <path
     d="M75.72,44.41a10.06,10.06,0,0,1-.25,3.43,5.94,5.94,0,0,1-.25.88l-.26.91a19.28,19.28,0,0,0-.63,1.87,14.08,14.08,0,0,0,1.49-1.39,11.42,11.42,0,0,0,1.12-1.74,7.53,7.53,0,0,0,.76-4.21,6.87,6.87,0,0,0-1.85-3.9,7.06,7.06,0,0,0-3.52-2.09,19.42,19.42,0,0,1,2.28,3A8.2,8.2,0,0,1,75.72,44.41Z"
     id="path6" />
  <path
     d="M57.55,58.74a10.06,10.06,0,0,1-.25,3.43,5.93,5.93,0,0,1-.25.88L56.8,64a19.28,19.28,0,0,0-.63,1.87,14.09,14.09,0,0,0,1.49-1.39,11.42,11.42,0,0,0,1.12-1.74,7.53,7.53,0,0,0,.76-4.21,6.87,6.87,0,0,0-1.85-3.9,7.06,7.06,0,0,0-3.52-2.09,19.42,19.42,0,0,1,2.28,3A8.2,8.2,0,0,1,57.55,58.74Z"
     id="path8" />
  <path
     d="M76.55,72.07a10.06,10.06,0,0,1-.25,3.43,5.93,5.93,0,0,1-.25.88l-.26.91a19.27,19.27,0,0,0-.63,1.87,14.1,14.1,0,0,0,1.49-1.39A11.42,11.42,0,0,0,77.77,76a7.53,7.53,0,0,0,.76-4.21,6.87,6.87,0,0,0-1.85-3.9,7.06,7.06,0,0,0-3.52-2.09,19.43,19.43,0,0,1,2.28,3A8.2,8.2,0,0,1,76.55,72.07Z"
     id="path10" />
  <path
     style="fill:#c83771;fill-opacity:1;stroke:none;stroke-width:0;stroke-miterlimit:4;stroke-dasharray:none"
     d="m 47.620147,71.122054 c -4.435398,-0.698676 -8.447518,-4.415584 -9.596726,-8.8906 -0.340297,-1.325117 -0.393452,-4.120004 -0.102633,-5.396474 0.915542,-4.018523 3.842504,-7.312114 7.733063,-8.7017 1.780494,-0.635937 4.899632,-0.793197 6.711468,-0.338378 4.091787,1.027147 7.656961,4.499829 8.669021,8.444122 0.47099,1.83558 0.54492,3.407938 0.239851,5.101237 -1.159614,6.436494 -7.239598,10.792212 -13.654044,9.781793 z m 9.634076,-6.131203 c 3.732927,-3.990802 2.988494,-9.648059 -1.569646,-11.928404 -0.732586,-0.366498 -1.376395,-0.621938 -1.430688,-0.567645 -0.05429,0.05429 0.08521,0.329073 0.310012,0.610624 2.484158,3.111287 3.169265,5.007037 2.819901,7.802903 -0.134311,1.074857 -0.770947,3.524374 -1.220417,4.695675 -0.205497,0.535518 0.262394,0.27252 1.090838,-0.613153 z"
     id="path829"
     inkscape:connector-curvature="0" />
  <path
     style="fill:#c83771;fill-opacity:1;stroke:none;stroke-width:0;stroke-miterlimit:4;stroke-dasharray:none"
     d="m 29.22071,59.209536 c -1.685842,-1.116487 -2.780038,-2.525313 -3.482394,-4.483737 -0.533044,-1.486322 -0.544378,-4.145337 -0.02525,-5.923537 1.274084,-4.36419 5.648647,-7.40549 10.046287,-6.984418 1.514883,0.14505 3.638779,0.866409 4.704795,1.597934 0.906273,0.621906 2.197767,1.993167 2.588055,2.747902 0.280578,0.542578 0.276718,0.551379 -0.399559,0.910916 -1.836854,0.976551 -3.898008,3.013064 -5.171832,5.110005 -0.722234,1.188926 -1.794536,4.180083 -1.799036,5.018362 -0.0045,0.839075 -0.220494,1.00574 -1.700314,1.312022 -0.762346,0.157784 -1.885287,0.489725 -2.495425,0.737646 -1.373219,0.55799 -1.35726,0.558293 -2.265328,-0.0431 z"
     id="path831"
     inkscape:connector-curvature="0" />
  <path
     style="fill:#c83771;fill-opacity:1;stroke:none;stroke-width:0;stroke-miterlimit:4;stroke-dasharray:none"
     d="m 66.899836,54.17898 c -3.730638,-1.02558 -6.530952,-4.218408 -7.095201,-8.089722 -0.19054,-1.30729 -0.177095,-1.735258 0.09397,-2.991173 0.837638,-3.880985 3.586057,-6.770966 7.263726,-7.637854 6.756177,-1.592544 13.100258,4.444029 11.70194,11.134725 -0.784668,3.754481 -3.464168,6.635338 -7.062307,7.593016 -1.234447,0.328559 -3.690644,0.324054 -4.902129,-0.009 z m 8.65385,-3.743526 c 3.000706,-3.172804 3.001017,-7.665428 7.33e-4,-10.577104 -0.801826,-0.778146 -2.440906,-1.690249 -3.037434,-1.690249 -0.30503,0 -0.262346,0.107591 0.281491,0.709555 2.97646,3.294585 3.539954,6.32304 2.015597,10.832683 -0.304237,0.900053 -0.553158,1.662786 -0.553158,1.694963 0,0.252992 0.46908,-0.09892 1.292771,-0.969848 z"
     id="path833"
     inkscape:connector-curvature="0" />
  <path
     style="fill:#c83771;fill-opacity:1;stroke:none;stroke-width:0;stroke-miterlimit:4;stroke-dasharray:none"
     d="m 67.434645,84.220394 c -2.572673,-0.389491 -4.600142,-1.43341 -6.472829,-3.332776 -2.347262,-2.380703 -3.511955,-5.367662 -3.310006,-8.488807 l 0.09337,-1.442977 1.563201,-1.559348 c 1.639049,-1.635009 2.704686,-3.236863 3.380989,-5.082266 0.382567,-1.043897 0.461637,-1.128259 1.531859,-1.634395 6.6689,-3.153891 14.517073,0.870392 15.95535,8.181373 1.468853,7.466411 -5.235575,14.495627 -12.74193,13.359196 z m 8.912813,-6.127158 c 1.551334,-1.67852 2.089428,-2.935605 2.180537,-5.094134 0.09793,-2.319998 -0.307443,-3.477375 -1.772003,-5.059273 -0.966397,-1.043825 -3.267615,-2.470202 -3.542221,-2.195596 -0.0569,0.0569 0.327685,0.638095 0.854627,1.291551 2.57057,3.187737 3.007678,5.897426 1.634088,10.12993 -0.359322,1.107195 -0.586942,2.013082 -0.505822,2.013082 0.08112,0 0.598977,-0.488502 1.150794,-1.08556 z"
     id="path835"
     inkscape:connector-curvature="0" />
  <path
     style="fill:#c83771;fill-opacity:1;stroke:none;stroke-width:0;stroke-miterlimit:4;stroke-dasharray:none"
     d="m 51.976564,94.143831 c -2.551646,-0.441492 -5.513736,-2.569607 -6.702586,-4.815475 -0.525841,-0.993371 -1.162479,-2.813641 -1.162479,-3.323751 0,-0.122223 0.540104,-0.538089 1.200232,-0.924146 3.181988,-1.860896 5.418599,-4.572769 6.574656,-7.971718 0.255587,-0.751458 0.464704,-1.520064 0.464704,-1.708014 0,-0.303439 0.17474,-0.341727 1.559577,-0.341727 h 1.559578 l 0.206583,0.89497 c 0.577095,2.50011 2.027116,5.030979 3.877606,6.767978 l 1.081419,1.015095 -0.118863,1.160171 c -0.251487,2.454657 -1.154441,4.271135 -2.719369,5.470573 -0.863542,0.66186 -0.762889,0.769261 0.303396,0.323738 1.609295,-0.672406 2.843752,-2.087527 3.859709,-4.42458 0.554202,-1.274858 0.633113,-1.369283 0.993957,-1.189382 0.373247,0.186083 0.380099,0.241769 0.143516,1.166213 -0.625049,2.44238 -2.603566,5.203546 -4.680711,6.532279 -1.873758,1.198628 -4.363174,1.727275 -6.440925,1.367776 z"
     id="path837"
     inkscape:connector-curvature="0" />
  <path
     style="fill:#c83771;fill-opacity:1;stroke:none;stroke-width:0;stroke-miterlimit:4;stroke-dasharray:none"
     d="m 35.168053,84.419909 c -1.813308,-0.475136 -2.849707,-0.951643 -4.262424,-1.959737 -1.640195,-1.170419 -2.980961,-2.738715 -3.845931,-4.498588 -0.987342,-2.008853 -1.351759,-3.550187 -1.350377,-5.711536 0.0037,-5.732936 3.36917,-10.360566 8.379996,-11.522655 0.695657,-0.161333 1.292477,-0.265687 1.326267,-0.231897 0.03379,0.03379 0.200058,0.732549 0.369485,1.552796 0.532498,2.577986 1.425307,4.436769 3.085269,6.423366 1.527113,1.827609 4.046282,3.53754 6.130663,4.161297 l 0.795869,0.238167 v 1.059546 c 0,2.407761 -0.756227,4.581219 -2.005201,5.763103 -0.353735,0.334733 -0.547001,0.608606 -0.429481,0.608606 0.364342,0 1.838009,-1.10281 2.321555,-1.73732 0.717702,-0.94177 1.551079,-2.845885 1.804292,-4.122484 l 0.230599,-1.162576 1.379912,0.06161 c 1.327248,0.05926 1.379911,0.07932 1.379911,0.525682 0,1.683127 -1.545521,5.062041 -3.097697,6.772376 -3.119671,3.43755 -7.887873,4.913469 -12.212707,3.780244 z"
     id="path839"
     inkscape:connector-curvature="0" />
  <path
     style="fill:#aade87;fill-opacity:1;stroke:none;stroke-width:0;stroke-miterlimit:4;stroke-dasharray:none"
     d="M 52.332258,45.508453 C 51.848094,45.452228 51.844567,45.439629 51.724487,43.337168 51.455885,38.634267 49.932795,32.217505 47.928456,27.344536 46.313373,23.417928 43.916472,19.4331 41.716705,17.017551 l -1.099172,-1.206993 -0.216682,2.330573 c -0.262821,2.826839 -0.696054,4.419265 -1.805828,6.637633 -0.939947,1.878897 -1.449247,2.61264 -1.739417,2.505965 -0.108109,-0.03974 0.111421,-0.612552 0.493915,-1.288752 2.064257,-3.649341 3.069713,-7.966602 2.747729,-11.798299 L 39.963553,12.60664 36.903564,9.4231615 c -2.651662,-2.7586723 -3.024843,-3.2198392 -2.7966,-3.4559628 0.322722,-0.3338652 0.741157,0.04099 3.439671,3.0814359 4.771925,5.3765814 8.147391,10.4345284 11.359624,17.0217644 l 1.585153,3.250626 1.751156,0.4858 c 3.186848,0.884084 6.54212,2.556309 9.139741,4.555135 0.594554,0.457498 1.081008,0.853178 1.081008,0.879286 0,0.02611 -0.261004,0.240439 -0.580009,0.47629 l -0.580009,0.42882 -0.590387,-0.548206 c -1.562738,-1.451086 -3.598322,-2.682341 -5.809989,-3.514263 -1.313584,-0.494108 -4.420906,-1.285043 -4.548242,-1.157706 -0.03873,0.03873 0.18091,0.66102 0.488085,1.38287 1.343043,3.156106 2.138881,7.576207 2.032704,11.28969 l -0.05622,1.966266 z"
     id="path841"
     inkscape:connector-curvature="0" />
  <path
     style="fill:#aade87;fill-opacity:1;stroke:none;stroke-width:0;stroke-miterlimit:4;stroke-dasharray:none"
     d="m 19.673619,45.329629 c 0.102995,-0.102855 1.240621,-1.053155 2.528057,-2.111778 2.969921,-2.442084 8.866107,-8.358828 11.42307,-11.462897 2.192063,-2.661093 2.007153,-2.568572 4.213428,-2.108213 2.157447,0.450171 4.566292,1.763047 6.143065,3.348114 0.74111,0.745009 1.538721,1.701485 1.772467,2.125502 l 0.424995,0.77094 -1.059797,0.396521 c -0.582888,0.218087 -1.427217,0.446882 -1.876286,0.508433 -0.449069,0.06155 -0.81649,0.133847 -0.81649,0.160655 0,0.02681 0.296598,0.67329 0.659104,1.436626 0.452249,0.952306 0.695429,1.776879 0.774846,2.627337 l 0.115742,1.239451 -0.634398,0.06212 c -0.467122,0.04574 -0.814767,-0.07442 -1.31844,-0.455693 -0.943695,-0.71437 -2.824054,-1.565578 -4.27844,-1.936782 -1.601293,-0.408698 -4.868679,-0.276501 -6.375965,0.257969 -2.232867,0.791754 -4.356654,2.24202 -5.523071,3.771527 -0.563548,0.738972 -0.86999,0.962473 -1.563759,1.140508 -1.152197,0.295678 -4.859238,0.480431 -4.608128,0.22966 z"
     id="path843"
     inkscape:connector-curvature="0" />
  <path
     style="fill:#aade87;fill-opacity:1;stroke:none;stroke-width:0;stroke-miterlimit:4;stroke-dasharray:none"
     d="m 18.460852,43.083766 c 0.0073,-0.540096 0.812613,-2.334055 1.489088,-3.317278 0.348372,-0.50634 0.555118,-0.949051 0.459437,-0.983802 -0.09568,-0.03475 -0.483644,-0.208315 -0.862137,-0.385699 l -0.688169,-0.322518 1.137261,-1.957017 c 0.625493,-1.076359 1.052456,-1.985284 0.948805,-2.019835 -0.103652,-0.03455 -0.322558,-0.165115 -0.486459,-0.290145 -0.258375,-0.197097 -0.118723,-0.383428 1.050209,-1.40124 0.741516,-0.645652 2.121807,-1.741143 3.067313,-2.434424 0.945505,-0.693282 1.719887,-1.302646 1.720848,-1.354143 9.55e-4,-0.0515 -0.688367,-0.421954 -1.531838,-0.823238 -1.240171,-0.590013 -1.839883,-1.037867 -3.134512,-2.340793 -0.880511,-0.886153 -1.954916,-2.201067 -2.387569,-2.922031 l -0.786641,-1.310844 1.357619,-0.43255 c 1.617362,-0.515306 3.467534,-0.474834 5.337406,0.116754 l 1.170834,0.370427 0.298096,-1.057265 c 0.163952,-0.581495 0.422751,-1.500397 0.575108,-2.042005 0.316885,-1.126483 0.289084,-1.129272 1.807094,0.181283 2.037098,1.758703 3.841081,4.745425 4.507823,7.463274 0.495124,2.018279 0.462738,2.134123 -1.122241,4.0142 -2.316147,2.747377 -6.29623,6.994071 -8.260387,8.813717 -1.898102,1.758453 -5.41747,4.762883 -5.579205,4.762883 -0.05072,0 -0.09023,-0.14747 -0.08778,-0.327711 z"
     id="path845"
     inkscape:connector-curvature="0" />
</svg>
