<svg height="367pt" viewBox="0 -29 367.31393 367" width="367pt" xmlns="http://www.w3.org/2000/svg"><path d="m276.734375 261.515625c16.136719-4.367187 31.566406-11.023437 45.816406-19.765625 3.9375-2.445312 7.730469-5.117188 11.351563-8.011719 26.050781-20.839843 31.777344-37.613281 33.035156-43.984375.3125-1.582031-.585938-3.152344-2.105469-3.691406-17.964843-6.511719-36.722656-10.582031-55.773437-12.097656zm0 0" fill="#24ae5f"/><path d="m295.238281 233.933594c9.496094.9375 18.75 3.578125 27.3125 7.789062 24.046875 15.75 29.664063 49.675782 31.007813 64.695313.109375 1.214843-.457032 2.394531-1.476563 3.066406-1.019531.667969-2.328125.722656-3.398437.136719-7.238282-3.910156-23.933594-9.128906-61.507813-9.128906-18.78125.292968-37.539062-1.40625-55.964843-5.0625zm0 0" fill="#4fba6f"/><path d="m23.683594 241.089844c75.648437 75.625 181.050781 90.539062 245.566406 28.304687 64.660156-62.375 47.320312-169.910156-28.335938-245.558593zm0 0" fill="#f18d46"/><path d="m240.914062 23.832031c-41.722656-41.71875-124.199218-26.917969-184.144531 33.058594-59.945312 59.976563-74.808593 142.433594-33.085937 184.199219 41.71875 41.765625 124.195312 26.917968 184.140625-33.058594 59.945312-59.972656 74.808593-142.476562 33.089843-184.199219zm0 0" fill="#f5efca"/><path d="m60.511719 227.359375h-.082031c-7.683594-4.277344-6.671876-16.398437 2.066406-25.128906l50.910156-50.910157c1.792969 1.769532 4.039062 3 6.492188 3.5625l-33.457032 60.523438c0 .082031-.105468.167969-.125.25-5.785156 10.285156-18.1875 15.941406-25.804687 11.703125zm0 0" fill="#df4d60"/><path d="m94.503906 235.945312c-9.847656-.207031-13.75-9.972656-8.179687-20.25 0-.082031.105469-.175781.125-.25l33.457031-60.523437c2.726562.675781 5.570312.746094 8.332031.210937l-10.941406 60.9375c-2.386719 10.925782-11.644531 18.996094-22.792969 19.875zm0 0" fill="#ff5364"/><path d="m134.21875 228.820312c-10.65625 3.890626-18.808594-2.277343-16.929688-12.769531l10.941407-60.9375c3.152343-.605469 6.183593-1.726562 8.96875-3.316406l13.21875 52.222656c.03125.03125 0 .113281.050781.148438 2.113281 8.914062-5.671875 20.773437-16.25 24.652343zm0 0" fill="#df4d60"/><path d="m173.734375 207.039062h-.082031c-9.679688 7.316407-20.816406 5.90625-23.195313-2.890624-.035156-.03125 0-.113282-.050781-.144532l-13.21875-52.226562c3.023438-1.664063 5.792969-3.757813 8.222656-6.207032l35.4375 35.4375c6.082032 6.074219 2.644532 18.621094-7.113281 26.03125zm0 0" fill="#ff5364"/><path d="m180.855469 180.976562-35.4375-35.4375c2.449219-2.433593 4.542969-5.203124 6.207031-8.226562l52.144531 13.230469c.082031 0 .144531.050781.226563.039062 8.796875 2.371094 10.207031 13.511719 2.890625 23.199219v.082031c-7.410157 9.800781-19.957031 13.21875-26.03125 7.113281zm0 0" fill="#df4d60"/><path d="m222.613281 143.710938c-4.671875 5.238281-11.640625 7.820312-18.597656 6.890624-.082031 0-.148437-.050781-.230469-.039062l-52.140625-13.230469c1.589844-2.785156 2.710938-5.816406 3.316407-8.96875l60.9375-10.933593c10.492187-1.898438 16.660156 6.269531 12.769531 16.929687-1.308594 3.523437-3.375 6.714844-6.054688 9.351563zm0 0" fill="#ff5364"/><path d="m228.542969 110.445312c-3.421875 3.550782-7.832031 5.988282-12.65625 7l-60.9375 10.933594c.535156-2.761718.460937-5.605468-.210938-8.335937l60.601563-33.46875c.046875-.042969.128906-.0625.179687-.105469 10.300781-5.570312 20.058594-1.664062 20.246094 8.179688-.214844 6.015624-2.816406 11.699218-7.222656 15.796874zm0 0" fill="#df4d60"/><path d="m215.527344 86.472656c-.046875.046875-.128906.0625-.179688.109375l-60.601562 33.46875c-.5625-2.453125-1.792969-4.703125-3.5625-6.492187l50.914062-50.914063c8.738282-8.738281 20.882813-9.753906 25.128906-2.070312v.082031c4.199219 7.617188-1.4375 20.023438-11.699218 25.816406zm0 0" fill="#ff5364"/><path d="m202.097656 62.644531-50.910156 50.90625c-1.789062-1.765625-4.039062-3-6.492188-3.5625l33.457032-60.519531c0-.082031.105468-.175781.125-.253906 5.796875-10.261719 18.199218-15.894532 25.8125-11.6875h.082031c7.671875 4.273437 6.65625 16.390625-2.074219 25.117187zm0 0" fill="#df4d60"/><path d="m144.699219 109.996094c-2.730469-.671875-5.574219-.746094-8.335938-.210938l10.933594-60.9375c2.378906-10.929687 11.632813-19.015625 22.78125-19.902344 2.867187-.0625 5.640625 1.011719 7.714844 2.996094 3.957031 5.023438 4.144531 12.046875.460937 17.273438 0 .082031-.109375.179687-.128906.253906zm0 0" fill="#ff5364"/><path d="m136.363281 109.785156c-3.152343.605469-6.179687 1.722656-8.964843 3.316406l-13.21875-52.222656c-.03125-.03125 0-.113281-.050782-.148437-2.121094-8.914063 5.695313-20.78125 16.242188-24.675781 4.675781-2.238282 10.234375-1.492188 14.15625 1.898437 2.6875 2.9375 3.730468 7.027344 2.773437 10.894531zm0 0" fill="#df4d60"/><path d="m127.402344 113.101562c-3.023438 1.667969-5.792969 3.757813-8.226563 6.207032l-35.433593-35.433594c-6.078126-6.078125-2.664063-18.625 7.113281-26.035156h.078125c9.683594-7.3125 20.820312-5.902344 23.199218 2.890625.03125.035156 0 .117187.050782.148437zm0 0" fill="#ff5364"/><path d="m112.949219 127.554688-52.140625-13.230469c-.082032 0-.144532-.050781-.226563-.039063-8.796875-2.371094-10.207031-13.511718-2.894531-23.199218v-.082032c7.410156-9.777344 19.960938-13.191406 26.035156-7.113281l35.4375 35.4375c-2.453125 2.429687-4.542968 5.203125-6.210937 8.226563zm0 0" fill="#df4d60"/><path d="m109.640625 136.515625-60.933594 10.921875c-10.492187 1.898438-16.660156-6.269531-12.769531-16.929688 1.3125-3.519531 3.378906-6.707031 6.058594-9.339843 4.667968-5.242188 11.636718-7.828125 18.597656-6.902344.082031 0 .144531.050781.226562.039063l52.140626 13.230468c-1.59375 2.789063-2.714844 5.824219-3.320313 8.980469zm0 0" fill="#ff5364"/><path d="m109.847656 144.847656-60.601562 33.46875c-.042969.042969-.125.0625-.175782.109375-10.300781 5.566407-20.058593 1.664063-20.25-8.183593.21875-6.027344 2.828126-11.71875 7.253907-15.820313 3.417969-3.550781 7.828125-5.988281 12.65625-6.996094l60.9375-10.941406c-.550781 2.765625-.488281 5.621094.179687 8.363281zm0 0" fill="#df4d60"/><path d="m113.414062 151.335938-50.910156 50.90625c-8.738281 8.738281-20.882812 9.753906-25.128906 2.070312v-.082031c-4.214844-7.59375 1.425781-20.015625 11.6875-25.8125.042969-.042969.128906-.0625.175781-.105469l60.605469-33.46875c.5625 2.453125 1.800781 4.699219 3.570312 6.492188zm0 0" fill="#ff5364"/><g fill="#fac176"><path d="m176.535156 291.613281c-15.484375-.167969-30.855468-2.589843-45.640625-7.191406-3.320312-1.101563-5.113281-4.6875-4.011719-8.007813 1.105469-3.320312 4.691407-5.117187 8.011719-4.011718.539063.175781 54.097657 17.5625 82.644531-5.265625 1.765626-1.414063 4.152344-1.777344 6.257813-.953125 2.105469.820312 3.613281 2.707031 3.953125 4.941406s-.535156 4.480469-2.300781 5.894531c-14.191407 10.246094-31.433594 15.386719-48.914063 14.59375zm0 0"/><path d="m246.773438 259.441406c0 3.492188-2.835938 6.328125-6.328126 6.328125-3.496093 0-6.328124-2.835937-6.328124-6.328125 0-3.496094 2.832031-6.328125 6.328124-6.328125 3.492188 0 6.328126 2.832031 6.328126 6.328125zm0 0"/></g></svg>