<?xml version="1.0" encoding="iso-8859-1"?>
<!-- Generator: Adobe Illustrator 19.0.0, SVG Export Plug-In . SVG Version: 6.00 Build 0)  -->
<svg version="1.1" id="Capa_1" xmlns="http://www.w3.org/2000/svg" xmlns:xlink="http://www.w3.org/1999/xlink" x="0px" y="0px"
	 viewBox="0 0 512 512" style="enable-background:new 0 0 512 512;" xml:space="preserve">
<path style="fill:#E0B377;" d="M245.791,301.548c-11.194-1.566-20.087-3.35-30.749-5.352c-3.222-0.605-5.466-3.571-5.186-6.838
	c1.354-15.796,5.153-32.943,10.957-46.993c-15.204,0-25.394,0-42.147,0l-25.979,167.209c-1.809,5.604-2.798,11.577-2.798,17.783
	c0,31.947,25.899,57.846,57.846,57.846c39.133,0,67.13-38.203,55.048-75.628L245.791,301.548z"/>
<path style="fill:#CC9A5E;" d="M170.474,427.357c0-6.206,0.988-12.179,2.797-17.783l25.979-167.209c-6.211,0-12.662,0-20.584,0
	l-25.979,167.209c-1.809,5.604-2.797,11.577-2.797,17.783c0,31.947,25.899,57.846,57.846,57.846c3.553,0,7.012-0.319,10.359-0.919
	C191.027,479.452,170.474,455.813,170.474,427.357z"/>
<path style="fill:#E0B377;" d="M399.834,429.928l-18.987-120.703c-15.375,0-27.117,0-42.492,0l-18.987,120.703
	c-8.822,27.328,11.604,55.274,40.233,55.274C388.202,485.202,408.665,457.281,399.834,429.928z"/>
<path style="fill:#CC9A5E;" d="M339.952,429.928l18.987-120.703c-6.56,0-13.147,0-20.584,0l-18.987,120.703
	c-8.822,27.328,11.603,55.274,40.233,55.274c3.571,0,7.015-0.436,10.29-1.25C346.914,478.236,332.231,453.846,339.952,429.928z"/>
<path style="fill:#A06E4B;" d="M400.501,155.758C369.245,80.066,294.715,26.796,207.736,26.796
	c-109.063,0-198.561,83.749-207.703,190.445c-0.383,4.469,2.687,8.528,7.096,9.356c69.129,12.981,141.317,18.47,211.628,17.822
	C247.853,173.981,325.263,134.835,400.501,155.758z"/>
<g>
	<path style="fill:#93603E;" d="M22.261,221.728c8.832-105.503,92.66-189.077,196.671-194.629c-3.708-0.196-7.44-0.303-11.197-0.303
		c-109.064,0-198.561,83.749-207.703,190.445c-0.383,4.469,2.687,8.528,7.096,9.356c6.304,1.184,12.641,2.284,18.992,3.344
		C23.545,228.172,21.982,225.065,22.261,221.728z"/>
	<path style="fill:#93603E;" d="M463.496,190.38c-92.734-85.949-245.345-27.887-256.211,98.934
		c-0.305,3.555,2.105,6.731,5.604,7.387c93.261,17.513,200.945,17.471,294.156-0.138c3.066-0.579,5.186-3.377,4.934-6.507
		C508.896,251.899,491.677,216.5,463.496,190.38z"/>
</g>
<path style="fill:#7F573C;" d="M228.413,295.395c6.976-84.959,72.368-140.34,142.832-145.382
	c-78.004-5.458-156.29,49.787-163.96,139.301c-0.305,3.555,2.105,6.731,5.604,7.387c5.416,1.017,10.886,1.969,16.394,2.868
	C228.619,298.342,228.289,296.903,228.413,295.395z"/>
<g>
	<path style="fill:#93603E;" d="M110.933,89.775c-35.875,29.8-54.585,67.612-63.964,94.084
		c-7.904,22.309-10.682,40.295-11.557,47.597c5.082,0.798,10.179,1.551,15.285,2.273c1.632-13.748,12.644-84.35,70.102-132.078
		c3.279-2.724,3.729-7.59,1.005-10.87C119.08,87.501,114.213,87.051,110.933,89.775z"/>
	<path style="fill:#93603E;" d="M103.225,190.684c-3.835-1.861-8.453-0.259-10.314,3.577c-0.301,0.621-7.142,14.974-11.358,43.356
		c5.118,0.568,10.241,1.105,15.371,1.6c3.816-25.189,9.76-37.968,9.887-38.239C108.657,197.146,107.055,192.541,103.225,190.684z"/>
</g>
<path style="fill:#7F573C;" d="M466.008,252.877c-1.723-3.895-6.272-5.654-10.169-3.937c-3.898,1.717-5.666,6.271-3.955,10.17
	c0.088,0.2,8.181,18.927,9.883,44.496c5.142-0.638,10.249-1.334,15.331-2.07C475.08,273.699,466.408,253.781,466.008,252.877z"/>
<g>
</g>
<g>
</g>
<g>
</g>
<g>
</g>
<g>
</g>
<g>
</g>
<g>
</g>
<g>
</g>
<g>
</g>
<g>
</g>
<g>
</g>
<g>
</g>
<g>
</g>
<g>
</g>
<g>
</g>
</svg>
