<svg xmlns="http://www.w3.org/2000/svg" xmlns:xlink="http://www.w3.org/1999/xlink" xml:space="preserve" version="1.1" style="shape-rendering:geometricPrecision;text-rendering:geometricPrecision;image-rendering:optimizeQuality;" viewBox="0 0 50000 62500" x="0px" y="0px" fill-rule="evenodd" clip-rule="evenodd"><defs><style type="text/css">
   
    .fil0 {fill:black;fill-rule:nonzero}
   
  </style></defs><g><path class="fil0" d="M48167.13 29013.52c-417.65,-1584.85 -1033.33,-2853.34 -1716.8,-3435.38 -3158.15,4.7 -5717.48,464.25 -7930.99,2974.37 -4248.14,4817.36 -7701.88,3377.64 -11164.82,1934.09 -1294.42,-539.58 -2590.22,-1079.7 -3912.31,-1268.85 -82.21,69.7 -162.4,139.52 -240.96,209.44 -22.85,33.48 -52.94,59.98 -87.07,78.4 -8992.88,8153.35 5764.12,15854.26 14045.03,15304.95 7868.6,-522 13456.29,-6506.22 11007.92,-15797.02zm-36305.98 10467.91c-64.39,-52.1 -74.36,-146.55 -22.26,-210.94 52.1,-64.39 146.55,-74.36 210.94,-22.26 2995.81,2423.68 4260.79,499.84 6775.28,1503.97 76.69,30.41 114.2,117.26 83.79,193.95 -30.41,76.69 -117.26,114.2 -193.95,83.79 -2478.54,-989.76 -3729.72,978.94 -6853.8,-1548.51zm4178.4 -24383.19c-275.83,-177.06 -6.27,-596.97 269.54,-419.92 511.98,327.78 1111.58,-128.42 1826.24,252.5 289.03,154.15 54.65,593.61 -234.38,439.46 -567.94,-302.74 -1160.67,176.59 -1861.4,-272.04zm6007.32 10034.06c-83.49,-317.31 398.94,-444.21 482.42,-126.96 85.69,322.53 56.77,769.81 -96.25,1068.41 -149,291.59 -592.37,65.04 -443.36,-226.56 94.92,-185.23 110.29,-515.07 57.19,-714.89zm-520.75 -2484.7c-270.69,-183.46 8.61,-595.56 279.3,-412.1 677.42,458.7 340.47,1044.84 567.77,1546.47 169.73,374.6 -310.71,525.23 -437.54,243.79 -188.25,-415.47 -55.53,-1138.46 -409.53,-1378.16zm-4075.28 -572.95c-107.9,-309.59 362.81,-473.62 470.7,-164.06 170.52,487.77 423.46,297.84 702.79,802.74 158,287.73 -279.49,527.98 -437.5,240.24 -228.66,-413.3 -481.76,-151.67 -735.99,-878.92zm4092.09 -978.23c105.33,310.89 -367.35,471 -472.66,160.16 -60,-175.59 -139.62,-408.33 -338.81,-463 -315.97,-86.05 -185.15,-566.52 130.86,-480.46 393.27,107.93 558.44,425.72 680.61,783.3zm-5521.34 -3491.24c-218.12,243.76 -589.2,-88.3 -371.1,-332.04 305.26,-340.83 855.42,-534.92 1307.13,-506.31 327.54,20.55 296.3,518.6 -31.26,498.04 -295.86,-18.73 -703.68,115.78 -904.77,340.31zm-1757.24 1721.75c-77.05,318.54 -561.44,201.42 -484.38,-117.18 131.66,-540.29 738.05,-1163.73 1327.29,-1137.64 327.55,14.12 306.07,512.16 -21.48,498.04 -339.87,-15.05 -747.22,452.23 -821.43,756.78zm4985.97 -1574.02c282.24,166.77 28.34,596.46 -253.9,429.68 -410.6,-243.81 -611.68,-261.17 -1079.55,-261.17 -328.84,0 -328.84,-500 0,-500 553.65,0 848.1,43.31 1333.45,331.49zm1012.99 1751.02c324.99,42.4 260.53,536.53 -64.46,494.14 -1209.51,-160.34 -797.54,-824.53 -1774.59,-812.96 -327.58,3.84 -333.38,-494.21 -5.86,-498.04 1310.95,-15.51 806.98,679.26 1844.91,816.86zm-3486.79 254.59c14.12,327.55 -483.92,349.03 -498.04,21.48 -30.03,-655.57 684.83,-738.25 285.13,-1274.21 -196.53,-263.34 203.88,-562.15 400.4,-298.82 685.71,919.47 -207.46,1115.82 -187.49,1551.55zm1172.38 5791.47c22.11,135.91 -70.14,264.02 -206.05,286.13 -135.91,22.11 -264.02,-70.14 -286.13,-206.05 -108.17,-664.83 486.59,-954.1 91.83,-1665.19 -159.28,-286.47 276.28,-528.62 435.54,-242.18 546.35,984.12 -124.55,1278.02 -35.19,1827.29zm-5311.5 -2519.23c-277.12,174.47 -542.73,-247.42 -265.62,-421.88 691.36,-434.56 155.8,-689.32 405.45,-1396.08 109.17,-309.56 579.89,-143.58 470.7,166.02 -245.83,695.96 458.68,979.89 -610.53,1651.94zm6713.49 -1712.25c315.99,88.62 181.24,569.09 -134.76,480.46 -1002.73,-281.52 -561.57,-1146.8 -1276.66,-1570.56 -282.24,-166.77 -28.34,-596.46 253.9,-429.68 840.78,498.24 545.98,1348.08 1157.52,1519.78zm-4478.74 1705.91c-159.26,286.44 -594.82,44.29 -435.54,-242.18 540.94,-976 1541.01,-255.93 1588,-1109.65 17.96,-327.51 516,-300.25 498.04,27.34 -77.22,1402.59 -1250.15,602.16 -1650.5,1324.49zm-383.77 -1865.72c-2.69,137.52 -116.38,246.83 -253.9,244.14 -137.52,-2.69 -246.83,-116.38 -244.14,-253.9 9.28,-426.97 264.07,-583.65 547.43,-757.89 222.28,-136.68 472.36,-290.46 487.03,-709.15 4.31,-137.52 119.31,-245.52 256.83,-241.21 137.52,4.31 245.52,119.31 241.21,256.83 -24.16,689.37 -394.31,916.99 -723.35,1119.31 -162.07,99.65 -307.8,189.28 -311.11,341.87zm6772.98 4381.1c-131.02,300.59 -588.06,101.36 -457.04,-199.22 291.47,-668.44 -24.91,-1015.02 -377,-1400.69 -395.43,-433.15 -826.32,-905.16 -775.92,-1794.18 17.96,-327.51 516,-300.25 498.04,27.34 -38.55,679.92 318.94,1071.53 647.02,1430.9 466.59,511.09 885.88,970.4 464.9,1935.85zm-912.1 1370.65c222.23,240.21 -143.01,578.11 -365.24,337.9 -607.72,-656.77 -483.07,-1074.55 -375.7,-1434.39 67.04,-224.67 122.05,-409.01 -505.74,-745.61 -289.03,-154.15 -54.65,-593.61 234.38,-439.46 987.99,529.73 880.67,889.36 749.88,1327.65 -69.98,234.55 -151.24,506.87 262.42,953.91zm-3831.89 356.73c-36.67,132.67 -173.97,210.49 -306.64,173.82 -132.67,-36.67 -210.49,-173.97 -173.82,-306.64 273.86,-993.63 -898.46,-2234.5 230.31,-3233.73 245.06,-216.82 575.11,156.25 330.08,373.04 -791.03,700.25 199.87,1978.32 -79.93,2993.51zm-3214.49 -3386.41c-299.3,-134.88 -94.21,-589.96 205.08,-455.08 1142.09,517.47 994.13,1173.79 994.13,2217.21 0,328.84 -500,328.84 -500,0 0,-772.15 153.76,-1375.66 -699.21,-1762.13zm-216.62 3304.78c309.56,109.17 143.58,579.89 -166.02,470.7 -867.33,-307.3 -1051.27,-1515.65 -780.55,-2279.65 136.94,-386.8 636.75,-128.23 467.36,176 -161.26,506.08 -107.31,1425.14 479.21,1632.95zm1612.56 4685.88c-229.93,-233.78 125.54,-583.38 355.46,-349.6 500.46,508.15 1852.78,738.02 2506.39,520.55 310.86,-102.77 467.12,369.89 156.26,472.66 -834.49,277.66 -2383.38,0.86 -3018.11,-643.61zm2440.78 -1023.51c-299.29,-132.31 -98.12,-587.39 201.18,-455.08 548.17,243.71 1493.03,-242.08 1797.88,-727.14 174.46,-277.11 596.35,-11.5 421.88,265.62 -435.7,693.26 -1638.91,1264.27 -2420.94,916.6zm2696.57 -1903.61c-327.57,24.39 -364.63,-473.65 -37.1,-498.04 1091.38,-82.45 1636.47,-629.79 2142.95,-1554.78 156.68,-287.72 594.21,-49.49 437.5,238.28 -588.93,1075.57 -1278.5,1718.98 -2543.35,1814.54zm-2100.97 523.67c-98.92,312.14 -573.52,161.73 -474.6,-150.4 420.07,-1313.64 1077.38,-381.01 1077.38,-2295.47 0,-328.84 500,-328.84 500,0 0,2192.54 -760.67,1376.02 -1102.78,2445.87zm-3368.79 -1564.69c-321.12,-65.5 -221.55,-553.78 99.6,-488.28 967.45,200.41 841.22,1261.61 1606.37,1556.88 305.7,118.15 126.07,583.01 -179.68,464.84 -920.4,-355.17 -902.54,-1404.24 -1526.29,-1533.44zm-1505.5 1418.22c-202.71,-256.59 187.92,-565.18 390.62,-308.6 38.69,48.83 49.8,63.05 62.9,79.78 377.39,482.07 1047.72,1338.31 2419.2,1226.12 327.57,-25.68 366.59,472.37 39.06,498.04 -1636.33,133.86 -2413.36,-858.7 -2850.84,-1417.52l-60.94 -77.82zm15101.6 5188.57c-148.55,128.54 -344.27,-97.62 -195.7,-226.18l849.17 -731.83c148.55,-128.54 344.27,97.62 195.7,226.18l-849.17 731.83zm13343.42 -3985.64c193.44,34.68 140.72,328.82 -52.74,294.14l-948.96 -172.93c-193.44,-34.68 -140.72,-328.82 52.74,-294.14l948.96 172.93zm-440.37 1717.08c169.34,100.05 17.03,357.88 -152.34,257.82l-1016 -603.25c-169.34,-100.05 -17.03,-357.88 152.34,-257.82l1016 603.25zm-1049.7 1479.64c149.33,127.8 -45.23,355.12 -194.54,227.34l-1001.56 -861.53c-149.33,-127.8 45.23,-355.12 194.54,-227.34l1001.56 861.53zm-1511.8 1277.48c114.83,160.33 -128.94,334.91 -243.76,174.6l-820.75 -1145.92c-114.83,-160.33 128.94,-334.91 243.76,-174.6l820.75 1145.92zm-1937.43 885.97c72.44,182.7 -205.32,292.8 -277.74,110.16l-533.92 -1336.42c-72.44,-182.7 205.32,-292.8 277.74,-110.16l533.92 1336.42zm-2320.94 361.88c3.07,196.54 -295.75,201.2 -298.82,4.68l-21.83 -1379.33c-3.07,-196.54 295.75,-201.2 298.82,-4.68l21.83 1379.33zm-2352.95 -71.46c-46.22,191.11 -336.86,120.85 -290.62,-70.32l326.83 -1341c46.22,-191.11 336.86,-120.85 290.62,70.32l-326.83 1341zm-1953.06 -686.57c-84,178.03 -354.71,50.31 -270.7,-127.74l529.17 -1121.83c84,-178.03 354.71,-50.31 270.7,127.74l-529.17 1121.83zm12584.37 -23416.34c-131.63,-146.26 91.04,-346.65 222.66,-200.4 2004.15,2226.72 2878.03,5934.87 3047.54,8855.26 10.77,196.56 -288.06,212.89 -298.82,16.4 -165.19,-2845.9 -1017.57,-6500.47 -2971.38,-8671.26zm-18537.16 -2989.08c-54.36,62.13 -148.81,68.42 -210.94,14.06 -62.13,-54.36 -68.42,-148.81 -14.06,-210.94 2676.35,-3069.72 6574.73,-4422.16 10567.19,-3944.63 -4805.91,-1178.18 -9991.6,-247.18 -13902.28,2864.72 -1199.22,954.26 -2284.09,2116.63 -3207.21,3493.34 1891.72,144.82 3572.61,-358.96 5445.77,-537.06 4152.33,-394.82 6544.97,1249.28 8848.71,4706.01 1718.52,2578.59 2771.97,5250.64 3114.53,7986.82 319.41,2551.26 19.86,5155.88 -935.65,7790 1461.63,-276.1 2994.87,-1144.45 4651.39,-3022.93 2279.37,-2584.81 4940.18,-3133.1 8204.5,-3144.04 1239.7,-4589.99 -373.62,-10817.98 -3299.69,-14495.13 -1599.11,-2009.59 -3661.49,-3584.78 -5999.3,-4636.97 -4678.41,-1705.65 -9921.18,-696.18 -13262.96,3136.75zm-1283.21 2140.26c-1939.16,152.32 -3741.17,755.4 -5718.24,556 -1970.42,-198.66 -3131.58,-531.82 -5238.98,-330.56 445.43,129.9 869.72,327.75 1270.87,579 1269.48,795.13 2297.23,2127.52 3022.21,3516.82 59.5,114.01 114.79,223.43 165.95,328.21 676,-142.74 1657.91,-109.62 2313.4,106.49 965.95,-2048.32 2118.1,-3467.08 3368.82,-4300.63 267.74,-178.44 540.01,-330.05 815.97,-455.33zm10428.76 20100.34c999.74,-2641.65 1319.94,-5252.71 1000.06,-7807.74 -332.77,-2657.98 -1359.15,-5258.21 -3034.45,-7771.96 -1930.35,-2896.49 -5445.65,-5974.71 -8934.94,-3649.29 -1170.22,779.9 -2256.95,2122.73 -3180.23,4072.49 10.62,5.1 21.23,10.24 31.83,15.44 1502.29,737.2 2847.78,2514.1 3763.97,4604.84 910.02,2076.66 1403.06,4474.12 1207.75,6470.65 -50.65,517.78 -147.53,1009.68 -295.27,1463.61 1396.21,195.84 2726.2,750.17 4054.76,1303.98 1760.88,734.04 3519.3,1466.8 5386.52,1297.98zm-16984.26 -14923.67c-7.96,2.73 -15.98,5.04 -24.04,6.93 -2163.83,618.68 -4059.71,3659.85 -4805.29,7033.82 -311.72,1410.64 -419.58,2877.92 -259.19,4250.32 158.71,1357.91 580.88,2619.65 1329.6,3634.61 1225.36,1661.09 3343.08,2670.36 6639.98,2369.15 10.71,-0.97 21.31,-1.25 31.78,-0.87 287.24,-911.43 782.58,-1794.56 1492.15,-2619.6 654.99,-761.57 1492.41,-1473.13 2516.67,-2110.84 221.11,-519.98 357.97,-1113.11 420.49,-1752.3 187.06,-1912.17 -289.89,-4219.12 -1168.69,-6224.55 -872.63,-1991.33 -2134.9,-3674.31 -3525.69,-4356.8 -744.71,-365.42 -1842.38,-452.45 -2647.77,-229.87zm-428.55 -384.62c-40.95,-83.46 -81.48,-163.65 -121.49,-240.33 -689.21,-1320.76 -1658.24,-2582.4 -2844.49,-3325.4 -1698.47,-1063.82 -3132.96,-734.81 -4789.04,107.44 -2706.71,1376.64 -4443.93,3768.96 -5432.3,6483.48 -2110.42,5796.22 -1053.01,12674.66 2703.86,17567.37 2636.83,3434.07 6300.65,6089.04 10807.38,5612.61 1824.37,-192.84 2431.26,393.28 3593.42,343.55 899.85,-38.47 1252.56,-689.3 1968.62,-1047.51 -1998.8,-1900.33 -3320.61,-4520.36 -2682.96,-7312.7 -3412.24,274.67 -5629.92,-813.17 -6935.71,-2583.29 -803.26,-1088.89 -1255.02,-2432.58 -1423.36,-3872.89 -166.64,-1425.83 -54.69,-2949.7 268.97,-4414.38 751.48,-3400.62 2659.16,-6490.12 4887.1,-7317.95zm959.73 -4801.42c980.35,-1506.36 2144.55,-2769.93 3436.9,-3798.3 7059.52,-5617.56 17932.95,-4168.53 23523.51,2857.09 3029.41,3807.03 4678.44,10220.83 3381.14,14968.22 658.47,593.51 1412.13,2026.03 1828.64,3645.62 2667.92,10123.76 -3931.79,16949.3 -14250.11,17143.47 -4356.2,81.97 -9254.19,-1243.12 -12588.93,-4145.23 -898.02,347.51 -1127.74,1124.87 -2354,1177.31 -1219.87,52.18 -1772.99,-534.61 -3562.18,-345.49 -4692,496.05 -8505.51,-2225.63 -11254.64,-5805.97 -3866.05,-5034.93 -4951.32,-12065.95 -2776.14,-18040.03 1023.45,-2810.87 2867.69,-5208.08 5627.07,-6734.15 2763.08,-1528.11 5984.28,-1507.96 8988.74,-922.54zm11213.28 20574.8c-72.81,-38.83 -100.36,-129.34 -61.53,-202.15 38.83,-72.81 129.34,-100.36 202.15,-61.53 4430.21,2372.06 8692.5,2259.62 11421.29,-2399.07 41.74,-71.19 133.31,-95.06 204.5,-53.32 71.19,41.74 95.06,133.31 53.32,204.5 -2812.48,4801.58 -7244.42,4961.33 -11819.73,2511.57zm-6490.97 -893.94c-166.38,165.21 -322.93,333.22 -469.6,503.76 -2727.22,3171 -1905.3,6907.34 919.28,9662.28 271.6,264.9 606.51,538.97 902.44,774.04 3225.07,2561.86 7593.09,3777 11837.83,3697.12 923.92,-17.39 1841.64,-96.27 2740.12,-235.88 -7334.9,421.13 -21906.07,-5896.51 -15930.07,-14401.32z"/></g><text x="0" y="50015" fill="#000000" font-size="5px" font-weight="bold" font-family="'Helvetica Neue', Helvetica, Arial-Unicode, Arial, Sans-serif">Created by Oleksandr Panasovskyi</text><text x="0" y="50020" fill="#000000" font-size="5px" font-weight="bold" font-family="'Helvetica Neue', Helvetica, Arial-Unicode, Arial, Sans-serif">from the Noun Project</text></svg>