<?xml version="1.0" encoding="iso-8859-1"?>
<!-- Generator: Adobe Illustrator 19.0.0, SVG Export Plug-In . SVG Version: 6.00 Build 0)  -->
<svg xmlns="http://www.w3.org/2000/svg" xmlns:xlink="http://www.w3.org/1999/xlink" version="1.1" id="Layer_1" x="0px" y="0px" viewBox="0 0 483.61 483.61" style="enable-background:new 0 0 483.61 483.61;" xml:space="preserve" width="512" height="512">
<g>
	<path style="fill:#AA5C3A;" d="M477.87,241.8c0,108.51-81.06,200.53-193.35,232.72c-13.8,3.97-28.07,7.02-42.72,9.09   c-14.65-2.07-28.92-5.12-42.71-9.09C86.8,442.33,5.74,350.31,5.74,241.8c0-104.32,74.92-193.4,180.49-228.73   C203.96,7.13,222.55,2.72,241.8,0c19.25,2.72,37.84,7.13,55.57,13.07C402.95,48.4,477.87,137.48,477.87,241.8z"/>
	<g>
		<path style="fill:#93472C;" d="M307.88,380.99l-48.4,0.77c0,48.74,5.41,80.48,25.04,92.76c-13.8,3.97-28.07,7.02-42.72,9.09    c-14.65-2.07-28.92-5.12-42.71-9.09c19.62-12.28,25.04-44.02,25.04-92.76l-48.41-0.77V105.37l48.41-4.13    c0-35.61-14.17-71.89-37.9-88.17C203.96,7.13,222.55,2.72,241.8,0c19.25,2.72,37.84,7.13,55.57,13.07    c-23.73,16.28-37.89,52.56-37.89,88.17l48.4,4.13V380.99z"/>
	</g>
	<path style="fill:#FFCA5E;" d="M198.517,255.942c15.58,12.18,25.61,31.14,25.61,52.45c0,10.32-2.35,20.08-6.55,28.79   c-2.06,4.3-4.58,8.35-7.49,12.08c8.64,8.15,14.04,19.69,14.04,32.5c0,24.66-19.99,44.66-44.65,44.66c-15.5,0-29.15-7.9-37.16-19.89   c-2.35,0.38-4.76,0.59-7.22,0.59c-24.66,0-44.65-19.99-44.65-44.66c0-6.15,1.24-12.01,3.49-17.35   c-30.93-9.38-53.45-38.1-53.45-72.1c0-19.59,7.47-37.42,19.72-50.82c-11.85-8.03-19.63-21.6-19.63-36.98   c0-24.03,18.97-43.61,42.74-44.61c-0.2-1.74-0.32-3.51-0.32-5.31c0-22.04,15.97-40.34,36.97-43.98   c4.65-24.28,25.98-42.63,51.61-42.63c29.02,0,52.55,23.53,52.55,52.56c0,12.29-4.22,23.58-11.29,32.53   c-3.15,3.99-6.87,7.52-11.04,10.45c13.8,13.94,22.33,33.12,22.33,54.29c0,17.83-6.04,34.24-16.19,47.3   C205.107,249.462,201.947,252.852,198.517,255.942z"/>
	<path style="fill:#E8A328;" d="M142.317,406.533c-2.35,0.38-4.76,0.59-7.22,0.59c-24.66,0-44.66-19.99-44.66-44.65   c0-6.16,1.25-12.02,3.5-17.36c-30.93-9.38-53.45-38.1-53.45-72.1c0-19.58,7.47-37.42,19.72-50.82   c-11.85-8.03-19.63-21.6-19.63-36.98c0-24.02,18.97-43.61,42.74-44.61c-0.21-1.74-0.32-3.51-0.32-5.31   c0-22.04,15.97-40.34,36.97-43.98c4.65-24.28,25.98-42.63,51.61-42.63c4.97,0,9.78,0.69,14.34,1.98   c-18.94,5.35-33.53,21.07-37.28,40.65c-21,3.64-36.97,21.94-36.97,43.98c0,1.8,0.11,8.57,0.32,10.31   c-23.77,1-42.74,15.59-42.74,39.61c0,15.38,10.724,19.979,19.63,19.979c-12.25,13.4-19.72,48.241-19.72,67.821   c0,30.817,15.994,48.445,42.02,48.225c3.809-0.032,6.498,3.726,5.21,7.311c-3.15,8.767-6.858,22.543-4.706,36.373   c2.743,17.631,15.874,31.841,32.266,38.351"/>
	<g>
		<path style="fill:#FFCA5E;" d="M443.127,273.012c0,26.07-13.25,49.04-33.38,62.56c-6.06,4.08-12.75,7.29-19.88,9.48    c-0.07,0.02-0.13,0.04-0.2,0.06c2.25,5.34,3.5,11.2,3.5,17.35c0,23.81-18.62,43.26-42.09,44.58c-0.85,0.06-1.71,0.08-2.57,0.08    c-2.46,0-4.87-0.21-7.22-0.59c-8.01,11.99-21.66,19.89-37.16,19.89c-24.66,0-44.65-20-44.65-44.66c0-12.81,5.4-24.35,14.05-32.5    c-8.8-11.28-14.05-25.45-14.05-40.87c0-21.31,10.03-40.27,25.62-52.45c-15.73-14.14-25.62-34.62-25.62-57.43    c0-21.17,8.53-40.35,22.33-54.29c-13.5-9.51-22.33-25.21-22.33-42.98c0-29.03,23.53-52.56,52.55-52.56    c25.63,0,46.97,18.35,51.61,42.63c18.75,3.25,33.5,18.19,36.44,37.04c0.36,2.26,0.54,4.58,0.54,6.94c0,1.72-0.11,3.41-0.3,5.07    c-0.01,0.08-0.02,0.16-0.03,0.24c23.78,1,42.74,20.58,42.74,44.61c0,9.73-3.11,18.73-8.41,26.07c-3.06,4.26-6.86,7.96-11.22,10.91    C435.647,235.592,443.127,253.422,443.127,273.012z"/>
		<path style="fill:#E8A328;" d="M290.753,381.763c0-12.811,5.403-24.354,14.046-32.497c-8.793-11.282-14.046-25.459-14.046-40.871    c0-21.315,10.031-50.276,25.616-62.458c-15.722-14.132-25.616-24.619-25.616-47.423c0-21.172,8.529-50.348,22.331-64.294    c-13.502-9.511-22.331-15.21-22.331-32.981c0-23.573,15.521-43.521,36.902-50.183c-4.936-1.536-10.181-2.371-15.624-2.371    c-29.025,0-52.554,23.529-52.554,52.554c0,17.771,8.829,33.47,22.331,42.982c-13.802,13.947-22.331,33.122-22.331,54.293    c0,22.804,9.893,43.292,25.615,57.423c-15.585,12.183-25.615,31.143-25.615,52.458c0,15.412,5.252,29.589,14.045,40.871    c-8.642,8.143-14.045,19.686-14.045,32.497c0,24.662,19.992,44.655,44.654,44.655c5.498,0,10.756-1.011,15.619-2.829    C302.813,417.245,290.753,400.915,290.753,381.763z"/>
		<path style="fill:#E8A328;" d="M351.077,407.042c-0.85,0.06-1.71,0.08-2.57,0.08c-2.46,0-4.87-0.21-7.22-0.59    c2.861-4.28,5.001-9.08,6.248-14.228c0.443-1.829,3.096-1.69,3.343,0.176C351.478,397.028,351.798,402.352,351.077,407.042z"/>
		<path style="fill:#E8A328;" d="M400.617,135.292c0,1.72-0.11,3.41-0.3,5.07c-0.67,0.12-1.32,0.19-1.94,0.19    c-5.449,0-10.672,0.977-15.502,2.764c-3.105,1.149-5.478-2.954-2.94-5.079c5.253-4.398,12.01-8.403,20.141-9.885    C400.437,130.612,400.617,132.931,400.617,135.292z"/>
		<path style="fill:#E8A328;" d="M409.747,335.572c-6.06,4.08-12.75,7.29-19.88,9.48l-0.21,0.03    c-4.552-10.757-13.203-19.363-23.997-23.857c-2.379-0.99-1.456-4.54,1.105-4.251C377.806,318.218,392.969,322.701,409.747,335.572    z"/>
		<path style="fill:#E8A328;" d="M434.617,211.282c-3.06,4.26-6.86,7.96-11.22,10.91c-8.762-8.762-20.645-16.392-33.543-20.724    c-2.394-0.804-1.668-4.342,0.846-4.103C403.021,198.533,418.882,202.066,434.617,211.282z"/>
		<path style="fill:#E8A328;" d="M281.803,144.214c10.254-10.361,23.422-17.833,38.173-21.086c3.912-0.863,6.092,4.37,2.716,6.527    c-15.323,9.792-38.124,26.548-40.976,41.094"/>
	</g>
	<g>
		<path style="fill:#E8A328;" d="M59.85,210.846c3.06,4.26,6.86,7.96,11.22,10.91c8.762-8.762,20.645-16.392,33.543-20.724    c2.394-0.804,1.668-4.342-0.846-4.103C91.446,198.097,75.585,201.63,59.85,210.846z"/>
	</g>
	<path style="fill:#E8A328;" d="M212.837,133.772c-3.15,3.99-6.87,7.52-11.04,10.45c-5.122-5.122-11.842-8.682-18.155-11.121   c-3.155-1.219-2.068-5.9,1.302-5.621C192.731,128.123,202.303,129.852,212.837,133.772z"/>
	<path style="fill:#E8A328;" d="M207.937,245.812c-2.83,3.65-5.99,7.04-9.42,10.13c-5.367-5.367-11.611-8.752-17.537-10.881   c-2.975-1.069-2.048-5.499,1.1-5.218C189.319,240.488,198.037,242.185,207.937,245.812z"/>
	<path style="fill:#E8A328;" d="M167.297,345.122c0.31-0.31,0.7-0.6,1.17-0.87C167.807,344.712,167.417,345.022,167.297,345.122z"/>
	<path style="fill:#E8A328;" d="M217.577,337.181c-2.06,4.3-4.58,8.35-7.49,12.08c-5.676-5.676-15.488-7.897-24.368-8.057   c-2.739-0.049-3.261-3.942-0.623-4.68C193.653,334.13,204.827,333.152,217.577,337.181z"/>
</g>















</svg>
