<?xml version="1.0" encoding="UTF-8" standalone="no"?>
<!-- Generator: Adobe Illustrator 18.0.0, SVG Export Plug-In . SVG Version: 6.00 Build 0)  -->

<svg
   xmlns:dc="http://purl.org/dc/elements/1.1/"
   xmlns:cc="http://creativecommons.org/ns#"
   xmlns:rdf="http://www.w3.org/1999/02/22-rdf-syntax-ns#"
   xmlns:svg="http://www.w3.org/2000/svg"
   xmlns="http://www.w3.org/2000/svg"
   xmlns:sodipodi="http://sodipodi.sourceforge.net/DTD/sodipodi-0.dtd"
   xmlns:inkscape="http://www.inkscape.org/namespaces/inkscape"
   version="1.1"
   id="Capa_1"
   x="0px"
   y="0px"
   viewBox="0 0 55.6 55.6"
   style="enable-background:new 0 0 55.6 55.6;"
   xml:space="preserve"
   sodipodi:docname="onion-2.svg"
   inkscape:version="0.92.4 (5da689c313, 2019-01-14)"><metadata
   id="metadata61"><rdf:RDF><cc:Work
       rdf:about=""><dc:format>image/svg+xml</dc:format><dc:type
         rdf:resource="http://purl.org/dc/dcmitype/StillImage" /><dc:title></dc:title></cc:Work></rdf:RDF></metadata><defs
   id="defs59">
	
	
	
	
	
	
	
	
	
	
	
</defs><sodipodi:namedview
   pagecolor="#ffffff"
   bordercolor="#666666"
   borderopacity="1"
   objecttolerance="10"
   gridtolerance="10"
   guidetolerance="10"
   inkscape:pageopacity="0"
   inkscape:pageshadow="2"
   inkscape:window-width="1920"
   inkscape:window-height="1017"
   id="namedview57"
   showgrid="false"
   inkscape:zoom="4.2446044"
   inkscape:cx="27.799999"
   inkscape:cy="27.799999"
   inkscape:window-x="-8"
   inkscape:window-y="-8"
   inkscape:window-maximized="1"
   inkscape:current-layer="Capa_1" />
<path
   inkscape:connector-curvature="0"
   id="path2"
   d="m 24.1,54.2 c -0.256,0 -0.512,-0.098 -0.707,-0.293 -0.391,-0.391 -0.391,-1.023 0,-1.414 l 4.2,-4.2 c 0.391,-0.391 1.023,-0.391 1.414,0 0.391,0.391 0.391,1.023 0,1.414 l -4.2,4.2 C 24.612,54.102 24.356,54.2 24.1,54.2 Z"
   style="fill:#a5a5a5" /><path
   inkscape:connector-curvature="0"
   id="path4"
   d="m 28.3,55.6 c -0.553,0 -1,-0.448 -1,-1 V 49 c 0,-0.552 0.447,-1 1,-1 0.553,0 1,0.448 1,1 v 5.6 c 0,0.552 -0.447,1 -1,1 z"
   style="fill:#a5a5a5" /><path
   inkscape:connector-curvature="0"
   id="path6"
   d="m 32.5,54.2 c -0.256,0 -0.512,-0.098 -0.707,-0.293 l -4.2,-4.2 c -0.391,-0.391 -0.391,-1.023 0,-1.414 0.391,-0.391 1.023,-0.391 1.414,0 l 4.2,4.2 c 0.391,0.391 0.391,1.023 0,1.414 C 33.012,54.102 32.756,54.2 32.5,54.2 Z"
   style="fill:#a5a5a5" /><path
   inkscape:connector-curvature="0"
   id="path8"
   d="m 35.301,51.4 c -0.065,0 -0.131,-0.006 -0.197,-0.02 l -7,-1.4 c -0.541,-0.108 -0.893,-0.635 -0.784,-1.177 0.107,-0.541 0.628,-0.894 1.177,-0.784 l 7,1.4 c 0.541,0.108 0.893,0.635 0.784,1.177 -0.095,0.475 -0.513,0.804 -0.98,0.804 z"
   style="fill:#a5a5a5" /><path
   inkscape:connector-curvature="0"
   id="path10"
   d="m 21.299,51.167 c -0.48,0 -0.904,-0.347 -0.985,-0.835 -0.091,-0.545 0.277,-1.06 0.822,-1.151 l 7,-1.167 c 0.547,-0.092 1.061,0.277 1.15,0.822 0.091,0.545 -0.277,1.06 -0.822,1.151 l -7,1.167 c -0.055,0.008 -0.11,0.013 -0.165,0.013 z"
   style="fill:#a5a5a5" /><path
   inkscape:connector-curvature="0"
   id="path12"
   d="M 29.3,6.076 V 0 l -4,2 V 6.157 C 14.369,7.425 5.933,16.879 6.312,28.236 6.678,39.193 15.478,48.274 26.42,48.957 38.92,49.737 49.3,39.831 49.3,27.5 49.3,16.132 40.471,6.849 29.3,6.076 Z"
   style="fill:#ffdd55" /><path
   inkscape:connector-curvature="0"
   id="path14"
   d="m 28.3,50.203 c -0.103,0 -0.207,-0.016 -0.311,-0.05 C 21.882,48.16 16.212,42.65 13.547,36.113 11.031,29.946 11.317,23.349 14.35,17.537 c 0.256,-0.489 0.856,-0.68 1.35,-0.424 0.489,0.256 0.679,0.86 0.424,1.349 -3.533,6.771 -2.344,12.925 -0.725,16.896 2.453,6.015 7.639,11.076 13.212,12.894 0.524,0.171 0.812,0.736 0.641,1.261 -0.138,0.422 -0.531,0.69 -0.952,0.69 z"
   style="fill:#aa8800" /><path
   inkscape:connector-curvature="0"
   id="path16"
   d="m 28.3,50.203 c -0.421,0 -0.813,-0.268 -0.951,-0.69 -0.171,-0.525 0.116,-1.089 0.641,-1.261 5.573,-1.818 10.759,-6.879 13.212,-12.894 1.619,-3.971 2.809,-10.125 -0.725,-16.896 -0.255,-0.489 -0.065,-1.093 0.424,-1.349 0.492,-0.256 1.095,-0.065 1.35,0.424 3.033,5.812 3.318,12.409 0.803,18.576 -2.665,6.536 -8.335,12.047 -14.442,14.04 -0.105,0.034 -0.209,0.05 -0.312,0.05 z"
   style="fill:#aa8800" /><path
   inkscape:connector-curvature="0"
   id="path18"
   d="m 28.798,50.203 c -0.169,0 -0.34,-0.042 -0.497,-0.133 -6.508,-3.739 -11.477,-21.408 -7.641,-34.354 0.156,-0.529 0.713,-0.83 1.243,-0.675 0.529,0.157 0.831,0.713 0.675,1.243 -3.802,12.831 1.498,29.052 6.719,32.051 0.479,0.275 0.645,0.886 0.369,1.365 -0.184,0.323 -0.521,0.503 -0.868,0.503 z"
   style="fill:#aa8800" /><path
   inkscape:connector-curvature="0"
   id="path20"
   d="m 27.802,50.203 c -0.347,0 -0.684,-0.18 -0.868,-0.502 -0.275,-0.479 -0.109,-1.09 0.369,-1.365 5.221,-2.999 10.521,-19.22 6.719,-32.051 -0.156,-0.53 0.146,-1.086 0.675,-1.243 0.53,-0.156 1.087,0.146 1.243,0.675 3.836,12.946 -1.133,30.615 -7.641,34.354 -0.157,0.089 -0.328,0.132 -0.497,0.132 z"
   style="fill:#aa8800" /><path
   inkscape:connector-curvature="0"
   id="path22"
   d="m 28.3,50 c -0.553,0 -1,-0.448 -1,-1 V 12 c 0,-0.552 0.447,-1 1,-1 0.553,0 1,0.448 1,1 v 37 c 0,0.552 -0.447,1 -1,1 z"
   style="fill:#aa8800" />
<g
   id="g26">
</g>
<g
   id="g28">
</g>
<g
   id="g30">
</g>
<g
   id="g32">
</g>
<g
   id="g34">
</g>
<g
   id="g36">
</g>
<g
   id="g38">
</g>
<g
   id="g40">
</g>
<g
   id="g42">
</g>
<g
   id="g44">
</g>
<g
   id="g46">
</g>
<g
   id="g48">
</g>
<g
   id="g50">
</g>
<g
   id="g52">
</g>
<g
   id="g54">
</g>
</svg>