<?xml version="1.0" encoding="UTF-8" standalone="no"?>
<!-- Generator: Adobe Illustrator 18.0.0, SVG Export Plug-In . SVG Version: 6.00 Build 0)  -->

<svg
   xmlns:dc="http://purl.org/dc/elements/1.1/"
   xmlns:cc="http://creativecommons.org/ns#"
   xmlns:rdf="http://www.w3.org/1999/02/22-rdf-syntax-ns#"
   xmlns:svg="http://www.w3.org/2000/svg"
   xmlns="http://www.w3.org/2000/svg"
   xmlns:sodipodi="http://sodipodi.sourceforge.net/DTD/sodipodi-0.dtd"
   xmlns:inkscape="http://www.inkscape.org/namespaces/inkscape"
   version="1.1"
   id="Capa_1"
   x="0px"
   y="0px"
   viewBox="0 0 56.538 56.538"
   style="enable-background:new 0 0 56.538 56.538;"
   xml:space="preserve"
   sodipodi:docname="parsley_root.svg"
   inkscape:version="0.92.4 (5da689c313, 2019-01-14)"><metadata
   id="metadata87"><rdf:RDF><cc:Work
       rdf:about=""><dc:format>image/svg+xml</dc:format><dc:type
         rdf:resource="http://purl.org/dc/dcmitype/StillImage" /></cc:Work></rdf:RDF></metadata><defs
   id="defs85">
	
	
	
	
	
	
	
	
</defs><sodipodi:namedview
   pagecolor="#ffffff"
   bordercolor="#666666"
   borderopacity="1"
   objecttolerance="10"
   gridtolerance="10"
   guidetolerance="10"
   inkscape:pageopacity="0"
   inkscape:pageshadow="2"
   inkscape:window-width="1920"
   inkscape:window-height="1017"
   id="namedview83"
   showgrid="false"
   inkscape:zoom="8.3483677"
   inkscape:cx="25.992751"
   inkscape:cy="26.687376"
   inkscape:window-x="-8"
   inkscape:window-y="-8"
   inkscape:window-maximized="1"
   inkscape:current-layer="Capa_1" />
<path
   inkscape:connector-curvature="0"
   id="path2"
   d="m 34.685,22.808 c 0,0 12.342,-7.316 20.178,3.022 0,0 2.032,2.35 0.47,4.6 -1.537,2.212 -4.968,1.742 -6.676,-0.603 -1.541,-2.115 -5.254,-4.8 -13.972,-7.019 z"
   style="fill:#88c057" /><path
   inkscape:connector-curvature="0"
   id="path4"
   d="m 34.685,22.808 c 0,0 7.506,-12.152 -2.145,-19.301 0,0 -3.185,-2.863 -6.062,-1.844 -2.676,0.947 -2.746,4.678 -0.284,6.089 2.698,1.547 6.394,5.411 8.491,15.056 z"
   style="fill:#88c057" /><path
   inkscape:connector-curvature="0"
   id="path6"
   d="m 54.604,26.466 c 0,0 0.067,0.086 0.155,0.205 0.257,-0.23 0.506,-0.478 0.732,-0.768 2.084,-2.67 0.414,-4.736 0.414,-4.736 -6.186,-9.306 -20.584,0.807 -20.584,0.807 0.693,0.048 1.341,0.11 1.968,0.176 4.117,-1.502 11.821,-2.932 17.315,4.316 z"
   style="fill:#88c057" /><path
   inkscape:connector-curvature="0"
   id="path8"
   d="m 32.541,3.507 c 7.445,5.514 4.681,14.002 3.028,17.596 0.003,0.081 0.009,0.154 0.012,0.235 0,0 10.275,-14.236 1.555,-19.836 0,0 -2.779,-2.377 -5.999,-0.74 -0.553,0.281 -1.03,0.645 -1.428,1.056 1.611,0.594 2.832,1.689 2.832,1.689 z"
   style="fill:#a4e869" /><path
   inkscape:connector-curvature="0"
   id="path10"
   d="m 50.459,6.131 c -3.647,-2.363 -8.276,1.205 -8.276,1.205 -0.768,0.92 -1.465,1.91 -2.108,2.927 -0.638,4.649 -3.667,9.674 -5.173,11.934 -0.089,0.314 -0.164,0.589 -0.216,0.787 1.745,-1.172 6.828,-4.343 11.824,-5.164 1.24,-0.822 2.422,-1.725 3.451,-2.705 5.515,-5.251 0.498,-8.984 0.498,-8.984 z"
   style="fill:#659c35" /><path
   inkscape:connector-curvature="0"
   id="path12"
   d="m 34.685,22.808 c 0,0 12.342,-7.316 20.178,3.022 0,0 2.032,2.35 0.47,4.6 -1.537,2.212 -4.968,1.742 -6.676,-0.603 -1.541,-2.115 -5.254,-4.8 -13.972,-7.019 z"
   style="fill:#a4e869" /><g
   id="g18"
   style="fill:#f4eed7">
		<path
   inkscape:connector-curvature="0"
   id="path14"
   d="m 35.376,21.701 c -0.281,0.547 -0.472,0.857 -0.472,0.857 0,0 0.468,-0.276 1.272,-0.643 -0.261,-0.072 -0.524,-0.143 -0.8,-0.214 z"
   style="fill:#f4eed7" />
		<path
   inkscape:connector-curvature="0"
   id="path16"
   d="m 41.809,28.277 c 0.421,-1.172 0.395,-2.334 0.132,-3.429 -1.879,-0.789 -4.186,-1.565 -7.037,-2.29 C 34.213,19.381 33.348,16.842 32.403,14.796 31.1,14.343 29.675,14.182 28.233,14.7 23.708,16.326 3.81,44.955 0.089,54.937 c -0.35,0.939 0.387,1.675 1.325,1.325 9.982,-3.721 38.769,-23.461 40.395,-27.985 z"
   style="fill:#f4eed7" />
	</g><g
   id="g48"
   style="fill:#decd87">
		<path
   inkscape:connector-curvature="0"
   id="path20"
   d="M 8.236,46.857 C 7.562,46.535 6.907,46.142 6.289,45.689 5.843,45.361 5.218,45.459 4.892,45.904 c -0.326,0.445 -0.23,1.071 0.215,1.397 0.718,0.527 1.481,0.985 2.267,1.36 0.139,0.066 0.286,0.098 0.431,0.098 0.373,0 0.731,-0.21 0.903,-0.569 0.237,-0.498 0.026,-1.096 -0.472,-1.333 z"
   style="fill:#decd87" />
		<path
   inkscape:connector-curvature="0"
   id="path22"
   d="m 39.161,27.824 c -2.046,-0.78 -3.945,-2.182 -5.642,-4.167 -0.359,-0.42 -0.99,-0.469 -1.41,-0.11 -0.42,0.359 -0.469,0.99 -0.11,1.41 1.917,2.242 4.087,3.836 6.45,4.737 0.117,0.044 0.237,0.066 0.356,0.066 0.403,0 0.782,-0.246 0.935,-0.645 0.196,-0.516 -0.063,-1.094 -0.579,-1.291 z"
   style="fill:#decd87" />
		<g
   id="g28"
   style="fill:#decd87">
			<path
   inkscape:connector-curvature="0"
   id="path24"
   d="m 22.722,19.948 c 0.389,0.101 0.701,0.428 0.748,0.854 0.179,1.632 1.022,3.747 2.505,4.792 0.451,0.318 0.559,0.942 0.24,1.394 -0.194,0.276 -0.504,0.423 -0.818,0.423 -0.199,0 -0.4,-0.059 -0.576,-0.183 -2.001,-1.411 -2.996,-3.947 -3.284,-5.847"
   style="fill:#decd87" />
			<path
   inkscape:connector-curvature="0"
   id="path26"
   d="m 24.821,27.228 c 0.175,0.124 0.376,0.183 0.576,0.183 0.314,0 0.624,-0.147 0.818,-0.423 0.318,-0.452 0.211,-1.075 -0.24,-1.394 -1.482,-1.046 -2.326,-3.161 -2.505,-4.792 -0.047,-0.425 -0.359,-0.753 -0.748,-0.854 -0.385,0.457 -0.779,0.931 -1.185,1.432 0.288,1.901 1.283,4.437 3.284,5.848 z"
   style="fill:#decd87" />
		</g>
		<g
   id="g34"
   style="fill:#decd87">
			<path
   inkscape:connector-curvature="0"
   id="path30"
   d="m 30.348,38.578 c -1.89,-0.306 -4.369,-1.302 -5.758,-3.271 -0.318,-0.451 -0.21,-1.075 0.241,-1.394 0.45,-0.318 1.075,-0.21 1.394,0.241 1.045,1.481 3.16,2.326 4.792,2.505 0.438,0.048 0.766,0.375 0.856,0.782"
   style="fill:#decd87" />
			<path
   inkscape:connector-curvature="0"
   id="path32"
   d="m 31.018,36.659 c -1.633,-0.179 -3.748,-1.023 -4.792,-2.505 -0.318,-0.451 -0.944,-0.56 -1.394,-0.241 -0.452,0.318 -0.56,0.942 -0.241,1.394 1.389,1.969 3.868,2.965 5.758,3.271 0.519,-0.383 1.028,-0.761 1.525,-1.136 -0.09,-0.408 -0.419,-0.735 -0.856,-0.783 z"
   style="fill:#decd87" />
		</g>
		<g
   id="g40"
   style="fill:#decd87">
			<path
   inkscape:connector-curvature="0"
   id="path36"
   d="m 14.756,30.41 c 0.399,0.094 0.72,0.424 0.768,0.856 0.112,1.025 0.635,2.349 1.549,2.995 0.451,0.318 0.559,0.942 0.24,1.394 -0.195,0.276 -0.504,0.423 -0.818,0.423 -0.199,0 -0.4,-0.059 -0.576,-0.183 -1.328,-0.937 -2.04,-2.56 -2.299,-3.865"
   style="fill:#decd87" />
			<path
   inkscape:connector-curvature="0"
   id="path38"
   d="m 15.92,35.895 c 0.175,0.124 0.376,0.183 0.576,0.183 0.314,0 0.623,-0.147 0.818,-0.423 0.318,-0.451 0.211,-1.075 -0.24,-1.394 -0.915,-0.646 -1.437,-1.969 -1.549,-2.995 -0.047,-0.433 -0.368,-0.763 -0.768,-0.856 -0.379,0.535 -0.757,1.075 -1.136,1.62 0.259,1.305 0.971,2.928 2.299,3.865 z"
   style="fill:#decd87" />
		</g>
		<g
   id="g46"
   style="fill:#decd87">
			<path
   inkscape:connector-curvature="0"
   id="path42"
   d="m 18.024,47.047 c -1.357,-0.177 -3.244,-0.888 -4.285,-2.365 -0.318,-0.452 -0.211,-1.075 0.24,-1.394 0.452,-0.32 1.076,-0.21 1.394,0.24 0.646,0.915 1.969,1.437 2.994,1.549 0.549,0.06 0.945,0.554 0.885,1.103 -0.003,0.031 -0.02,0.057 -0.026,0.087"
   style="fill:#decd87" />
			<path
   inkscape:connector-curvature="0"
   id="path44"
   d="m 18.367,45.078 c -1.025,-0.112 -2.349,-0.635 -2.994,-1.549 -0.318,-0.451 -0.941,-0.56 -1.394,-0.24 -0.451,0.318 -0.559,0.942 -0.24,1.394 1.042,1.477 2.928,2.188 4.285,2.365 0.4,-0.257 0.801,-0.518 1.202,-0.779 0.006,-0.03 0.023,-0.056 0.026,-0.087 0.061,-0.549 -0.336,-1.044 -0.885,-1.104 z"
   style="fill:#decd87" />
		</g>
	</g>
<g
   id="g52">
</g>
<g
   id="g54">
</g>
<g
   id="g56">
</g>
<g
   id="g58">
</g>
<g
   id="g60">
</g>
<g
   id="g62">
</g>
<g
   id="g64">
</g>
<g
   id="g66">
</g>
<g
   id="g68">
</g>
<g
   id="g70">
</g>
<g
   id="g72">
</g>
<g
   id="g74">
</g>
<g
   id="g76">
</g>
<g
   id="g78">
</g>
<g
   id="g80">
</g>
</svg>