<?xml version="1.0" encoding="iso-8859-1"?>
<!-- Generator: Adobe Illustrator 19.0.0, SVG Export Plug-In . SVG Version: 6.00 Build 0)  -->
<svg version="1.1" id="Capa_1" xmlns="http://www.w3.org/2000/svg" xmlns:xlink="http://www.w3.org/1999/xlink" x="0px" y="0px"
	 viewBox="0 0 512 512" style="enable-background:new 0 0 512 512;" xml:space="preserve">
<path style="fill:#30AA44;" d="M260.674,273.09c3.516-0.638,7.109-1.044,10.765-1.195c-11.968-40.922-33.495-51.236-24.059-88.261
	c8.631-33.867-7.156-49.058-16.492-54.851c-3.379-2.097-5.038-6.119-4.277-10.023c6.77-34.74-25.447-64.267-54.419-52.82
	c-23.631,9.337-24.054,30.099-22.947,39.347c0.364,3.039-0.198,6.121-1.631,8.825c-14.922,28.156,4.752,46.04,15.106,53.026
	c2.685,1.812,3.637,5.224,2.543,8.272c-2.687,7.486-1.058,23.054,39.653,43.658C231.769,232.66,249.433,255.094,260.674,273.09z"/>
<path style="fill:#269E35;" d="M226.456,219.069c-40.711-20.603-42.34-36.171-39.653-43.657c1.094-3.049,0.142-6.46-2.543-8.272
	c-10.354-6.987-30.028-24.87-15.106-53.026c1.433-2.705,1.995-5.786,1.631-8.825c-1.107-9.248-0.684-30.009,22.947-39.347
	c0.789-0.312,1.581-0.588,2.373-0.839c-7.623-2.354-15.893-2.331-23.915,0.839c-23.63,9.337-24.054,30.099-22.947,39.347
	c0.364,3.039-0.198,6.121-1.631,8.825c-14.921,28.156,4.752,46.039,15.106,53.026c2.685,1.812,3.637,5.224,2.543,8.272
	c-2.687,7.486-1.058,23.054,39.653,43.657c26.855,13.591,44.519,36.025,55.76,54.021c3.516-0.638,7.11-1.044,10.765-1.195
	c-3.117-10.659-6.882-19.232-10.581-26.751C251.551,235.323,240.217,226.033,226.456,219.069z"/>
<path style="fill:#3BBC56;" d="M357.83,200.493c-20.414-14.97-51.139,25.349-69.218,53.632c21.942-49.65,4.518-72.072,39.237-99.933
	c29.842-23.947,26.029-47.627,21.675-58.839c-1.576-4.058-0.379-8.669,2.855-11.583c28.788-25.935,20.038-72.97-12.841-82.024
	c-26.818-7.385-40.853,10.499-45.971,19.318c-1.682,2.898-4.202,5.224-7.236,6.646c-31.585,14.81-26.145,43.404-21.686,56.33
	c1.156,3.352-0.257,6.964-3.22,8.91c-7.278,4.781-16.1,19.472,5.955,64.291c22.216,45.149,15.281,92.071,9.259,114.615
	c5.712,0.13,11.272,0.868,16.625,2.143C338.216,255.712,387.269,222.082,357.83,200.493z"/>
<path style="fill:#30AA44;" d="M297.242,271.857c2.491-9.327,5.133-22.832,5.808-38.652c-5.307,7.059-10.217,14.318-14.438,20.921
	c8.887-20.109,11.316-35.751,13.368-49.098c-1.871-15.365-6.074-31.686-13.996-47.786c-22.054-44.819-13.232-59.51-5.955-64.291
	c2.963-1.947,4.376-5.558,3.22-8.91c-4.459-12.927-9.9-41.52,21.686-56.33c3.034-1.422,5.554-3.748,7.236-6.646
	c3.462-5.965,11.011-16.068,23.828-19.703c-25.812-6.292-39.414,11.055-44.432,19.703c-1.682,2.898-4.202,5.224-7.236,6.646
	c-31.585,14.81-26.145,43.404-21.686,56.33c1.156,3.352-0.257,6.964-3.22,8.91c-7.278,4.781-16.099,19.472,5.955,64.291
	c22.216,45.149,15.281,92.071,9.259,114.615c5.712,0.13,11.272,0.868,16.626,2.143c1.662-0.676,3.33-1.376,4.999-2.093
	C297.921,271.895,297.585,271.864,297.242,271.857z"/>
<path style="fill:#E5E1E1;" d="M354.192,349.155c0-44.88-37.238-81.063-82.503-79.336c-69.512,2.652-102.463,88.469-51.619,136.837
	c23.271,22.138,40.022,50.23,46.901,81.604l4.645,21.182c0.748,3.411,5.612,3.411,6.36,0c5.185-23.644,11.382-66.128,50.32-101.644
	C344.208,393.285,354.192,372.39,354.192,349.155z"/>
<path style="fill:#BABABA;" d="M240.957,406.656c-48.993-46.607-20.175-127.973,44.181-136.21c-4.383-0.57-8.872-0.802-13.449-0.627
	c-69.512,2.652-102.463,88.469-51.619,136.837c23.271,22.138,40.022,50.23,46.901,81.603l4.645,21.182
	c0.748,3.411,5.612,3.411,6.36,0c1.839-8.384,3.812-19.143,7.32-31.114C277.302,450.96,261.742,426.428,240.957,406.656z"/>
<path style="fill:#E0B377;" d="M271.689,269.819c-15.394,0.587-29.715,5.652-41.697,13.909
	c11.982,8.257,26.302,13.322,41.697,13.909c17.875,0.682,34.485-4.566,48.058-13.909
	C306.175,274.385,289.564,269.137,271.689,269.819z"/>
<path style="fill:#CC9A5E;" d="M285.138,270.446c-4.352-0.566-8.809-0.797-13.353-0.629c-0.032,0.001-0.064,0-0.096,0.002
	c-0.056,0.002-0.11,0.007-0.166,0.009c-0.927,0.037-1.846,0.091-2.759,0.158c-14.282,1.079-27.552,6.01-38.771,13.742
	c3.799,2.618,7.835,4.912,12.064,6.847C253.36,280.033,267.986,272.641,285.138,270.446z"/>
<g>
	<path style="fill:#BABABA;" d="M277.017,386.915c-0.237,0.038-0.475,0.076-0.713,0.113"/>
	<path style="fill:#BABABA;" d="M351.717,329.461c-1.34-5.248-3.198-10.286-5.525-15.057c-0.38,0.209-0.751,0.444-1.102,0.723
		c-14.927,11.871-41.717,19.245-69.914,19.245c-4.971,0-9.953-0.222-14.807-0.661c-4.25-0.381-8.007,2.751-8.391,7
		c-0.384,4.25,2.751,8.007,7,8.391c5.315,0.48,10.765,0.723,16.198,0.723C305.452,349.826,333.688,342.26,351.717,329.461z"/>
	<path style="fill:#BABABA;" d="M229.119,327.377c-9.562-3.206-17.812-7.443-23.859-12.252c-0.476-0.379-0.986-0.685-1.514-0.934
		c-2.335,4.782-4.213,9.784-5.585,14.927c7.127,5.158,15.865,9.498,26.045,12.911c0.815,0.273,1.643,0.403,2.457,0.403
		c3.23,0,6.242-2.041,7.325-5.272C235.345,333.113,233.165,328.733,229.119,327.377z"/>
	<path style="fill:#BABABA;" d="M353.867,356.322c-0.52,0.29-1.017,0.637-1.474,1.058c-9.082,8.361-24.412,15.12-43.167,19.032
		c-4.177,0.871-6.858,4.964-5.986,9.141c0.76,3.646,3.974,6.151,7.556,6.151c0.523,0,1.054-0.053,1.586-0.164
		c13.768-2.871,26.073-7.241,36.066-12.703C351.297,371.779,353.16,364.218,353.867,356.322z"/>
</g>
<g>
</g>
<g>
</g>
<g>
</g>
<g>
</g>
<g>
</g>
<g>
</g>
<g>
</g>
<g>
</g>
<g>
</g>
<g>
</g>
<g>
</g>
<g>
</g>
<g>
</g>
<g>
</g>
<g>
</g>
</svg>
