<?xml version="1.0" encoding="UTF-8" standalone="no"?>
<!-- Generator: Adobe Illustrator 18.0.0, SVG Export Plug-In . SVG Version: 6.00 Build 0)  -->

<svg
   xmlns:dc="http://purl.org/dc/elements/1.1/"
   xmlns:cc="http://creativecommons.org/ns#"
   xmlns:rdf="http://www.w3.org/1999/02/22-rdf-syntax-ns#"
   xmlns:svg="http://www.w3.org/2000/svg"
   xmlns="http://www.w3.org/2000/svg"
   xmlns:sodipodi="http://sodipodi.sourceforge.net/DTD/sodipodi-0.dtd"
   xmlns:inkscape="http://www.inkscape.org/namespaces/inkscape"
   version="1.1"
   id="Capa_1"
   x="0px"
   y="0px"
   viewBox="0 0 53.308 53.308"
   style="enable-background:new 0 0 53.308 53.308;"
   xml:space="preserve"
   sodipodi:docname="redberries.svg"
   inkscape:version="0.92.4 (5da689c313, 2019-01-14)"><metadata
   id="metadata69"><rdf:RDF><cc:Work
       rdf:about=""><dc:format>image/svg+xml</dc:format><dc:type
         rdf:resource="http://purl.org/dc/dcmitype/StillImage" /></cc:Work></rdf:RDF></metadata><defs
   id="defs67">
	
	
	
	
	
	
	
	
	
	
	
	
	
	
	
</defs><sodipodi:namedview
   pagecolor="#ffffff"
   bordercolor="#666666"
   borderopacity="1"
   objecttolerance="10"
   gridtolerance="10"
   guidetolerance="10"
   inkscape:pageopacity="0"
   inkscape:pageshadow="2"
   inkscape:window-width="1920"
   inkscape:window-height="1017"
   id="namedview65"
   showgrid="false"
   inkscape:zoom="2.2135515"
   inkscape:cx="-11.554876"
   inkscape:cy="18.987103"
   inkscape:window-x="-8"
   inkscape:window-y="-8"
   inkscape:window-maximized="1"
   inkscape:current-layer="Capa_1" />
<path
   inkscape:connector-curvature="0"
   id="path2"
   d="m 39.685,2.953 c -7.524,0 -13.623,6.099 -13.623,13.623 0,2.243 0.552,4.353 1.512,6.219 1.496,-0.565 3.11,-0.888 4.804,-0.888 5.281,0 9.851,3.011 12.111,7.404 5.15,-1.944 8.819,-6.905 8.819,-12.735 0,-7.524 -6.1,-13.623 -13.623,-13.623 z"
   style="fill:#800033" /><path
   inkscape:connector-curvature="0"
   id="path4"
   d="m 18.754,35.53 c 0,-5.652 3.443,-10.499 8.345,-12.561 C 26.172,16.347 20.501,11.246 13.624,11.246 6.099,11.245 0,17.344 0,24.868 c 0,7.524 6.099,13.623 13.623,13.623 1.872,0 3.655,-0.379 5.279,-1.062 -0.088,-0.622 -0.148,-1.253 -0.148,-1.899 z"
   style="fill:#d40055" /><circle
   id="circle6"
   r="14.825"
   cy="35.529999"
   cx="32.577"
   style="fill:#f40065;fill-opacity:1" /><path
   inkscape:connector-curvature="0"
   id="path8"
   d="m 28.103,32.153 c -0.317,0 -0.629,-0.15 -0.824,-0.432 -0.314,-0.454 -0.2,-1.077 0.254,-1.391 l 2.841,-1.964 c 1.132,-0.781 2.656,-0.705 3.704,0.186 l 2.165,1.839 c 0.421,0.357 0.472,0.989 0.115,1.41 -0.358,0.421 -0.989,0.473 -1.41,0.115 l -2.165,-1.839 c -0.355,-0.302 -0.89,-0.328 -1.272,-0.064 l -2.841,1.964 c -0.173,0.118 -0.371,0.176 -0.567,0.176 z"
   style="fill:#5e0025;fill-opacity:1" /><path
   inkscape:connector-curvature="0"
   id="path10"
   d="m 28.606,28.597 h -2.355 c -0.552,0 -1,-0.448 -1,-1 0,-0.552 0.448,-1 1,-1 h 2.355 c 0.48,0 0.81,-0.283 0.839,-0.398 l 0.45,-1.788 c 0.135,-0.536 0.679,-0.859 1.214,-0.726 0.536,0.135 0.86,0.678 0.726,1.214 l -0.45,1.788 c -0.276,1.089 -1.47,1.91 -2.779,1.91 z"
   style="fill:#5e0025;fill-opacity:1" /><path
   inkscape:connector-curvature="0"
   id="path12"
   d="m 37.842,28.597 c -0.029,0 -0.059,-0.001 -0.089,-0.004 L 34.859,28.337 C 33.53,28.219 32.454,27.295 32.357,26.188 l -0.126,-1.446 c -0.048,-0.55 0.359,-1.035 0.909,-1.083 0.564,-0.059 1.035,0.36 1.083,0.909 l 0.126,1.445 c 0.025,0.069 0.27,0.294 0.686,0.331 L 37.93,26.6 c 0.55,0.049 0.957,0.534 0.908,1.084 -0.047,0.521 -0.483,0.913 -0.996,0.913 z"
   style="fill:#5e0025;fill-opacity:1" /><path
   inkscape:connector-curvature="0"
   id="path14"
   d="m 9.262,21.651 c -0.317,0 -0.629,-0.15 -0.824,-0.432 -0.314,-0.454 -0.2,-1.077 0.254,-1.391 l 2.841,-1.964 c 1.132,-0.781 2.656,-0.704 3.704,0.186 l 2.165,1.838 c 0.421,0.357 0.472,0.988 0.115,1.41 -0.357,0.422 -0.988,0.471 -1.41,0.115 L 13.941,19.574 C 13.587,19.273 13.052,19.245 12.67,19.51 l -2.84,1.964 c -0.174,0.119 -0.372,0.177 -0.568,0.177 z"
   style="fill:#5e0025;fill-opacity:1" /><path
   inkscape:connector-curvature="0"
   id="path16"
   d="M 9.765,18.095 H 7.41 c -0.552,0 -1,-0.448 -1,-1 0,-0.552 0.448,-1 1,-1 h 2.355 c 0.48,0 0.81,-0.283 0.839,-0.398 l 0.45,-1.788 c 0.135,-0.536 0.678,-0.86 1.214,-0.726 0.536,0.135 0.86,0.678 0.726,1.214 l -0.45,1.788 c -0.275,1.089 -1.47,1.91 -2.779,1.91 z"
   style="fill:#5e0025;fill-opacity:1" /><path
   inkscape:connector-curvature="0"
   id="path18"
   d="m 19.001,18.095 c -0.029,0 -0.059,-10e-4 -0.089,-0.004 L 16.018,17.835 C 14.689,17.717 13.613,16.793 13.516,15.686 L 13.39,14.241 c -0.048,-0.55 0.359,-1.036 0.909,-1.083 0.565,-0.057 1.036,0.359 1.083,0.909 l 0.126,1.445 c 0.025,0.069 0.27,0.295 0.686,0.332 l 2.895,0.256 c 0.55,0.049 0.957,0.534 0.908,1.084 -0.047,0.519 -0.483,0.911 -0.996,0.911 z"
   style="fill:#5e0025;fill-opacity:1" /><path
   inkscape:connector-curvature="0"
   id="path20"
   d="m 35.262,13.153 c -0.317,0 -0.629,-0.15 -0.824,-0.432 -0.314,-0.454 -0.2,-1.077 0.254,-1.391 l 2.841,-1.964 c 1.132,-0.782 2.655,-0.704 3.704,0.186 l 2.165,1.838 c 0.421,0.357 0.472,0.988 0.115,1.41 -0.357,0.422 -0.989,0.472 -1.41,0.115 L 39.941,11.076 C 39.587,10.775 39.053,10.748 38.67,11.012 l -2.841,1.964 c -0.173,0.119 -0.371,0.177 -0.567,0.177 z"
   style="fill:#5e0025;fill-opacity:1" /><path
   inkscape:connector-curvature="0"
   id="path22"
   d="M 35.765,9.597 H 33.41 c -0.552,0 -1,-0.448 -1,-1 0,-0.552 0.448,-1 1,-1 h 2.355 c 0.48,0 0.81,-0.283 0.839,-0.398 l 0.45,-1.788 c 0.135,-0.536 0.677,-0.86 1.214,-0.726 0.536,0.135 0.86,0.678 0.726,1.214 l -0.45,1.788 c -0.275,1.089 -1.47,1.91 -2.779,1.91 z"
   style="fill:#5e0025;fill-opacity:1" /><path
   inkscape:connector-curvature="0"
   id="path24"
   d="m 45.001,9.597 c -0.029,0 -0.059,-10e-4 -0.089,-0.004 L 42.018,9.337 C 40.689,9.219 39.613,8.295 39.516,7.188 L 39.39,5.743 c -0.048,-0.55 0.359,-1.036 0.909,-1.083 0.563,-0.057 1.036,0.359 1.083,0.909 l 0.126,1.445 c 0.025,0.069 0.27,0.295 0.686,0.332 l 2.895,0.256 c 0.55,0.049 0.957,0.534 0.908,1.084 -0.047,0.519 -0.483,0.911 -0.996,0.911 z"
   style="fill:#5e0025;fill-opacity:1" /><path
   inkscape:connector-curvature="0"
   id="path26"
   d="M 7.022,32.153 C 6.848,32.153 6.67,32.108 6.51,32.011 2.263,29.472 2.875,22.886 2.903,22.607 c 0.056,-0.549 0.55,-0.942 1.094,-0.895 0.549,0.055 0.95,0.544 0.896,1.093 -0.005,0.056 -0.51,5.604 2.643,7.489 0.474,0.283 0.628,0.897 0.345,1.372 -0.188,0.313 -0.519,0.487 -0.859,0.487 z"
   style="fill:#aa0042;fill-opacity:1" /><path
   inkscape:connector-curvature="0"
   id="path28"
   d="m 24.35,43.307 c -0.175,0 -0.352,-0.045 -0.512,-0.142 -4.247,-2.539 -3.635,-9.125 -3.607,-9.404 0.056,-0.549 0.55,-0.944 1.094,-0.895 0.549,0.055 0.95,0.544 0.896,1.093 -0.005,0.056 -0.51,5.604 2.643,7.489 0.474,0.283 0.628,0.897 0.345,1.372 -0.187,0.313 -0.519,0.487 -0.859,0.487 z"
   style="fill:#aa0042;fill-opacity:1" /><path
   inkscape:connector-curvature="0"
   id="path30"
   d="m 29.743,20.366 c -0.324,0 -0.642,-0.157 -0.834,-0.448 -2.733,-4.125 0.665,-9.8 0.811,-10.04 0.288,-0.471 0.902,-0.62 1.373,-0.333 0.471,0.287 0.622,0.901 0.335,1.373 -0.029,0.048 -2.881,4.833 -0.853,7.896 0.305,0.46 0.179,1.081 -0.281,1.386 -0.17,0.113 -0.362,0.166 -0.551,0.166 z"
   style="fill:#aa0042;fill-opacity:1" />
<g
   id="g34">
</g>
<g
   id="g36">
</g>
<g
   id="g38">
</g>
<g
   id="g40">
</g>
<g
   id="g42">
</g>
<g
   id="g44">
</g>
<g
   id="g46">
</g>
<g
   id="g48">
</g>
<g
   id="g50">
</g>
<g
   id="g52">
</g>
<g
   id="g54">
</g>
<g
   id="g56">
</g>
<g
   id="g58">
</g>
<g
   id="g60">
</g>
<g
   id="g62">
</g>
</svg>