<svg height="512pt" viewBox="0 -8 512.00364 512" width="512pt" xmlns="http://www.w3.org/2000/svg" xmlns:xlink="http://www.w3.org/1999/xlink"><linearGradient id="a" gradientTransform="matrix(.709873 .709873 -.709873 .709873 408.080159 -931.578731)" gradientUnits="userSpaceOnUse" x1="642.5311" x2="804.9301" y1="766.2023" y2="766.2023"><stop offset="0" stop-color="#acc130"/><stop offset="1" stop-color="#97a03b"/></linearGradient><linearGradient id="b" gradientTransform="matrix(.709873 .709873 -.709873 .709873 408.080159 -931.578731)" gradientUnits="userSpaceOnUse" x1="779.658" x2="705.4583" y1="767.2289" y2="767.2289"><stop offset="0" stop-color="#97a03b" stop-opacity="0"/><stop offset="1" stop-color="#575c55"/></linearGradient><linearGradient id="c" gradientTransform="matrix(.709873 .709873 -.709873 .709873 408.080159 -931.578731)" gradientUnits="userSpaceOnUse" x1="688.4254" x2="750.4561" y1="798.0488" y2="812.6949"><stop offset="0" stop-color="#97a03b"/><stop offset="1" stop-color="#6c7d47"/></linearGradient><linearGradient id="d" gradientTransform="matrix(.709873 .709873 -.709873 .709873 223.377564 -123.181931)" gradientUnits="userSpaceOnUse" x1="169.6079" x2="494.5915" y1="395.5125" y2="395.5125"><stop offset="0" stop-color="#f2e9dc"/><stop offset=".2282" stop-color="#f0e4d7"/><stop offset=".5158" stop-color="#ead7c7"/><stop offset=".8338" stop-color="#e0c2ad"/><stop offset="1" stop-color="#dab49d"/></linearGradient><linearGradient id="e"><stop offset="0" stop-color="#dab49d" stop-opacity="0"/><stop offset=".2054" stop-color="#d8b198" stop-opacity=".203922"/><stop offset=".4642" stop-color="#d3a788" stop-opacity=".462745"/><stop offset=".7504" stop-color="#ca976e" stop-opacity=".74902"/><stop offset="1" stop-color="#c08552"/></linearGradient><linearGradient id="f" gradientTransform="matrix(.749327 .627551 -.644618 .769606 330.360566 -841.047494)" gradientUnits="userSpaceOnUse" x1="683.0051" x2="680.5199" xlink:href="#e" y1="972.6739" y2="1011.1939"/><linearGradient id="g" gradientTransform="matrix(.987658 .620725 -.727542 1.157722 50.908758 -847.47982)" gradientUnits="userSpaceOnUse" x1="633.4644" x2="630.9798" xlink:href="#e" y1="614.2932" y2="652.8044"/><linearGradient id="h" gradientTransform="matrix(.828235 .567416 -.567416 .828235 226.405893 -761.465426)" gradientUnits="userSpaceOnUse" x1="575.4922" x2="572.9073" xlink:href="#e" y1="944.2991" y2="984.3637"/><linearGradient id="i" gradientTransform="matrix(.661785 .453471 -.567416 .828235 442.532337 -612.772494)" gradientUnits="userSpaceOnUse" x1="357.4571" x2="354.8726" xlink:href="#e" y1="1048.8101" y2="1088.8694"/><linearGradient id="j" gradientTransform="matrix(.942883 .646024 -.567416 .828235 19.4571 -902.826116)" gradientUnits="userSpaceOnUse" x1="705.617" x2="703.0324" xlink:href="#e" y1="1022.2351" y2="1062.2963"/><linearGradient id="k"><stop offset="0" stop-color="#f2e9dc" stop-opacity="0"/><stop offset=".6804" stop-color="#cfa37b" stop-opacity=".682353"/><stop offset="1" stop-color="#c08552"/></linearGradient><linearGradient id="l" gradientTransform="matrix(.709873 .709873 -.709873 .709873 223.377564 -123.181931)" gradientUnits="userSpaceOnUse" x1="281.7145" x2="282.8202" xlink:href="#k" y1="509.0148" y2="574.8005"/><linearGradient id="m" gradientTransform="matrix(.709873 .709873 -.709873 .709873 223.377564 -123.181931)" gradientUnits="userSpaceOnUse" x1="365.1318" x2="185.9004" xlink:href="#k" y1="286.8158" y2="161.0026"/><path d="m403.066406 212.339844c-29.390625 42.933594-121.414062 36.351562-145.0625 33.886718-3.578125-.375-5.589844-.660156-5.589844-.660156s-.296874-1.023437-.761718-2.902344c-.289063-1.164062-.644532-2.65625-1.035156-4.441406-4.117188-18.644531-12.085938-68.609375 11.460937-99.570312 29.414063-38.648438 33.171875 3.042968 33.171875 3.042968s11.394531-62.714843 46.710938-94.777343c34.871093-31.636719 25.941406 22.421875 25.710937 23.824219.53125-1.417969 24.859375-64.972657 62.550781-70.304688 38.121094-5.40625 5.925782 41.3125 5.925782 41.3125s47.554687-47.15625 70.527343-31.539062c3.132813 2.132812 4.75 4.765624 5.191407 7.726562.007812.039062.011718.074219.015624.113281.035157.234375.058594.480469.074219.722657.03125.28125.039063.558593.042969.851562 0 .285156-.007812.578125-.023438.863281-.03125.570313-.097656 1.167969-.207031 1.757813 0 .042968-.019531.089844-.019531.136718-.054688.261719-.105469.527344-.164062.785157-.109376.492187-.246094.988281-.402344 1.5-.136719.417969-.277344.847656-.4375 1.289062-.113282.3125-.242188.628907-.371094.941407-.140625.324218-.277344.644531-.421875.960937s-.296875.636719-.457031.96875c-.308594.640625-.660156 1.289063-1.03125 1.945313-.160156.285156-.324219.5625-.496094.851562-.214844.371094-.445312.742188-.683594 1.105469-.203125.335937-.425781.667969-.636718.996093-.21875.335938-.449219.660157-.675782.988282-.222656.335937-.464844.664062-.699218.996094-1.191407 1.648437-2.503907 3.3125-3.886719 4.957031-.472657.570312-.96875 1.136719-1.472657 1.710937-.367187.410156-.726562.8125-1.101562 1.230469-.492188.535156-.988281 1.074219-1.496094 1.609375-.054687.070312-.109375.125-.175781.191406-.179687.195313-.371094.402344-.5625.589844-11.429687 11.957031-25.125 21.953125-25.726563 22.398438.902344-.316407 34.4375-12.074219 40.070313 8.378906 5.675781 20.570312-77.082031 45.503906-78.386719 45.894531.847656.121094 42.007813 6.117187 30.585938 31.695313-11.460938 25.636718-95.316406 35.828124-96.609375 35.980468 1.144531.050782 50.078125 2.238282 36.554687 21.992188zm0 0" fill="url(#a)"/><path d="m403.066406 212.339844c-29.390625 42.933594-121.414062 36.351562-145.0625 33.886718-3.578125-.375-5.589844-.660156-5.589844-.660156s-.296874-1.023437-.761718-2.902344c59.644531-74.953124 129.257812-133.839843 184.980468-174.539062 30.5625-22.316406 56.949219-39.15625 75.234376-50.1875.007812.035156.011718.074219.019531.109375.03125.238281.054687.484375.074219.722656.027343.285157.035156.5625.042968.855469 0 .285156-.007812.574219-.023437.863281-.039063.578125-.101563 1.164063-.207031 1.757813-.003907.042968-.019532.089844-.023438.132812-.050781.265625-.101562.53125-.160156.789063-.109375.492187-.25.988281-.40625 1.5-.132813.417969-.277344.847656-.433594 1.289062-.117188.3125-.246094.628907-.375.941407-.136719.324218-.273438.644531-.417969.960937-.144531.3125-.296875.636719-.457031.96875-.3125.636719-.660156 1.285156-1.035156 1.945313-.15625.285156-.324219.5625-.496094.851562-.214844.371094-.445312.742188-.679688 1.105469-.207031.335937-.425781.667969-.640624.996093-.21875.332032-.445313.660157-.675782.988282-.21875.332031-.460937.660156-.699218.996094-1.1875 1.644531-2.5 3.3125-3.886719 4.953124-.472657.574219-.96875 1.140626-1.472657 1.714844-.363281.410156-.722656.8125-1.097656 1.230469-.496094.535156-.988281 1.070313-1.496094 1.609375-.058593.070312-.113281.125-.175781.1875-.183593.199219-.375.402344-.5625.59375-11.433593 11.957031-25.128906 21.953125-25.726562 22.398438.898437-.316407 34.433593-12.074219 40.070312 8.378906 5.671875 20.570312-77.085937 45.503906-78.386719 45.894531.847657.121094 42.007813 6.117187 30.582032 31.691406-11.457032 25.640625-95.316406 35.828125-96.605469 35.980469 1.140625.054688 50.074219 2.242188 36.550781 21.996094zm0 0" fill="url(#b)"/><path d="m281.121094 227.828125c-3.6875-.023437-7.378906 1.589844-10.050782 4.433594l-.039062.054687-7.5 7.984375c-1.867188 1.949219-3.707031 3.929688-5.53125 5.925781-3.578125-.375-5.585938-.660156-5.585938-.660156s-.296874-1.023437-.765624-2.902344c-.289063-1.164062-.640626-2.65625-1.035157-4.441406 1.382813-1.753906 2.769531-3.492187 4.160157-5.238281 1.859374-2.257813 3.691406-4.53125 5.546874-6.796875 2.054688-2.527344 3.160157-5.636719 3.078126-8.710938-1-39.457031 23.613281-67.597656 15.867187-50.039062-5.402344 12.234375-7.390625 32.683594-8.109375 45.832031 4.046875-4.714843 8.132812-9.394531 12.226562-14.0625 4.953126-5.476562 9.988282-10.878906 14.988282-16.324219 2.480468-2.734374 5.070312-5.355468 7.660156-7.996093l2.53125-2.589844c4.132812-4.230469 6.800781-9.660156 7.417969-15.285156 5.003906-45.515625 31.875-79.015625 22.03125-57.632813-7.195313 15.628906-11.675781 41.222656-13.929688 57.269532l5.457031-5.269532 8.027344-7.628906 4.019532-3.808594c1.335937-1.277344 2.679687-2.550781 4.070312-3.757812 2.394531-2.136719 6.371094-5.640625 10.226562-9.058594 6.542969-5.789062 11.453126-13.171875 14.207032-21.261719 16.746094-49.21875 53.539062-81.71875 37.898437-60.21875-12.265625 16.847657-24.523437 46.957031-30.660156 63.136719l1.875-1.535156c2.839844-2.339844 5.722656-4.640625 8.589844-6.953125 2.890625-2.292969 5.695312-4.683594 8.691406-6.839844 5.898437-4.433594 11.824219-8.808594 17.761719-13.152344l4.46875-3.230469c1.492187-1.078124 2.960937-2.175781 4.511718-3.175781 3.0625-2.039062 6.105469-4.101562 9.191407-6.101562.410156-.273438.816406-.546875 1.21875-.808594 1.421875-.941406 2.785156-.070313 2.996093 1.140625.132813.625-.0625 1.347656-.726562 1.953125-.363281.332031-.71875.660156-1.070312.984375-2.714844 2.484375-5.441407 4.925781-8.164063 7.382812-1.371094 1.214844-2.699219 2.46875-4.035156 3.730469l-3.996094 3.785157c-5.34375 5.003906-10.707031 9.984374-16.101563 14.910156-5.371093 4.941406-10.574218 10.101562-15.894531 15.082031-.503906.460937-1.003906.929687-1.5 1.402344 15.222657-5.253907 48.550781-17.542969 66.8125-30.199219 22.667969-15.726562-14.105469 23.734375-66.714843 38.140625-7.539063 2.0625-14.574219 6.167969-20.414063 11.707031-3.4375 3.265625-7.09375 6.738282-9.742187 9.273438-5.199219 5.097656-10.34375 10.269531-15.515626 15.398437l-7.667968 7.542969c14.304687-1.414062 46.257812-5.320312 64.714844-13.292969 22.296874-9.636719-14.851563 18.535157-62.609376 20.929688-6.371093.316406-12.648437 3.105469-17.371093 7.871093l-.199219.199219-3.84375 3.886719c-1.285156 1.285156-2.511719 2.640625-3.789062 3.929688-5.070313 5.242187-10.101563 10.515624-15.214844 15.714843-3.648438 3.847657-7.277344 7.71875-10.929688 11.558594 13.140625-.457031 32.683594-1.988281 44.605469-6.925781 17.074219-7.074219-9 14.960937-46.144531 14.738281zm0 0" fill="url(#c)"/><path d="m282.242188 216.699219c-.953126-.980469-1.917969-1.953125-2.894532-2.914063-47.121094-46.492187-123.523437-44.429687-168.167968 4.445313-79.339844 86.851562-38.042969 75.027343-75.558594 141.953125-9.378906 16.730468-13.296875 37.558594-10.234375 56.566406 2.449219 15.210938.699219 30.820312-5.390625 44.972656-4.296875 9.984375-10.554688 21.265625-19.644532 32.273438-1.089843 1.316406.585938 3.105468 1.949219 2.078125 6.136719-4.609375 14.023438-11.265625 20.703125-19.238281 6.148438-7.335938 15.539063-10.308594 23.789063-11.394532 7.40625-.976562 14.894531-.078125 22.050781 2.066406 21.304688 6.390626 46.464844 2.890626 66.03125-8.074218 66.832031-37.453125 55.03125 3.792968 141.703125-75.332032 48.644531-44.40625 51.613281-120.214843 5.664063-167.402343zm0 0" fill="url(#d)"/><path d="m154.707031 295.269531c10.828125 5.863281 21.15625 12.523438 31.296875 19.539063 5.03125 3.554687 10.011719 7.203125 14.890625 11.003906 4.832031 3.859375 9.601563 7.820312 14.253907 11.953125 4.613281 4.171875 9.386718 8.238281 13.910156 12.640625 4.496094 4.425781 8.53125 9.371094 11.902344 14.824219 3.355468 5.464843 6.175781 11.371093 8.167968 17.617187 1.949219 6.234375 3.136719 12.90625 2.359375 19.546875l-1.464843.355469c-3.398438-5.40625-6.792969-10.214844-10.367188-14.890625-3.558594-4.660156-7.214844-9.160156-10.953125-13.636719-3.769531-4.449218-7.398437-9.019531-10.902344-13.800781-3.535156-4.757813-7.171875-9.53125-11.191406-13.972656-4.007813-4.457031-8.171875-8.796875-12.433594-13.0625-4.207031-4.324219-8.554687-8.535157-12.976562-12.675781-8.804688-8.335938-17.953125-16.382813-27.335938-24.179688zm0 0" fill="url(#f)"/><path d="m150.859375 219.429688c13.976563 4.828124 27.40625 10.816406 40.632813 17.304687 6.570312 3.316406 13.085937 6.765625 19.496093 10.4375 6.351563 3.757813 12.632813 7.667969 18.789063 11.828125 6.105468 4.21875 12.410156 8.257812 18.425781 12.800781 5.988281 4.578125 11.453125 9.941407 16.144531 16.128907 4.667969 6.210937 8.71875 13.125 11.773438 20.6875 2.996094 7.558593 5.089844 15.878906 4.746094 24.65625l-1.785157.832031c-4.714843-6.125-9.375-11.476563-14.242187-16.609375-4.847656-5.121094-9.800782-10.003906-14.855469-14.835938-5.089844-4.792968-10.015625-9.777344-14.804687-15.066406-4.832032-5.25-9.78125-10.496094-15.183594-15.210938-5.382813-4.738281-10.957032-9.289062-16.636719-13.71875-5.621094-4.519531-11.40625-8.855468-17.277344-13.082031-11.695312-8.535156-23.792969-16.613281-36.152343-24.304687zm0 0" fill="url(#g)"/><path d="m118.074219 322.199219c8.847656 3.082031 17.25 6.988281 25.480469 11.253906 4.078124 2.183594 8.117187 4.460937 12.0625 6.898437 3.902343 2.5 7.746093 5.105469 11.492187 7.886719 3.707031 2.828125 7.554687 5.527344 11.179687 8.582031 3.601563 3.082032 6.796876 6.722657 9.421876 10.964844 2.605468 4.253906 4.753906 9.015625 6.195312 14.253906 1.402344 5.242188 2.152344 11.03125 1.261719 17.199219l-1.242188.621094c-2.644531-4.195313-5.3125-7.847656-8.132812-11.34375-2.804688-3.484375-5.703125-6.804687-8.667969-10.085937-2.996094-3.25-5.863281-6.640626-8.621094-10.246094-2.785156-3.578125-5.652344-7.148438-8.859375-10.339844-3.1875-3.207031-6.519531-6.28125-9.925781-9.265625-3.367188-3.046875-6.851562-5.960937-10.402344-8.800781-7.0625-5.734375-14.425781-11.136719-21.996094-16.261719zm0 0" fill="url(#h)"/><path d="m43.878906 399.210938c7.347656 2.058593 14.234375 4.925781 20.9375 8.148437 3.320313 1.660156 6.589844 3.414063 9.769532 5.324219 3.132812 1.972656 6.210937 4.050781 9.179687 6.304687 2.9375 2.300781 6.007813 4.464844 8.847656 6.984375 2.820313 2.542969 5.242188 5.65625 7.109375 9.378906 1.851563 3.738282 3.257813 7.992188 4.011719 12.757813.71875 4.773437.824219 10.125-.523437 15.976563l-1.125.699218c-1.894532-3.675781-3.855469-6.847656-5.960938-9.851562-2.097656-3-4.289062-5.835938-6.539062-8.628906-2.28125-2.761719-4.441407-5.664063-6.484376-8.78125-2.070312-3.085938-4.210937-6.160157-6.675781-8.847657-2.457031-2.707031-5.042969-5.265625-7.707031-7.742187-2.617188-2.535156-5.355469-4.9375-8.152344-7.261719-5.5625-4.703125-11.414062-9.070313-17.464844-13.15625zm0 0" fill="url(#i)"/><path d="m49.328125 370.410156c9.878906 3.789063 19.324219 8.414063 28.605469 13.398438 4.609375 2.542968 9.171875 5.179687 13.648437 7.980468 4.429688 2.859376 8.808594 5.828126 13.082031 8.976563 4.238282 3.195313 8.625 6.257813 12.789063 9.683594 4.136719 3.449219 7.871094 7.460937 11.015625 12.058593 3.128906 4.609376 5.785156 9.722657 7.699219 15.285157 1.875 5.5625 3.070312 11.660156 2.492187 18.039062l-1.316406.570313c-3.164062-4.550782-6.320312-8.539063-9.628906-12.367188-3.300782-3.824218-6.683594-7.476562-10.140625-11.09375-3.484375-3.589844-6.84375-7.3125-10.09375-11.257812-3.28125-3.914063-6.648438-7.832032-10.359375-11.371094-3.699219-3.554688-7.539063-6.976562-11.464844-10.3125-3.878906-3.398438-7.878906-6.667969-11.949219-9.863281-8.101562-6.441407-16.507812-12.558594-25.117187-18.402344zm0 0" fill="url(#j)"/><path d="m65.320312 444.84375c-11.800781-11.796875-25.5625-19.929688-39.40625-24.175781 1.578126 13.957031-.347656 28.113281-5.917968 41.054687-4.292969 9.984375-10.554688 21.265625-19.644532 32.273438-1.089843 1.316406.585938 3.105468 1.949219 2.078125 6.136719-4.609375 14.023438-11.265625 20.703125-19.238281 6.148438-7.335938 15.539063-10.308594 23.789063-11.394532 7.40625-.976562 14.894531-.078125 22.050781 2.066406 4.847656 1.457032 9.902344 2.375 15.039062 2.832032-4.535156-8.996094-10.746093-17.675782-18.5625-25.496094zm0 0" fill="url(#l)"/><path d="m246.167969 410.257812c8.605469-6.820312 18.585937-15.359374 30.414062-26.15625 48.640625-44.40625 51.609375-120.214843 5.660157-167.402343-.953126-.980469-1.917969-1.953125-2.894532-2.914063-9.945312-9.816406-21.199218-17.457031-33.179687-22.960937zm0 0" fill="url(#m)"/></svg>